<svg version="1.1" id="Layer_1" xmlns="http://www.w3.org/2000/svg" xmlns:xlink="http://www.w3.org/1999/xlink" transform="scale(-1, 1)" x="0px" y="0px" viewBox="0 0 1200 1200" enable-background="new 0 0 1200 1200" xml:space="preserve">
<g>
	<path fill="#B2694F" d="M1120.191,974.942c-0.861-2.183-3.948-3.099-5.359-0.891c-0.718-22.584-13.121-48.431-30.228-60.383&#10;&#9;&#9;c-2.056-1.436-4.457,0.928-3.972,3.054c1.972,8.656,5.99,16.652,7.778,25.298c-1.247-0.832-2.532-1.618-3.852-2.352&#10;&#9;&#9;c-2.481-4.83-5.686-9.283-9.607-13.023c-5.316-5.07-14.966-12.111-24.475-15.138c2.304-38.628,1.098-77.454-3.644-115.874&#10;&#9;&#9;c-5.57-45.127-13.973-91.185-33.403-132.4c2.792-33.697-4.007-66.497-14.953-100.057c-16.554-50.756-33.283-101.455-49.925-152.181&#10;&#9;&#9;c-14.836-45.221-29.246-90.624-53.634-131.807c-19.953-33.696-47.855-73.098-82.952-94.86c16.75-10.323,32.34-30.885,41.159-42.99&#10;&#9;&#9;c18.564-25.481-0.356-41.182-20.032-57.022c-20.888-16.815-41.307-37.661-70.358-33.862c-17.172,2.245-40.589,12.752-53.675,28.002&#10;&#9;&#9;c-2.675-1.178-5.218-2.22-7.53-3.1c-34.37-13.077-71.874-11.479-107.734-7.025c-34.519,4.288-69.27,8.846-103.233,16.469&#10;&#9;&#9;c-21.408,4.805-51.052,11.579-71.655,25.816c-14.655-14.657-34.01-28.855-53.774-23.215c-22.021,6.284-42.131,27.679-55.185,45.343&#10;&#9;&#9;c-6.698,9.064-13.626,18.755-11.422,30.604c1.974,10.612,11.468,19.743,18.352,27.402c10.941,12.172,30.642,34.23,49.556,37.266&#10;&#9;&#9;c0.805,5.522,1.751,11.085,2.35,16.82c1.457,13.957,2.107,27.96,2.302,41.988c0.446,32.046-0.642,64.125-0.946,96.17&#10;&#9;&#9;c-0.3,31.6-0.849,63.21-0.859,94.811c-0.003,9.08-0.154,18.226-0.155,27.361c-12.437,11.913-23.022,26.678-34.228,39.787&#10;&#9;&#9;c-11.386,13.318-23.56,26.003-34.529,39.665c-2.579,3.213-4.983,6.51-7.294,9.852c-11.541,7.54-21.888,18.02-30.781,26.802&#10;&#9;&#9;c-18.864,18.629-38.03,38.667-52.893,60.7c-13.246,19.638-18.413,40.949-12.3,63.782c-1.988,13.208-0.451,25.3,5.21,39.496&#10;&#9;&#9;c6.754,16.935,17.213,35.035,31.452,46.76c12.633,10.403,31.664,16.225,45.31,4.213c5.495-4.837,10.252-11.758,12.855-19.194&#10;&#9;&#9;c8.609-3.056,16.62-7.906,24.892-12.183c14.328-7.408,28.62-14.893,43.038-22.124c9.269-4.648,18.647-9.12,27.955-13.717&#10;&#9;&#9;c1.575,12.763,5.669,25.927,7.832,36.217c2.55,12.125,5.407,24.19,8.158,36.271c1.522,6.682,2.397,13.145,4.494,19.025&#10;&#9;&#9;c-1.654,0.615-3.35,1.245-5.123,1.852c-11.617,3.975-23.261,7.871-34.932,11.684c-23.362,7.634-46.663,15.449-70.112,22.812&#10;&#9;&#9;c-23.459,7.366-46.978,14.53-70.482,21.747c-18.824,5.78-37.347,10.788-54.047,20.606c-1.756-12.163-3.522-24.337-3.072-36.246&#10;&#9;&#9;c0.421-11.134-14.351-13.753-19.874-5.383c-19.849,30.079-29.526,66.621-41.211,100.491c-5.725,16.596-11.537,33.171-16.686,49.956&#10;&#9;&#9;c-4.264,13.898-9.106,28.301-8.872,42.89c-2.198,1.494-4.16,3.324-5.773,5.61c-0.723,1.024-0.723,2.843,0,3.867&#10;&#9;&#9;c7.728,10.944,22.807,11.466,35.292,12.688c19.136,1.872,38.359,2.082,57.572,2.281c39.446,0.409,78.894,0.446,118.342,0.563&#10;&#9;&#9;c38.381,0.114,76.763,0.228,115.144,0.341c9.179,0.027,18.361,0.098,27.543,0.131c-0.12,2.402-0.099,4.787,0.158,7.118&#10;&#9;&#9;c-5.895,10.536,7.288,25.413,20.672,26.146c29.803,1.632,61.474-3.265,91.221-5.173c60.494-3.88,120.991-7.747,181.435-12.367&#10;&#9;&#9;c56.708-4.334,114.448-8.126,170.026-20.889c5.987-1.375,12.228-2.934,18.584-4.702c5.57-0.776,11.095-1.782,16.544-3.166&#10;&#9;&#9;c20.643-5.243,40.487-14.902,57.334-27.9c9.772-7.539,17.912-15.897,24.739-24.92c22.961,8.662,52.788-2.885,70.84-17.749&#10;&#9;&#9;c9.714-1.985,18.196-6.264,26.056-14.953C1119.698,1006.709,1126.036,989.749,1120.191,974.942z M1053.859,933.02&#10;&#9;&#9;c-1.725,0.207-3.426,0.522-5.095,0.955c0.125-1.316,0.205-2.635,0.322-3.952C1050.752,930.91,1052.339,931.916,1053.859,933.02z" style="fill: rgb(193, 123, 0);"/>
	<path fill="#EFE3D8" d="M239.44,555.372c0,0,14.208-21.061,30.458-23.238c16.25-2.177,16.25-2.177,16.25-2.177&#10;&#9;&#9;s55.637,110.65,68.096,149.485c12.459,38.835,15.732,46.472,15.732,46.472s46.467-47.059,57.053-51.894&#10;&#9;&#9;c10.586-4.835,84.199-58.063,84.199-58.063l42.021-28.742c0,0,36.713,2.912,40.527,26.736L386.013,737.754&#10;&#9;&#9;c0,0-5.86,5.592-16.748,7.139c-10.888,1.547-33.082-38.782-33.082-38.782L239.44,555.372z" style="fill: rgb(239, 227, 216);"/>
	<path fill="#FFDA64" d="M597.044,904.028c-0.709-0.298-1.418-0.594-2.123-0.912c-1.846-0.3-3.869,0.373-5.103,1.788&#10;&#9;&#9;c-10.211-8.184-24.385-12.552-35.212-20.036c-9.062-6.264-17.805-12.86-26.64-19.326c0.702-0.214,1.461-0.404,2.342-0.56&#10;&#9;&#9;c4.958-0.876,9.989-0.876,14.997-0.604c1.807,0.098,3.141-0.557,4.01-1.59c-2.294-3.836-4.219-7.75-5.714-11.683&#10;&#9;&#9;c-3.84-2.683-7.681-5.363-11.551-8.005c-3.771-2.574-8.979-5.677-11.212-10.133c4.485-2.689,11.241-2.332,17.475-2.308&#10;&#9;&#9;c-1.043-6.729-1.482-13.65-1.333-20.596c-4.578-3.753-9.349-7.266-14.362-10.39c-0.924-0.545-1.849-1.09-2.773-1.635&#10;&#9;&#9;c-3.147-1.451-3.83-1.904-2.048-1.36c0.028-0.07,7.162-0.73,8.925-0.832c3.822-0.22,7.568,0.206,11.318,0.613&#10;&#9;&#9;c0.727-5.391,1.839-10.711,3.299-15.904c-2.493-2.258-4.972-4.531-7.405-6.854c-1.23-1.174-15.538-14.267-15.546-14.244&#10;&#9;&#9;c0.733-2.181,22.525,2.241,30.688,1.368c2.286-4.389,4.861-8.578,7.796-12.451c2.192-2.892,4.879-4.746,7.739-5.775&#10;&#9;&#9;c0.953-1.346,1.946-2.625,3.065-3.687c7.589-7.206,17.299-11.477,25.184-18.124c2.485,0.031,5.118-1.541,5.355-4.719&#10;&#9;&#9;c2.306-30.919,1.489-64.303-2.422-95.285c0.46-0.337,0.933-0.657,1.393-0.995c3.423-2.515,0.376-8.171-3.412-5.837&#10;&#9;&#9;c-0.148,0.091-0.296,0.182-0.444,0.273c-2.002-0.939-4.622,0.069-4.833,2.949c-0.001,0.01,0,0.02-0.001,0.029&#10;&#9;&#9;c-32.554,20.059-65.092,40.135-97.935,59.728c-16.452,9.814-33.035,19.409-49.741,28.784&#10;&#9;&#9;c-18.299,10.268-38.046,19.347-54.807,32.04c-0.783,0.593-1.244,1.424-1.444,2.303c-3.183,1.501-6.455,2.701-9.992,3.043&#10;&#9;&#9;c-14.111,1.365-21.311-9.275-28.427-19.63c-11.785-17.149-22.714-34.976-33.59-52.71c-10.893-17.759-21.658-35.6-32.328-53.493&#10;&#9;&#9;c-11.114-18.636-20.597-38.747-33.512-56.205c-0.847-1.145-2.203-1.6-3.473-1.506c-0.526-1.505-1.051-3.011-1.679-4.463&#10;&#9;&#9;c-0.392-0.908-1.947-0.659-2.128,0.278c-3.338,17.305-0.001,36.342,0.944,53.843c1.08,19.996,2.456,39.975,3.513,59.974&#10;&#9;&#9;c0.172,3.263,2.441,5.134,4.96,5.635c10.066,7.012,24.284,7.216,32.506,16.033c3.457,3.058,6.317,6.64,8.67,10.608&#10;&#9;&#9;c0.374,0.069,0.749,0.149,1.124,0.143c2.827,0.823,5.388,0.144,8.509-1.17c3.61-1.52,4.209-2.734,3.978,2.06&#10;&#9;&#9;c-0.166,3.453-0.739,7.142-2.388,10.244c-1.132,2.131-2.819,3.747-4.541,5.326c1.745,6.785,2.673,14,3.051,21.236&#10;&#9;&#9;c2.986-0.482,5.884-0.571,8.875-0.25c1.161,1.528,1.652,2.888,0.376,5.338c-1.739,3.339-5.49,5.578-8.211,8.036&#10;&#9;&#9;c-0.308,0.278-0.613,0.582-0.919,0.877c-0.223,7.039-0.822,13.822-1.534,19.963c3.592,1.299,7.91,1.679,11.938,2.069&#10;&#9;&#9;c0.498,2.108-0.014,4.926-0.656,6.433c-1.504,3.526-4.197,6.313-7.23,8.591c-3.882,2.915-7.257,5.227-8.81,10.075&#10;&#9;&#9;c-0.899,2.805,0.284,4.938,2.177,6.081c0.673,1.798,1.802,2.924,3.4,3.818c0.581,3.045,1.789,6.242,0.552,7.994&#10;&#9;&#9;c-0.081,0.115-6.131,2.753-6.427,2.938c-1.881,1.175-3.947,2.941-5.533,4.478c-10.207,9.883-18.005,22.487-34.625,20.648&#10;&#9;&#9;c-4.724-0.523-5.819,7.456-1.128,8.336c0.05,0.009,0.097,0.018,0.147,0.027c-3.843,9.294-0.449,21.705,0.149,31.489&#10;&#9;&#9;c0.616,10.062-0.302,19.862,6.944,27.617c3.583,3.835,8.26,6.501,12.074,10.118c20.293,28.701,43.799,55.393,68.848,80.394&#10;&#9;&#9;c5.719,8.73,11.994,16.36,20.513,23.052c5.459,6.742,12.092,12.02,19.845,14.874c0.261,0.232,0.52,0.469,0.781,0.701&#10;&#9;&#9;c2.677,2.378,5.783,2.524,8.358,1.441c1.808,0.188,3.666,0.251,5.573,0.179c18.148-0.679,34.634-14.189,49.227-23.516&#10;&#9;&#9;c0.232-0.148,0.408-0.322,0.614-0.483c0.383-0.146,0.752-0.332,1.078-0.593c13.424-10.77,13.842-33.824,19.317-49.044&#10;&#9;&#9;c1.355-3.764,4.07-15.193,10.257-14.439c3.243,0.395,8.835,7.595,10.802,9.806c7.687,8.643,12.531,18.652,16.14,29.569&#10;&#9;&#9;c0.494,1.496,1.343,2.573,2.367,3.296c0.952,1.622,2.772,2.687,4.913,1.977c14.952-4.957,28.129-14.377,41.603-22.366&#10;&#9;&#9;c13.543-8.029,27.456-15.805,40.563-24.57c17.979,1.568,13.355-41.113,5.541-49.698&#10;&#9;&#9;C597.476,904.352,597.259,904.192,597.044,904.028z" style="fill: rgb(255, 220, 101);"/>
	<g opacity="0.71">
		<path fill="#CFDBE5" d="M440.88,257.621c-18.289-12.197-46.256-9.237-60.745,7.637c-7.799,9.083-12.53,19.968-11.856,32.147&#10;&#9;&#9;&#9;c0.538,9.732,3.827,19.024,9.525,26.747c4.336,7.46,10.653,13.865,18.683,18.176c24.981,13.411,58.991,3.371,66.935-25.575&#10;&#9;&#9;&#9;C469.505,294.583,459.757,270.21,440.88,257.621z"/>
		<path fill="#CFDBE5" d="M627.424,276.215c-8.317-30.949-44.817-41.074-70.516-27.293c-0.525,0.149-1.048,0.293-1.58,0.475&#10;&#9;&#9;&#9;c-12.772,4.364-22.149,14.698-25.232,27.862c-1.12,4.786-1.402,9.618-0.982,14.355c-0.534,3.177-0.933,6.384-1.12,9.61&#10;&#9;&#9;&#9;c-1.403,24.16,17.664,41.616,40.942,42.321c17.443,0.529,35.107-5.813,45.951-19.849c2.222-2.876,3.95-5.911,5.284-9.031&#10;&#9;&#9;&#9;C627.848,304.172,631.324,290.723,627.424,276.215z"/>
	</g>
	<g>
		<path fill="#38231D" d="M157.112,968.173c1.556,9.977,2.917,19.938,6.035,29.569c0.251,0.777,1.593,0.699,1.505-0.204&#10;&#9;&#9;&#9;c-0.992-10.143-3.707-19.875-6.279-29.713C158.155,966.993,156.986,967.361,157.112,968.173L157.112,968.173z"/>
	</g>
	<g>
		<path fill="#38231D" d="M604.177,242.566c-18.176-9.344-38.643-7.696-54.736,1.958c-0.206-0.027-0.425,0.017-0.629,0.197&#10;&#9;&#9;&#9;c-0.15,0.132-0.292,0.275-0.44,0.409c-9.86,6.205-17.975,15.473-22.734,27.136c-1.128,2.765-1.979,5.744-2.568,8.862&#10;&#9;&#9;&#9;c-12.418-8.507-38.804-5.864-49.068,6.981c-3.533-15.466-13.393-29.425-28.617-37.252c-18.176-9.344-38.643-7.696-54.736,1.958&#10;&#9;&#9;&#9;c-0.206-0.027-0.425,0.017-0.629,0.197c-0.149,0.132-0.292,0.276-0.44,0.41c-9.86,6.205-17.975,15.473-22.734,27.136&#10;&#9;&#9;&#9;c-11.311,27.721,4.983,76.751,39.686,74.771c21.648,4.541,46.325-3.912,59.038-22.38c8.116-11.791,11.04-25.626,9.467-38.82&#10;&#9;&#9;&#9;c5.95-5.12,11.993-7.421,20.364-8.549c10.131-1.364,21.625-0.508,26.71,8.529c0.768,25.903,16.564,54.448,43.214,52.928&#10;&#9;&#9;&#9;c21.647,4.541,46.325-3.912,59.037-22.38C643.431,296.956,634.086,257.942,604.177,242.566z M406.263,346.321&#10;&#9;&#9;&#9;c-34.351-8.717-39.469-43.453-28.172-71.237c1.428-2.213,3.02-4.299,4.821-6.184c25.278-26.459,73.329-17.568,82.617,19.527&#10;&#9;&#9;&#9;C474.334,323.597,440.86,355.101,406.263,346.321z M565.055,338.029c-34.352-8.718-39.469-43.455-28.172-71.239&#10;&#9;&#9;&#9;c1.428-2.213,3.019-4.298,4.82-6.183c25.278-26.458,73.329-17.568,82.617,19.527C633.125,315.305,599.652,346.809,565.055,338.029&#10;&#9;&#9;&#9;z"/>
		<g>
			<path fill="#38231D" d="M432.87,284.963c5.741-0.046,10.665-4.907,9.898-10.756c-0.737-5.615-6.418-10.078-11.83-8.374&#10;&#9;&#9;&#9;&#9;c-4.098,0.76-7.23,4.321-7.611,8.824C422.855,280.227,427.295,285.007,432.87,284.963z M433.181,275.242&#10;&#9;&#9;&#9;&#9;c-0.017-0.02-0.031-0.036,0.035,0.02c0.01,0.006,0.005,0.022,0.013,0.029c-0.01-0.01-0.041-0.039-0.049-0.046&#10;&#9;&#9;&#9;&#9;C433.18,275.244,433.181,275.243,433.181,275.242z"/>
			<path fill="#38231D" d="M590.533,277.013c1.79-1.007,3.071-2.447,3.903-4.079c1.219-1.547,2.057-3.441,2.207-5.617&#10;&#9;&#9;&#9;&#9;c0.452-6.531-5.072-12.094-11.612-11.496c-7.036,0.644-12.157,7.283-10.352,14.267&#10;&#9;&#9;&#9;&#9;C576.471,277.021,584.231,280.558,590.533,277.013z M586.632,267.36c-0.002-0.001-0.005-0.002-0.007-0.004&#10;&#9;&#9;&#9;&#9;c0.002,0.003,0.003,0.008,0.006,0.012c-0.002,0.005-0.01-0.013-0.013-0.012c0.001,0,0.002-0.001,0.002-0.001&#10;&#9;&#9;&#9;&#9;c-0.002-0.001-0.005-0.002-0.007-0.004c-0.009-0.002-0.015,0.009-0.033-0.031c-0.002,0.002-0.001,0.002-0.003,0.003&#10;&#9;&#9;&#9;&#9;c-0.047-0.031-0.094-0.062-0.121-0.096c-0.091-0.112-0.198-0.211-0.301-0.313c0.029-0.047,0.049-0.008,0.46,0.424&#10;&#9;&#9;&#9;&#9;c0.004,0.004,0.004,0.012,0.008,0.016c0.003-0.001,0.007-0.005,0.009-0.005C586.632,267.351,586.633,267.358,586.632,267.36z"/>
			<polygon fill="#38231D" points="586.621,267.354 586.625,267.357 586.623,267.353 &#9;&#9;&#9;"/>
			<path fill="#38231D" d="M439.682,369.153c6.549,10.427,20.051,20.959,28.683,29.714c6.752,6.849,15.393,19.683,24.43,22.973&#10;&#9;&#9;&#9;&#9;c6.371,2.319,9.75-1.121,15.654-4.333c11.702-6.366,22.83-13.658,34.563-19.921c1.838-0.981,0.184-3.84-1.638-2.802&#10;&#9;&#9;&#9;&#9;c-8.288,4.722-16.93,8.616-25.322,13.144c-5.258,2.837-9.16,5.93-15.46,5.683c-3.806-0.149-5.803-0.833-7.512-2.153&#10;&#9;&#9;&#9;&#9;c-2.199-14.065-8.215-27.817-12.866-41.187c-4.736-13.615-9.041-27.845-15.613-40.72c2.354-3.945,4.73-7.877,7.147-11.781&#10;&#9;&#9;&#9;&#9;c10.188-16.456,21.025-32.611,31.962-48.574c0.787-1.149-1.039-2.583-1.947-1.502c-16.401,19.526-31.476,39.943-45.449,61.298&#10;&#9;&#9;&#9;&#9;C449.728,339.063,432.012,356.938,439.682,369.153z M480.258,395.163c-0.163-0.198-0.321-0.399-0.481-0.598&#10;&#9;&#9;&#9;&#9;c0.017-0.345-0.001-0.706-0.061-1.086C479.898,394.04,480.073,394.604,480.258,395.163z M476.269,382.368&#10;&#9;&#9;&#9;&#9;c-0.354-0.834-0.708-1.667-1.096-2.482c-0.693-2.136-1.332-4.286-1.999-6.429c0.009-0.249,0.022-0.5,0.027-0.748&#10;&#9;&#9;&#9;&#9;c0.264,0.796,0.534,1.594,0.793,2.387C474.775,377.488,475.524,379.922,476.269,382.368z M461.714,334.466&#10;&#9;&#9;&#9;&#9;c-0.002-0.002-0.005-0.003-0.007-0.005c0.002-0.003,0.003-0.005,0.005-0.008C461.712,334.457,461.713,334.462,461.714,334.466z"/>
			<path fill="#38231D" d="M540.097,411.746c4.929-0.261,9.593-3.04,13.829-5.386c3.178-1.76,9.095-4.109,8.948-8.395&#10;&#9;&#9;&#9;&#9;c-0.029-0.829-0.522-1.327-1.24-1.63c-3.662-1.54-7.98,2.625-11.029,4.343c-4.039,2.275-8.722,3.892-12.18,7.029&#10;&#9;&#9;&#9;&#9;C536.937,409.056,538.073,411.853,540.097,411.746z"/>
			<path fill="#38231D" d="M1009.534,649.537c-0.591,96.055-64.395,172.675-150.605,208.144&#10;&#9;&#9;&#9;&#9;c-45.996,18.924-94.809,34.298-143.824,42.942c-25.476,4.493-51.366,6.704-77.239,6.266c-25.11-0.424-52.469-2.832-72.385-19.723&#10;&#9;&#9;&#9;&#9;c-0.677-0.574-1.65,0.362-0.988,0.988c35.123,33.199,90.514,30.049,135.034,24.043c57.029-7.693,114.334-25.235,167.2-47.824&#10;&#9;&#9;&#9;&#9;c43.341-18.518,80.684-45.41,107.002-84.995c25.565-38.453,38.124-83.839,37.699-129.842&#10;&#9;&#9;&#9;&#9;C1011.415,648.319,1009.541,648.317,1009.534,649.537z"/>
			<path fill="#38231D" d="M530.414,868.026c5.077,3.214,10.3,6.209,15.498,9.223c4.553,2.641,9.169,6.063,14.441,6.919&#10;&#9;&#9;&#9;&#9;c0.539,0.088,1.17-0.472,0.789-1.026c-2.899-4.22-7.575-6.781-11.73-9.648c-3.533-2.439-7.082-4.864-10.656-7.248&#10;&#9;&#9;&#9;&#9;c5.079-1.056,10.906-0.797,15.584-0.379c3.11,0.278,3.205-4.925,0-4.912c-3.758,0.015-7.518-0.012-11.267,0.296&#10;&#9;&#9;&#9;&#9;c-3.689,0.302-7.424,1.258-11.124,1.108C528.811,862.231,527.977,866.484,530.414,868.026z"/>
			<path fill="#38231D" d="M530.631,841.737c6.968,4.017,14.104,6.617,21.298,10.029c0.664,0.315,1.147-0.542,0.569-0.973&#10;&#9;&#9;&#9;&#9;c-3.651-2.719-6.765-5.968-10.478-8.627c-2.902-2.079-7.226-5.878-10.843-7.411c1.619-0.01,3.237-0.019,4.855-0.029&#10;&#9;&#9;&#9;&#9;c4.649-0.028,9.299-0.055,13.948-0.083c3.741-0.022,3.746-5.789,0-5.813c-7.15-0.046-14.309-0.203-21.459-0.138&#10;&#9;&#9;&#9;&#9;c-3.12,0.028-7.37,0.128-7.743,4.189C520.354,837.512,527.638,840.012,530.631,841.737z"/>
			<path fill="#38231D" d="M518.951,799.852c5.558,3.76,11.14,7.469,16.768,11.122c4.961,3.22,9.947,7.041,15.679,8.706&#10;&#9;&#9;&#9;&#9;c0.608,0.177,1.32-0.59,0.89-1.159c-3.456-4.572-8.501-7.788-13.092-11.154c-3.138-2.301-6.315-4.544-9.475-6.812&#10;&#9;&#9;&#9;&#9;c6.84,0.353,13.662,0.994,20.453,1.952c3.789,0.535,5.455-5.246,1.605-5.823c-10.428-1.564-20.834-2.276-31.381-2.182&#10;&#9;&#9;&#9;&#9;C517.433,794.528,516.652,798.296,518.951,799.852z"/>
			<path fill="#38231D" d="M555.859,765.771c1.693-0.332,1.63-2.546,0.441-3.377c-4.359-3.045-10.4-3.189-15.579-3.899&#10;&#9;&#9;&#9;&#9;c-6.022-0.826-12.06-1.338-18.131-1.614c-2.497-0.113-4.141,3.466-2.135,5.153c10.05,8.451,19.814,17.002,30.865,24.081&#10;&#9;&#9;&#9;&#9;c1.235,0.791,2.399-0.932,1.502-1.946c-6.675-7.548-14.09-14.2-21.648-20.791c3.06,0.223,6.114,0.512,9.161,0.901&#10;&#9;&#9;&#9;&#9;C545.474,764.936,550.735,766.776,555.859,765.771z"/>
			<path fill="#38231D" d="M247.678,844.938c1.102,1.081,2.203,2.161,3.305,3.241c0.104,0.102,0.261-0.056,0.16-0.159&#10;&#9;&#9;&#9;&#9;c-1.08-1.102-2.161-2.203-3.241-3.305C247.759,844.57,247.533,844.796,247.678,844.938z"/>
			<path fill="#38231D" d="M285.602,795.477c-1.483,0.609-0.957,2.744,0.671,2.434c12.083-2.304,22.339-9.255,26.955-20.996&#10;&#9;&#9;&#9;&#9;c0.551-1.401-0.83-2.71-2.112-2.772c-8.798-0.427-18.239-1.643-26.799,1.14c-2.47,0.803-2.055,4.49,0.617,4.559&#10;&#9;&#9;&#9;&#9;c7.278,0.187,14.533-1.199,21.829-1.368C301.088,785.619,294.117,791.982,285.602,795.477z"/>
			<path fill="#38231D" d="M310.334,737.169c-7.951,1.099-15.985,1.648-23.899,3.025c-2.82,0.491-2.203,5.362,0.683,5.046&#10;&#9;&#9;&#9;&#9;c6.227-0.683,12.386-1.847,18.562-2.887c-4.911,6.669-9.225,13.924-17.798,16.426c-1.168,0.341-1.008,2.353,0.299,2.213&#10;&#9;&#9;&#9;&#9;c11.426-1.218,20.775-10.655,24.868-21.107C313.741,738.12,311.788,736.968,310.334,737.169z"/>
			<path fill="#38231D" d="M304.924,695.088c-4.469,2.519-9.074,4.806-13.691,7.063c-2.447-18.982-23.662-26.847-40.585-29.658&#10;&#9;&#9;&#9;&#9;c-3.845-0.639-5.582,5.096-1.641,5.953c15.933,3.468,30.755,10.824,37.87,25.841c-0.998,0.488-1.997,0.974-2.991,1.467&#10;&#9;&#9;&#9;&#9;c-2.927,1.451-0.349,5.903,2.57,4.397c5.242-2.704,10.449-5.519,15.751-8.121c-3.058,8.808-8.893,16.365-17.194,21.066&#10;&#9;&#9;&#9;&#9;c-1.615,0.915-0.518,3.812,1.303,3.089c12.445-4.945,20.938-15.472,22.474-28.879&#10;&#9;&#9;&#9;&#9;C309.022,695.284,306.464,694.22,304.924,695.088z"/>
			<path fill="#38231D" d="M283.899,829.626c0.091-0.354-0.034-0.67-0.227-0.935c8.055-2.9,14.975-7.262,20.024-14.974&#10;&#9;&#9;&#9;&#9;c1.153-1.762-0.373-4.051-2.339-4.075c-4.434-0.054-8.866-0.204-13.3-0.24c-3.588-0.029-7.61-0.708-10.592,1.56&#10;&#9;&#9;&#9;&#9;c-0.971,0.739-1.168,2.178,0,2.88c3.223,1.935,6.97,0.962,10.592,0.85c2.513-0.078,5.027-0.057,7.539,0.028&#10;&#9;&#9;&#9;&#9;c-5.376,5.794-11.487,11.325-18.649,14.451c-0.835,0.364-0.232,1.664,0.608,1.441c0.573-0.152,1.124-0.33,1.688-0.492&#10;&#9;&#9;&#9;&#9;c-14.493,8.681-26.358,14.294-43.112,2.588c-14.393-10.056-23.412-27.65-29.4-43.73c-0.059-0.161-0.304-0.1-0.261,0.072&#10;&#9;&#9;&#9;&#9;c5.522,21.848,12.695,43.332,35.132,52.882C255.115,847.685,279.47,846.991,283.899,829.626z"/>
			<path fill="#38231D" d="M331.915,631.721c13.083,31.085,23.445,63.294,36.456,94.366c-0.459,0.517-0.943,1.013-1.399,1.532&#10;&#9;&#9;&#9;&#9;c-0.724,0.824,0.401,1.971,1.211,1.211c0.318-0.299,0.638-0.592,0.957-0.891c0.348,0.823,0.677,1.656,1.029,2.477&#10;&#9;&#9;&#9;&#9;c0.408,0.952,1.812,0.247,1.606-0.677c-0.257-1.157-0.578-2.306-0.85-3.461c28.322-26.473,56.909-51.645,88.473-74.387&#10;&#9;&#9;&#9;&#9;c30.978-22.32,63.154-42.937,95.126-63.789c1.208-0.788,0.101-2.719-1.137-1.946c-56.79,35.502-117.359,72.346-165.879,119.846&#10;&#9;&#9;&#9;&#9;c-4.192-47.272-9.326-94.375-11.438-141.813c-1.013-22.768-1.742-45.465-1.717-68.26c0.027-24.75,2.94-49.645,2.267-74.326&#10;&#9;&#9;&#9;&#9;c-0.016-0.588-0.93-0.761-1.062-0.144c-4.743,22.134-5.107,45.715-6.461,68.266c-1.485,24.732-2.083,49.694-1.42,74.463&#10;&#9;&#9;&#9;&#9;c1.278,47.718,6.028,95.833,17.318,142.265c0.142,0.585,0.644,0.86,1.163,0.888c-5.444,5.377-10.699,10.919-15.81,16.583&#10;&#9;&#9;&#9;&#9;c-7.877-32.304-21.077-63.963-33.933-94.455c-14.47-34.321-30.816-67.77-48.496-100.547c-1.255-2.327-4.769-0.264-3.541,2.07&#10;&#9;&#9;&#9;&#9;C301.674,563.869,317.504,597.48,331.915,631.721z"/>
			<path fill="#38231D" d="M735.068,106.455c17.296-8.221,38.511-12.041,54.376,1.59c17.42,14.966,16.068,36.256,0.638,51.898&#10;&#9;&#9;&#9;&#9;c-1.286,1.304,0.338,3.29,1.911,2.477c20.67-10.681,22.574-40.937,7.638-57.143c-17.633-19.133-47.732-18.78-65.356,0.152&#10;&#9;&#9;&#9;&#9;C733.755,105.99,734.407,106.77,735.068,106.455z"/>
			<path fill="#38231D" d="M770.169,131.563c0.916,0.201,2-0.433,1.94-1.477c-0.26-4.483-5.555-6.414-9.392-6.509&#10;&#9;&#9;&#9;&#9;c-4.772-0.117-8.03,2.507-10.2,6.513c-0.588,1.086,0.828,2.246,1.734,1.338c1.952-1.957,5.395-2.431,8.052-2.354&#10;&#9;&#9;&#9;&#9;C765.257,129.159,767.424,130.959,770.169,131.563z"/>
			<path fill="#38231D" d="M776.745,149.308c2.298-4.067-0.003-8.867-4.223-10.549c-4.197-1.673-9.104,0.525-11.182,4.391&#10;&#9;&#9;&#9;&#9;c0.914-4.562,3.702-10.09,9.01-9.99c0.794,0.015,1.005-1.263,0.192-1.416c-3.332-0.63-6.702,0.389-9.103,2.792&#10;&#9;&#9;&#9;&#9;c-2.464,2.467-3.486,6.109-1.374,9.12c0.258,0.368,0.894,0.407,1.111-0.01c-0.11,1.043,1.35,1.644,2.098,0.659&#10;&#9;&#9;&#9;&#9;c1.905-2.505,5.372-3.282,8.03-1.487c1.946,1.314,3.201,4.032,3.71,6.266C775.198,149.88,776.355,149.999,776.745,149.308z"/>
			<path fill="#38231D" d="M768.457,148.825c-1.296-0.35-1.796,1.784-0.539,1.956c1.904,0.261,3.807,0.567,5.722,0.734&#10;&#9;&#9;&#9;&#9;c0.71,0.062,0.787-0.993,0.162-1.195C772.042,149.751,770.242,149.307,768.457,148.825z"/>
			<path fill="#38231D" d="M381.292,154.755c1.694,0.97,3.453-0.624,3.112-2.392c-0.904-4.672-7.027-6.871-11.24-6.045&#10;&#9;&#9;&#9;&#9;c-4.385,0.859-7.631,4.46-8.603,8.737c-0.455,2,2.256,2.64,2.998,0.827c1.133-2.766,3.755-4.566,6.76-4.522&#10;&#9;&#9;&#9;&#9;c1.916,0.028,3.255,0.864,4.596,1.809c-4.452,0.439-8.373,1.706-11.973,4.793c-3.763,3.228-7.088,7.793-6.329,12.967&#10;&#9;&#9;&#9;&#9;c0.149,1.02,1.778,1.45,2.411,0.636c2.494-3.208,3.873-7.091,6.626-10.129c2.818-3.11,6.591-6.004,10.649-7.334&#10;&#9;&#9;&#9;&#9;C380.625,154.323,380.938,154.552,381.292,154.755z"/>
			<path fill="#38231D" d="M370.688,172.434c-4.048-2.043-8.705,0.92-11.244,4.052c-3.029,3.736-4.208,8.119-1.891,12.513&#10;&#9;&#9;&#9;&#9;c0.747,1.417,2.982,1.057,3.377-0.441c0.715-2.714,1.793-5.937,3.522-8.199c1.804-2.361,4.521-3.537,6.533-5.625&#10;&#9;&#9;&#9;&#9;C371.604,174.092,371.551,172.87,370.688,172.434z"/>
			<path fill="#38231D" d="M361.606,191.732c-1.321,1.324-2.174,3.194-2.02,5.081c0.069,0.842,1.321,1.124,1.549,0.21&#10;&#9;&#9;&#9;&#9;c0.306-1.226,1.065-2.069,2.31-2.375c0.976-0.239,2.269-0.436,3.223-0.421c1.741,0.027,2.213-2.267,0.853-3.149&#10;&#9;&#9;&#9;&#9;C365.496,189.763,363.316,190.018,361.606,191.732z"/>
			<path fill="#38231D" d="M345.704,192.59c1.823,0.656,3.36-2.015,1.907-3.276c-5.581-4.846-12.587-7.592-16.363-14.285&#10;&#9;&#9;&#9;&#9;c-7.059-12.51,2.79-24.244,10.336-33.987c12.706-16.406,28.773-21.693,46.745-12.264c-11.297-2.303-25.434,5.161-23.854,17.948&#10;&#9;&#9;&#9;&#9;c0.201,1.623,2.03,2.175,3.023,0.819c2.909-3.975,5.698-8.451,10.203-10.802c5.335-2.785,11.396-1.827,16.968-0.389&#10;&#9;&#9;&#9;&#9;c1.925,0.497,3.455-1.954,1.973-3.389c-1.163-1.127-2.502-2-3.926-2.706c0.109-0.214,0.153-0.455-0.011-0.691&#10;&#9;&#9;&#9;&#9;c-14.018-20.143-42.477-14.13-54.491,4.772C325.65,154.105,318.256,182.717,345.704,192.59z"/>
			<path fill="#38231D" d="M604.374,952.17c-32.296,12.012-69.227,25.39-97.085,46.634c-0.322-7.506-4.044-15.182-7.189-21.688&#10;&#9;&#9;&#9;&#9;c-5.489-11.357-12.759-19.277-21.898-27.75c-0.895-0.83-2.576,0.278-1.824,1.354c-0.465,0.229-0.894,0.55-1.193,1.083&#10;&#9;&#9;&#9;&#9;c-11.828,21.061-20.856,44.132-27.565,68.071c-15.357,6.196-32.965,12.468-46.042,22.543c-4.679,0.134-9.204,1.455-13.915,0.911&#10;&#9;&#9;&#9;&#9;c-5.816-0.671-10.123-3.503-14.896-6.599c-0.546-0.354-1.183-0.243-1.68,0.088c-2.578-98.272-3.488-197.873-15.075-295.615&#10;&#9;&#9;&#9;&#9;c8.221,5.741,22.911,7.683,28.304-1.577c0.062-0.028,0.122-0.058,0.184-0.086c0.343,50.192,4.466,100.471,8.473,150.475&#10;&#9;&#9;&#9;&#9;c3.909,48.797,7.357,98.489,15.494,146.787c0.119,0.706,1.26,0.534,1.239-0.168c-1.46-49.87-6.878-99.979-10.564-149.742&#10;&#9;&#9;&#9;&#9;c-3.675-49.623-6.08-99.441-11.239-148.939c35.909-16.863,69.479-40.707,103.247-61.304&#10;&#9;&#9;&#9;&#9;c34.746-21.192,70.851-41.279,104.224-64.601c-0.373,34.231,0.369,68.739,2.384,102.92&#10;&#9;&#9;&#9;&#9;c-15.364,8.408-28.962,19.192-39.166,34.191c-0.768,1.129,0.83,2.04,1.734,1.338c49.917-38.765,110.563-49.874,165.348-78.882&#10;&#9;&#9;&#9;&#9;c11.845-6.271,24.736-13.354,34.546-22.644c10.321-9.773,13.631-22.172,15.902-35.82c6.78-40.736,19.03-79.1,34.942-117.2&#10;&#9;&#9;&#9;&#9;c0.917-2.195-2.891-3.82-3.871-1.632c-15.261,34.041-25.709,69.323-35.97,105.096c-5.489,19.138-7.6,36.135-23.065,50.266&#10;&#9;&#9;&#9;&#9;c-12.014,10.979-26.628,18.717-41.436,25.214c-31.923,14.005-71.447,21.047-104.078,37.509&#10;&#9;&#9;&#9;&#9;c-1.574-33.683-3.26-67.356-4.881-101.034c-0.02-0.409-0.203-0.701-0.455-0.893c-0.04-0.147-0.177-0.249-0.358-0.191&#10;&#9;&#9;&#9;&#9;c-0.593-0.192-1.305,0.059-1.503,0.739c-37.605,18.461-73.575,41.406-109.552,62.815c-33.011,19.643-68.581,38.065-99.082,61.654&#10;&#9;&#9;&#9;&#9;c-0.989-0.478-2.355-0.057-2.349,1.4c0,0.129,0.005,0.258,0.005,0.387c-0.016,0.012-0.032,0.024-0.048,0.037&#10;&#9;&#9;&#9;&#9;c-0.048-0.005-0.081-0.034-0.134-0.028c-2.479,0.276-4.88,0.937-7.292,1.539c69.45-49.42,140.604-94.176,213.811-137.811&#10;&#9;&#9;&#9;&#9;c1.428-0.851,0.169-2.973-1.296-2.218c-76.067,39.17-149.729,87.843-217.384,140.124c-0.316,0.244-0.437,0.567-0.428,0.895&#10;&#9;&#9;&#9;&#9;c-0.284,0.03-0.561,0.098-0.847,0.116c-0.991,0.064-1.961,0.045-2.921-0.011c-0.43-1.161-0.872-2.319-1.305-3.479&#10;&#9;&#9;&#9;&#9;c0.145,0.032,0.301,0.017,0.45-0.091c32.866-23.923,64.793-49.089,97.873-72.731c33.112-23.665,67.872-44.996,100.933-68.667&#10;&#9;&#9;&#9;&#9;c0.881-0.631,0.116-2.029-0.864-1.479c-36.152,20.285-70.341,45.283-104.08,69.305c-32.351,23.034-64.645,46.491-94.682,72.509&#10;&#9;&#9;&#9;&#9;c-0.025,0.022-0.015,0.053-0.035,0.076c-26.208-69.864-59.94-138.283-95.057-203.973c-0.897-1.678-3.338-0.203-2.529,1.478&#10;&#9;&#9;&#9;&#9;c33.071,68.768,64.234,138.671,98.179,206.976c-1.649-0.172-3.252-0.523-4.821-1.004&#10;&#9;&#9;&#9;&#9;c-15.175-34.601-34.134-67.948-51.872-101.262c-18.315-34.397-36.775-68.74-57.171-101.959c-1.077-1.755-3.753-0.196-2.763,1.615&#10;&#9;&#9;&#9;&#9;c18.708,34.181,38.374,67.831,57,102.059c17.644,32.423,33.375,66.022,51.349,98.249c-0.439-0.197-0.875-0.402-1.309-0.619&#10;&#9;&#9;&#9;&#9;c-34.394-63.651-76.613-124.061-116.58-184.299c-1.447-2.182-4.934-0.2-3.541,2.07c37.324,60.821,73.917,123.642,116.43,181.055&#10;&#9;&#9;&#9;&#9;c-0.374,0.189-0.671,0.503-0.847,0.89c-0.296,0.272-0.488,0.685-0.478,1.248c1.814,99.664,12.098,199.453,17.707,298.963&#10;&#9;&#9;&#9;&#9;c0.02,0.362,0.303,0.544,0.584,0.556c-0.063,0.107-0.1,0.223-0.137,0.339c-16.877-21.748-37.407-41.137-55.541-61.82&#10;&#9;&#9;&#9;&#9;c-20.319-23.175-40.739-46.428-60.428-70.133c-0.355-0.428-1.114,0.147-0.778,0.601c17.325,23.421,34.784,46.387,53.765,68.532&#10;&#9;&#9;&#9;&#9;c19.772,23.067,39.593,48.558,63.141,67.879c0.991,0.813,2.677,0.05,2.639-1.069c7.557,6.644,22.219,10.029,29.423,2.761&#10;&#9;&#9;&#9;&#9;c15.039-3.732,30.391-13.071,44.049-20.96c-9.956,36.96-14.458,75.844-14.977,112.592c-0.019,1.356,1.949,1.305,2.073,0&#10;&#9;&#9;&#9;&#9;c3.055-32.126,8.591-64.203,16.796-95.425c7.677-29.209,19.211-56.484,29.497-84.729c4.873,7.348,9.108,15.453,12.801,23.268&#10;&#9;&#9;&#9;&#9;c3.53,7.469,5.108,16.506,9.422,23.609c-0.993,1.109,0.292,3.125,1.754,2.623c0.02-0.007,0.04-0.015,0.061-0.022&#10;&#9;&#9;&#9;&#9;c0.149,0.192,0.268,0.404,0.423,0.592c0.616,0.745,1.833,0.282,2.072-0.547c0.099-0.344,0.166-0.692,0.245-1.038&#10;&#9;&#9;&#9;&#9;c33.991-12.228,66.399-33.937,98.233-50.731C605.876,953.29,605.294,951.827,604.374,952.17z"/>
			<path fill="#38231D" d="M168.557,970.423c1.166,4.073,2.45,8.147,3.476,12.256c0.904,3.62,1.102,7.69,3.083,10.903&#10;&#9;&#9;&#9;&#9;c0.359,0.582,1.188,0.436,1.4-0.183c2.475-7.223-2.343-17.694-6.147-23.74C169.784,968.728,168.24,969.313,168.557,970.423z"/>
			<path fill="#38231D" d="M181.756,972.81c1.458,2.112,2.328,4.73,2.432,7.296c0.019,0.477,0.662,0.448,0.721,0&#10;&#9;&#9;&#9;&#9;c0.394-2.96-0.292-5.536-2.064-7.933C182.372,971.532,181.288,972.132,181.756,972.81z"/>
			<path fill="#38231D" d="M512.885,1023.352c-0.836-0.429-2.155,0.303-1.755,1.349c1.854,4.833,5.379,8.926,7.458,13.678&#10;&#9;&#9;&#9;&#9;c0.346,0.791,1.629,0.375,1.596-0.432C519.959,1032.423,518.217,1026.085,512.885,1023.352z"/>
			<path fill="#38231D" d="M521.04,1021.877c2.523,4.208,4.151,8.856,6.447,13.144c0.327,0.611,1.318,0.331,1.302-0.352&#10;&#9;&#9;&#9;&#9;c-0.127-5.378-2.922-9.85-6.51-13.747C521.669,1020.26,520.581,1021.112,521.04,1021.877z"/>
			<path fill="#38231D" d="M530.737,1021.965c0.997,2.001,1.936,3.908,3.574,5.477c0.483,0.462,1.311,0.003,1.13-0.658&#10;&#9;&#9;&#9;&#9;c-0.598-2.185-1.826-3.924-3.109-5.752C531.652,1020.063,530.202,1020.891,530.737,1021.965z"/>
			<path fill="#38231D" d="M1041.979,1019.917c2.59-3.18,5.85-7.023,6.517-11.16c0.166-1.026-0.971-1.849-1.807-1.052&#10;&#9;&#9;&#9;&#9;c-3.018,2.873-4.879,7.072-7.475,10.353c-1.413,1.786-2.879,3.499-4.41,5.151c3.645-8.464,5.736-17.479,5.527-26.837&#10;&#9;&#9;&#9;&#9;c-0.031-1.355-1.807-1.484-2.258-0.305c-5.261,13.773-8.726,27.419-16.851,40.025c-8.458,13.123-19.964,25.368-32.971,34.067&#10;&#9;&#9;&#9;&#9;c-0.79,0.528-0.093,1.755,0.751,1.284c16.806-9.373,33.42-24.389,43.017-42.422&#10;&#9;&#9;&#9;&#9;C1035.632,1026.349,1039.132,1023.411,1041.979,1019.917z"/>
			<path fill="#38231D" d="M1048.097,1017.287c-2.494,1.415-4.495,3.74-6.77,5.484c-2.455,1.883-5.082,3.534-7.587,5.349&#10;&#9;&#9;&#9;&#9;c-1.06,0.768-0.448,2.43,0.903,2.142c5.575-1.19,13.099-5.521,15.427-11.001&#10;&#9;&#9;&#9;&#9;C1050.602,1018.008,1049.464,1016.511,1048.097,1017.287z"/>
		</g>
	</g>
	<path fill="#FFDA64" d="M239.44,555.372" style="fill: rgb(255, 220, 101);"/>
	<g>
		<path fill="#874B3D" d="M715.231,417.809c-0.776-2.511-4.203-1.418-3.838,1.058c0.365,2.486,0.678,4.987,1.133,7.458&#10;&#9;&#9;&#9;c0.397,2.155,0.412,4.416,2.51,5.552c0.976,0.528,1.997,0.177,2.621-0.687c1.372-1.902,0.31-4.144-0.247-6.211&#10;&#9;&#9;&#9;C716.759,422.569,715.968,420.194,715.231,417.809z" style="fill: rgb(135, 75, 61);"/>
		<path fill="#874B3D" d="M735.226,389.121c1.267,2.157,2.384,5.332,4.878,6.215c1.019,0.361,2.373-0.413,2.587-1.469&#10;&#9;&#9;&#9;c0.524-2.59-1.659-5.239-2.86-7.438C738.188,383.422,733.48,386.15,735.226,389.121z" style="fill: rgb(135, 75, 61);"/>
		<path fill="#874B3D" d="M781.287,297.656c-0.655-1.838-1.31-3.676-1.965-5.515c-1.208-3.391-6.098-1.429-4.599,1.939&#10;&#9;&#9;&#9;c0.792,1.78,1.584,3.561,2.376,5.341C778.148,301.775,782.158,300.098,781.287,297.656z" style="fill: rgb(135, 75, 61);"/>
		<path fill="#874B3D" d="M671.607,255.718c0.077,2.763-0.374,6.203,0.893,8.717c0.704,1.397,2.993,1.397,3.697,0&#10;&#9;&#9;&#9;c1.271-2.521,0.816-5.953,0.893-8.717C677.188,252.19,671.508,252.184,671.607,255.718z" style="fill: rgb(135, 75, 61);"/>
		<path fill="#874B3D" d="M621.52,406.182c1.408-2.277,1.483-4.929,1.436-7.55c-0.073-4.059-6.236-4.066-6.309,0&#10;&#9;&#9;&#9;c-0.047,2.628,0.025,5.268,1.436,7.55C618.878,407.468,620.724,407.468,621.52,406.182z" style="fill: rgb(135, 75, 61);"/>
		<path fill="#874B3D" d="M497.547,487.196c-0.452,3.034-1.541,6.694-0.724,9.711c0.66,2.438,4.153,2.927,5.413,0.707&#10;&#9;&#9;&#9;c1.539-2.713,1.412-6.507,1.729-9.549C504.342,484.439,498.089,483.551,497.547,487.196z" style="fill: rgb(135, 75, 61);"/>
		<path fill="#874B3D" d="M607.505,506.361c0.295-1.614-0.442-3.28-2.125-3.742c-1.476-0.406-3.445,0.5-3.742,2.125&#10;&#9;&#9;&#9;c-0.663,3.629-0.127,7.146,2.397,9.97c1.131,1.266,3.823,0.339,3.59-1.487C607.338,510.973,607.092,508.617,607.505,506.361z" style="fill: rgb(135, 75, 61);"/>
		<path fill="#874B3D" d="M645.522,464.817c0.701,2.238,1.284,4.537,2.308,6.651c0.797,1.645,2.906,0.606,3.079-0.834&#10;&#9;&#9;&#9;c0.259-2.157,0.056-4.375-0.002-6.546C650.798,460.016,644.338,461.037,645.522,464.817z" style="fill: rgb(135, 75, 61);"/>
		<path fill="#874B3D" d="M419.223,426.996c-0.252,2.79-1.059,6.23,0.001,8.915c1.205,3.05,5.025,3.055,6.232,0&#10;&#9;&#9;&#9;c1.06-2.684,0.253-6.123,0.001-8.915C425.096,422.992,419.585,422.984,419.223,426.996z" style="fill: rgb(135, 75, 61);"/>
		<path fill="#874B3D" d="M668.244,333.906c0.538,2.056,1.821,4.699,4.117,5.177c1.038,0.216,2.486-0.119,2.968-1.208&#10;&#9;&#9;&#9;c1.152-2.599-0.147-5.001-1.813-7.038C671.431,328.287,667.499,331.061,668.244,333.906z" style="fill: rgb(135, 75, 61);"/>
		<path fill="#874B3D" d="M415.931,537.563c-1.997,3.354-3.7,9.038-0.06,12.004c1.553,1.266,3.45,1.064,4.62-0.595&#10;&#9;&#9;&#9;c1.776-2.517,1.131-5.914,1.686-8.776C422.891,536.513,418.003,534.084,415.931,537.563z" style="fill: rgb(135, 75, 61);"/>
		<path fill="#874B3D" d="M465.354,555.065c0.536-1.669,0.764-3.435,1.086-5.155c0.828-4.42-6.12-4.447-5.287,0&#10;&#9;&#9;&#9;c0.322,1.721,0.55,3.486,1.086,5.155C462.731,556.597,464.861,556.599,465.354,555.065z" style="fill: rgb(135, 75, 61);"/>
		<path fill="#874B3D" d="M433.114,596.495c-1.681-0.017-2.688,1.328-2.854,2.854c-0.367,3.363-1.476,7.614,0.039,10.8&#10;&#9;&#9;&#9;c0.502,1.055,2.318,1.338,3.067,0.395c2.337-2.944,2.168-7.605,2.603-11.195C436.154,597.806,434.522,596.509,433.114,596.495z" style="fill: rgb(135, 75, 61);"/>
		<path fill="#874B3D" d="M544.3,543.605c0.811,2.728,1.714,5.646,3.451,7.936c1.454,1.918,4.363,1.318,4.549-1.232&#10;&#9;&#9;&#9;c0.207-2.858-0.6-5.801-1.409-8.521C549.64,537.581,543.042,539.372,544.3,543.605z" style="fill: rgb(135, 75, 61);"/>
		<path fill="#874B3D" d="M662.215,615.753c-1.647-0.453-3.82,0.557-4.158,2.361c-0.691,3.693-1.163,9.249,2.587,11.47&#10;&#9;&#9;&#9;c1.641,0.972,3.413-0.018,4.027-1.638c0.973-2.566-0.475-5.354-0.096-8.035C664.831,618.106,664.134,616.281,662.215,615.753z" style="fill: rgb(135, 75, 61);"/>
		<path fill="#874B3D" d="M699.595,561.632c0.861-4.717-0.58-9.497-1.467-14.112c-0.573-2.982-4.921-1.663-4.49,1.238&#10;&#9;&#9;&#9;c0.661,4.452,0.863,9.253,3.143,13.242C697.398,563.079,699.351,562.969,699.595,561.632z" style="fill: rgb(135, 75, 61);"/>
		<path fill="#874B3D" d="M721.259,477.295c-2.658,0-2.662,4.131,0,4.131C723.916,481.426,723.921,477.295,721.259,477.295z" style="fill: rgb(135, 75, 61);"/>
		<path fill="#874B3D" d="M649.632,537.764c0.882,2.046,1.592,4.325,2.956,6.092c1.358,1.76,4.363,1.356,4.409-1.194&#10;&#9;&#9;&#9;c0.045-2.504-0.813-4.991-1.393-7.415c-0.457-1.914-2.676-2.848-4.409-2.117C649.244,533.951,648.858,535.968,649.632,537.764z" style="fill: rgb(135, 75, 61);"/>
		<path fill="#874B3D" d="M728.338,614.98c-0.978-3.551-6.739-1.827-5.432,1.498c0.902,2.294,1.599,4.877,3.05,6.877&#10;&#9;&#9;&#9;c1.171,1.615,4.022,1.208,3.989-1.08C729.909,619.784,728.996,617.37,728.338,614.98z" style="fill: rgb(135, 75, 61);"/>
		<path fill="#874B3D" d="M767.257,516.884c-0.521-3.199-5.592-1.89-4.925,1.358c0.804,3.915,1.108,8.746,3.017,12.283&#10;&#9;&#9;&#9;c0.998,1.849,3.348,0.747,3.569-0.967c0.263-2.039-0.292-4.159-0.609-6.177C767.968,521.213,767.61,519.049,767.257,516.884z" style="fill: rgb(135, 75, 61);"/>
		<path fill="#874B3D" d="M795.072,391.403c2.574,3.789,3.828,8.332,6.878,11.755c0.865,0.97,2.855,0.542,3.076-0.812&#10;&#9;&#9;&#9;c0.842-5.157-2.059-9.795-4.959-13.862C797.935,385.494,792.961,388.293,795.072,391.403z" style="fill: rgb(135, 75, 61);"/>
		<path fill="#874B3D" d="M834.876,338.669c0.129-2.17-0.914-4.264-1.614-6.285c-1.457-4.211-7.588-1.762-5.697,2.402&#10;&#9;&#9;&#9;c0.883,1.943,1.558,4.129,3.143,5.609C832.305,341.886,834.75,340.783,834.876,338.669z" style="fill: rgb(135, 75, 61);"/>
		<path fill="#874B3D" d="M743.87,186.191c-0.96-1.102-2.842-0.982-3.824,0c-1.112,1.112-0.937,2.698,0,3.824&#10;&#9;&#9;&#9;c2.152,2.587,4.505,4.917,6.891,7.287c1.695,1.684,4.903-0.571,3.421-2.64C748.275,191.756,746.221,188.89,743.87,186.191z" style="fill: rgb(135, 75, 61);"/>
		<path fill="#874B3D" d="M732.168,284.531c1.981,0,1.984-3.079,0-3.079C730.186,281.452,730.183,284.531,732.168,284.531z" style="fill: rgb(135, 75, 61);"/>
		<path fill="#874B3D" d="M830.465,228.199c-1.992-2.821-6.683-0.122-4.67,2.729c2.978,4.217,5.772,9.132,10.134,12.053&#10;&#9;&#9;&#9;c1.131,0.757,2.512-0.491,2.207-1.697C836.896,236.385,833.333,232.261,830.465,228.199z" style="fill: rgb(135, 75, 61);"/>
		<path fill="#874B3D" d="M341.914,562.521c-0.257,1.136-0.636,2.042-1.216,3.04c-0.926,1.593-1.473,2.842-1.168,4.637&#10;&#9;&#9;&#9;c-0.001,0.243-0.065,0.5-0.035,0.75c0.144,1.189,0.835,1.956,2.065,2.065c0.606,0.054,1.115-0.046,1.622-0.202&#10;&#9;&#9;&#9;c1.174-0.173,2.121-0.482,2.956-1.483c0.666-0.798,1.17-1.872,1.475-2.853c0.504-1.622,0.667-3.417,0.572-5.107&#10;&#9;&#9;&#9;C347.991,559.94,342.747,558.838,341.914,562.521z" style="fill: rgb(135, 75, 61);"/>
		<path fill="#874B3D" d="M348.575,597.183c-0.116,3.017-0.443,5.924,1.103,8.66c0.744,1.317,2.758,1.317,3.502,0&#10;&#9;&#9;&#9;c1.54-2.726,1.219-5.652,1.103-8.66C354.142,593.511,348.717,593.505,348.575,597.183z" style="fill: rgb(135, 75, 61);"/>
		<path fill="#874B3D" d="M362.332,650.64c-1.811,2.229-4.924,4.988-4.196,8.161c0.201,0.88,1.113,1.515,1.992,1.516&#10;&#9;&#9;&#9;c3.01,0.006,4.872-3.287,6.507-5.376c1.012-1.292,1.26-3.042,0-4.302C365.565,649.57,363.373,649.358,362.332,650.64z" style="fill: rgb(135, 75, 61);"/>
		<path fill="#874B3D" d="M355.922,549.712c-0.538,2.005-1.169,3.989-1.423,6.052c-0.187,1.516,1.889,1.678,2.59,0.701&#10;&#9;&#9;&#9;c1.124-1.567,1.923-3.368,2.815-5.075C361.385,548.552,356.736,546.681,355.922,549.712z" style="fill: rgb(135, 75, 61);"/>
		<path fill="#874B3D" d="M230.335,701.759c1.198-0.149,1.877-0.818,2.028-2.028c0.264-2.124-1.809-4.046-3.123-5.45&#10;&#9;&#9;&#9;c-2.713-2.899-7.255,1.64-4.355,4.355C226.288,699.949,228.213,702.023,230.335,701.759z" style="fill: rgb(135, 75, 61);"/>
		<path fill="#874B3D" d="M224.437,736.078c0.521-0.365,0.838-0.968,0.656-1.612c-0.847-3.002-4.632-3.701-7.201-4.384&#10;&#9;&#9;&#9;c-2.694-0.716-4.689,3.453-1.968,4.667C218.325,735.821,221.875,737.872,224.437,736.078z" style="fill: rgb(135, 75, 61);"/>
		<path fill="#874B3D" d="M234.698,799.191c3.453,0.283,8.915,1.629,11.933-0.615c1.292-0.961,1.292-2.541,0-3.502&#10;&#9;&#9;&#9;c-3.018-2.244-8.48-0.898-11.933-0.615C231.658,794.708,231.653,798.941,234.698,799.191z" style="fill: rgb(135, 75, 61);"/>
		<path fill="#874B3D" d="M248.881,761.046c1.953-0.164,4.039-0.135,5.914-0.738c1.639-0.526,1.641-2.804,0-3.332&#10;&#9;&#9;&#9;c-1.877-0.603-3.96-0.574-5.914-0.738C245.789,755.979,245.784,761.306,248.881,761.046z" style="fill: rgb(135, 75, 61);"/>
		<path fill="#874B3D" d="M253.244,708.756c3.19,0,3.195-4.957,0-4.957C250.055,703.798,250.05,708.756,253.244,708.756z" style="fill: rgb(135, 75, 61);"/>
		<path fill="#874B3D" d="M274.457,775.546c-1.84-0.343-3.626,0.265-5.422,0.657c-2.772,0.604-1.587,5.055,1.178,4.273&#10;&#9;&#9;&#9;c1.769-0.5,3.561-0.815,5.023-1.98C276.246,777.692,275.691,775.776,274.457,775.546z" style="fill: rgb(135, 75, 61);"/>
		<path fill="#874B3D" d="M257.647,813.124c-1.426-0.56-2.876-0.647-4.392-0.622c-4.077,0.068-4.036,6.565,0,6.309&#10;&#9;&#9;&#9;c1.792-0.113,3.359-0.375,4.982-1.17C260.346,816.608,259.435,813.827,257.647,813.124z" style="fill: rgb(135, 75, 61);"/>
		<path fill="#874B3D" d="M623.957,665.48c0.563,1.901,0.959,3.957,1.989,5.668c0.692,1.15,2.933,1.136,3.157-0.413&#10;&#9;&#9;&#9;c0.288-1.985-0.065-3.93-0.278-5.914C628.431,661.163,622.951,662.088,623.957,665.48z" style="fill: rgb(135, 75, 61);"/>
		<path fill="#874B3D" d="M828.522,447.739c0.214-1.612-0.261-3.342-0.493-4.943c-0.397-2.74-5.175-1.538-4.201,1.158&#10;&#9;&#9;&#9;c0.547,1.514,0.947,3.225,1.894,4.543C826.639,449.771,828.325,449.226,828.522,447.739z" style="fill: rgb(135, 75, 61);"/>
		<path fill="#874B3D" d="M887.228,390.995c0.1-2.182,0.2-4.364,0.3-6.546c0.156-3.383-5.413-3.389-5.258,0&#10;&#9;&#9;&#9;c0.1,2.182,0.2,4.364,0.3,6.546C882.709,393.989,887.09,393.995,887.228,390.995z" style="fill: rgb(135, 75, 61);"/>
		<path fill="#874B3D" d="M909.112,531.04c-0.718-2.909-5.508-2.366-5.311,0.719c0.217,3.415-0.297,8.497,2.885,10.668&#10;&#9;&#9;&#9;c0.747,0.51,2.191,0.394,2.776-0.358C911.87,538.971,909.956,534.461,909.112,531.04z" style="fill: rgb(135, 75, 61);"/>
		<path fill="#874B3D" d="M939.447,535.228c-2.513,0-2.517,3.906,0,3.906C941.96,539.134,941.964,535.228,939.447,535.228z" style="fill: rgb(135, 75, 61);"/>
		<path fill="#874B3D" d="M535.392,430.98c-1.699,0.994-1.865,3.244-0.6,4.659c0.832,0.931,1.436,1.638,2.64,2.076&#10;&#9;&#9;&#9;c1.07,0.39,2.235-0.444,2.54-1.443c0.369-1.204,0.02-2.318-0.221-3.52C539.368,430.851,536.955,430.065,535.392,430.98z" style="fill: rgb(135, 75, 61);"/>
		<path fill="#874B3D" d="M851.424,627.728c-0.177,2.233-0.743,4.292-1.198,6.469c-0.397,1.901-1,4.372-0.345,6.229&#10;&#9;&#9;&#9;c0.528,1.496,2.177,2.328,3.641,1.481c4.395-2.542,4.216-9.816,3.835-14.179C857.026,623.927,851.727,623.899,851.424,627.728z" style="fill: rgb(135, 75, 61);"/>
		<path fill="#874B3D" d="M909.657,631.002c0.212,1.942,0.213,4.06,0.886,5.904c0.584,1.599,2.674,1.601,3.259,0&#10;&#9;&#9;&#9;c0.674-1.845,0.674-3.961,0.886-5.904C915.042,627.768,909.304,627.761,909.657,631.002z" style="fill: rgb(135, 75, 61);"/>
		<path fill="#874B3D" d="M882.574,452.087c-0.025,1.72,0.057,3.33,0.286,5.035c0.233,1.74,0.661,3.127,1.348,4.735&#10;&#9;&#9;&#9;c0.578,1.354,2.989,1.354,3.567,0c0.687-1.608,1.115-2.995,1.348-4.735c0.228-1.705,0.311-3.315,0.286-5.035&#10;&#9;&#9;&#9;C889.345,447.69,882.636,447.683,882.574,452.087z" style="fill: rgb(135, 75, 61);"/>
		<path fill="#874B3D" d="M813.305,572.595c-1.087,2.559-2.213,5.166-2.116,7.994c0.074,2.157,0.015,5.17,1.754,6.695&#10;&#9;&#9;&#9;c0.593,0.52,1.425,0.557,2.018,0c1.462-1.376,1.583-3.628,2.261-5.448c0.818-2.198,1.334-4.474,2.192-6.666&#10;&#9;&#9;&#9;C820.782,571.677,814.785,569.11,813.305,572.595z" style="fill: rgb(135, 75, 61);"/>
		<path fill="#874B3D" d="M872.025,763.223c-1.72,1.674-3.439,3.349-5.158,5.024c-1.572,1.531-2.845,3.438-3.031,5.669&#10;&#9;&#9;&#9;c-0.061,0.725,0.704,1.487,1.427,1.427c2.23-0.186,4.139-1.46,5.669-3.031c1.675-1.719,3.349-3.439,5.024-5.158&#10;&#9;&#9;&#9;C878.454,764.587,874.592,760.723,872.025,763.223z" style="fill: rgb(135, 75, 61);"/>
		<path fill="#874B3D" d="M946.188,720.702c-1.21,3.5-2.407,6.933-2.223,10.667c0.078,1.595,2.264,2.88,3.462,1.434&#10;&#9;&#9;&#9;c1.292-1.561,2.122-2.959,2.904-4.833c0.766-1.835,1.405-3.678,2.013-5.571C953.608,718.462,947.519,716.847,946.188,720.702z" style="fill: rgb(135, 75, 61);"/>
		<path fill="#874B3D" d="M977.562,605.02c-1.237,6.002-3.586,12.814-2.103,18.928c0.471,1.941,3.052,2.059,4.05,0.529&#10;&#9;&#9;&#9;c3.292-5.045,3.332-11.966,4.136-17.78C984.185,602.798,978.401,600.952,977.562,605.02z" style="fill: rgb(135, 75, 61);"/>
		<path fill="#874B3D" d="M788.176,720.037c-1.497-1.497-3.636-1.264-5.152,0c-2.731,2.276-5.626,4.617-7.45,7.711&#10;&#9;&#9;&#9;c-1.122,1.903,0.786,4.935,3.096,4.027c3.63-1.426,6.588-4.051,9.506-6.587C789.662,723.897,789.499,721.36,788.176,720.037z" style="fill: rgb(135, 75, 61);"/>
		<path fill="#874B3D" d="M740.275,800.521c-3.327-0.588-6.37,1.637-9.269,3.041c-2.307,1.117-0.675,5.108,1.765,4.187&#10;&#9;&#9;&#9;c2.964-1.119,6.751-1.799,8.581-4.58C741.951,802.26,741.396,800.719,740.275,800.521z" style="fill: rgb(135, 75, 61);"/>
		<path fill="#874B3D" d="M685.257,722.271c-4.685,0.224-4.693,7.061,0,7.286c3.525,0.169,8.839,1.018,11.16-2.221&#10;&#9;&#9;&#9;c0.533-0.744,0.533-2.099,0-2.843C694.091,721.246,688.791,722.102,685.257,722.271z" style="fill: rgb(135, 75, 61);"/>
		<path fill="#874B3D" d="M637.961,776.466c2.313-0.551,10.413-1.361,9.446-5.229c-0.951-3.805-8.679-0.642-10.904-0.058&#10;&#9;&#9;&#9;C633.086,772.076,634.529,777.284,637.961,776.466z" style="fill: rgb(135, 75, 61);"/>
		<path fill="#874B3D" d="M623.728,734.941c-2.983,0.628-5.151,3.042-7.893,4.271c-1.721,0.772-2.132,3.275-1.253,4.778&#10;&#9;&#9;&#9;c1.048,1.792,3.038,2.001,4.778,1.253c3.337-1.435,7.301-4.252,6.934-8.347C626.173,735.536,625.101,734.651,623.728,734.941z" style="fill: rgb(135, 75, 61);"/>
		<path fill="#874B3D" d="M599.541,819.177c-1.663-0.468-3.37-0.052-5.031,0.293c-1.794,0.373-3.405,0.711-5.256,0.699&#10;&#9;&#9;&#9;c-3.687-0.025-3.659,5.553,0,5.708c3.98,0.169,9.794-0.317,11.494-4.575C601.096,820.431,600.361,819.408,599.541,819.177z" style="fill: rgb(135, 75, 61);"/>
		<path fill="#874B3D" d="M664.913,872.997c-4.662-1.486-9.773,0.484-14.131,2.175c-2.364,0.918-2.355,5.209,0.659,4.869&#10;&#9;&#9;&#9;c4.864-0.55,10.478-1.069,14.085-4.721C666.282,874.554,665.902,873.312,664.913,872.997z" style="fill: rgb(135, 75, 61);"/>
		<path fill="#874B3D" d="M668.893,824.48c-3.721,0-3.728,5.783,0,5.783C672.615,830.263,672.621,824.48,668.893,824.48z" style="fill: rgb(135, 75, 61);"/>
		<path fill="#874B3D" d="M801.497,842.891c-3.91-0.599-8.352,2.309-11.828,3.883c-2.834,1.283-0.78,6.278,2.141,5.079&#10;&#9;&#9;&#9;c2-0.82,4.046-1.573,6.012-2.47c1.807-0.824,3.791-1.744,4.931-3.403C803.462,844.949,802.795,843.09,801.497,842.891z" style="fill: rgb(135, 75, 61);"/>
		<path fill="#874B3D" d="M395.702,376.812c-0.448-3.613-5.184-3.621-5.633,0c-0.135,1.091-0.27,2.182-0.406,3.273&#10;&#9;&#9;&#9;c-0.169,1.36-0.113,2.157,0.404,3.455c1.099,2.758,4.535,2.762,5.636,0c0.502-1.259,0.57-2.121,0.405-3.455&#10;&#9;&#9;&#9;C395.972,378.994,395.837,377.903,395.702,376.812z" style="fill: rgb(135, 75, 61);"/>
		<path fill="#874B3D" d="M407.097,216.078c0.646,0.38,1.477,0.38,2.123,0c1.789-1.053,1.821-3.227,1.868-5.089&#10;&#9;&#9;&#9;c0.094-3.77-5.953-3.776-5.858,0C405.275,212.848,405.31,215.026,407.097,216.078z" style="fill: rgb(135, 75, 61);"/>
		<path fill="#874B3D" d="M477.306,218.626c-0.053,2.119-0.381,4.25,0.516,6.215c0.809,1.772,3.868,1.772,4.677,0&#10;&#9;&#9;&#9;c0.901-1.972,0.57-4.09,0.516-6.215C482.922,214.954,477.399,214.948,477.306,218.626z" style="fill: rgb(135, 75, 61);"/>
		<path fill="#874B3D" d="M491.518,156.342c0.631,1.463,0.929,3.022,0.899,4.614c-0.027,1.404-0.485,2.846-0.32,4.232&#10;&#9;&#9;&#9;c0.121,1.017,1.231,1.607,2.051,0.85c2.78-2.568,1.931-7.984,0.665-11.085C493.836,152.561,490.474,153.925,491.518,156.342z" style="fill: rgb(135, 75, 61);"/>
		<path fill="#874B3D" d="M452.711,134.873c-1.596-0.439-3.491,0.537-3.88,2.203c-0.804,3.442-0.255,7.218,2.958,9.16&#10;&#9;&#9;&#9;c1.357,0.82,3-0.248,3.051-1.751c0.064-1.879-0.295-3.86,0.074-5.732C455.244,137.084,454.439,135.348,452.711,134.873z" style="fill: rgb(135, 75, 61);"/>
		<path fill="#874B3D" d="M577.349,106.28c0.059,3.105,0.23,7.495,3.23,9.339c0.7,0.43,1.855,0.343,2.412-0.311&#10;&#9;&#9;&#9;c2.31-2.713,1.247-6.788,0.333-9.837C582.357,102.25,577.282,102.766,577.349,106.28z" style="fill: rgb(135, 75, 61);"/>
		<path fill="#874B3D" d="M591.754,178.133c0.664,0.449,1.307,0.913,2.019,1.281c2.719,1.405,5.584-1.419,4.153-4.153&#10;&#9;&#9;&#9;c-0.372-0.71-0.839-1.349-1.291-2.009c-1.285-1.877-3.903-2.422-5.603-0.722C589.348,174.214,589.866,176.856,591.754,178.133z" style="fill: rgb(135, 75, 61);"/>
		<path fill="#874B3D" d="M644.47,132.819c0.63,1.386,1.157,3.103,2.328,4.111c1.011,0.871,2.28,0.452,2.762-0.729&#10;&#9;&#9;&#9;c0.579-1.419,0.293-3.301,0.198-4.814c-0.11-1.743-0.695-3.448-1.131-5.133c-0.924-3.571-6.29-2.058-5.504,1.517&#10;&#9;&#9;&#9;C643.495,129.473,643.747,131.228,644.47,132.819z" style="fill: rgb(135, 75, 61);"/>
		<path fill="#874B3D" d="M685.257,103.848c2.513,0,2.518-3.906,0-3.906C682.744,99.942,682.74,103.848,685.257,103.848z" style="fill: rgb(135, 75, 61);"/>
		<path fill="#874B3D" d="M661.305,202.11c0.961,0.719,2.806,0.233,3.289-0.862c1.545-3.51,0.868-7.525,0.057-11.131&#10;&#9;&#9;&#9;c-1.289-5.734-10.548-3.246-8.836,2.436C656.87,196.053,658.271,199.841,661.305,202.11z" style="fill: rgb(135, 75, 61);"/>
		<path fill="#874B3D" d="M517.252,93.813c-4.784,0-4.792,7.436,0,7.436C522.037,101.249,522.045,93.813,517.252,93.813z" style="fill: rgb(135, 75, 61);"/>
		<path fill="#874B3D" d="M766.67,69.167c0.013,0.182,0.025,0.364,0.038,0.546c0.322,4.682,6.962,4.691,7.286,0&#10;&#9;&#9;&#9;c0.013-0.182,0.025-0.364,0.038-0.546C774.357,64.432,766.344,64.424,766.67,69.167z" style="fill: rgb(135, 75, 61);"/>
		<path fill="#874B3D" d="M831.983,114.76c1.201-0.434,1.945-0.931,2.809-1.88c1.376-1.512,1.18-3.945-0.646-5.014&#10;&#9;&#9;&#9;c-1.674-0.979-4.296-0.142-4.689,1.908c-0.248,1.294-0.363,2.291,0.031,3.57C829.792,114.329,830.924,115.142,831.983,114.76z" style="fill: rgb(135, 75, 61);"/>
		<path fill="#874B3D" d="M801.505,159.715c0.101,2.475,0.295,4.553,1.551,6.744c0.95,1.657,3.46,1.657,4.41,0&#10;&#9;&#9;&#9;c1.256-2.191,1.45-4.269,1.55-6.744C809.212,154.882,801.31,154.874,801.505,159.715z" style="fill: rgb(135, 75, 61);"/>
		<path fill="#874B3D" d="M374.829,92.678c-1.322-1.619-4.098-1.372-5.47,0c-1.356,1.356-1.634,4.152,0,5.47&#10;&#9;&#9;&#9;c0.644,0.52,1.288,1.039,1.932,1.559c0.942,0.76,2.263,1.428,3.514,0.929c1.352-0.54,1.986-1.161,2.522-2.523&#10;&#9;&#9;&#9;c0.493-1.251-0.162-2.574-0.929-3.514C375.875,93.96,375.352,93.319,374.829,92.678z" style="fill: rgb(135, 75, 61);"/>
		<path fill="#874B3D" d="M318.701,129.476c-5.22,0-5.228,8.112,0,8.112C323.921,137.588,323.929,129.476,318.701,129.476z" style="fill: rgb(135, 75, 61);"/>
		<path fill="#874B3D" d="M702.643,939.448c-1.792,2.641-1.964,6.146-2.727,9.179c-0.74,2.944-1.607,6.006-0.865,9.036&#10;&#9;&#9;&#9;c0.368,1.502,2.138,2.089,3.42,1.391c5.64-3.07,8.061-14.21,4.906-19.607C706.285,937.581,703.777,937.777,702.643,939.448z" style="fill: rgb(135, 75, 61);"/>
		<path fill="#874B3D" d="M633.254,936.759c-1.066,3.9-2.454,7.799-3.26,11.757c-1.057,5.189,7.061,7.29,7.874,2.171&#10;&#9;&#9;&#9;c0.688-4.329,0.811-8.773,1.213-13.139C639.393,934.16,634.116,933.604,633.254,936.759z" style="fill: rgb(135, 75, 61);"/>
		<path fill="#874B3D" d="M831.422,924.649c-1.665,4.271-3.597,8.541-4.868,12.947c-1.614,5.591,7.068,7.968,8.701,2.399&#10;&#9;&#9;&#9;c1.288-4.391,1.946-9.021,2.83-13.509C838.956,922.068,833.028,920.532,831.422,924.649z" style="fill: rgb(135, 75, 61);"/>
		<path fill="#874B3D" d="M917.559,883.01c-0.158,2.966-0.596,6.391,0.91,9.058c1.033,1.829,3.831,1.829,4.864,0&#10;&#9;&#9;&#9;c1.51-2.674,1.068-6.089,0.91-9.058C924.015,878.711,917.787,878.704,917.559,883.01z" style="fill: rgb(135, 75, 61);"/>
		<path fill="#874B3D" d="M1013.547,792.153c-1.957-0.538-4.021,0.659-4.573,2.597c-0.488,1.712-1.121,3.454-1.453,5.206&#10;&#9;&#9;&#9;c-0.35,1.846-0.47,3.764-0.696,5.628c-0.513,4.236,6.082,4.805,7.229,0.978c0.987-3.295,1.629-6.427,2.089-9.835&#10;&#9;&#9;&#9;C1016.412,794.739,1015.666,792.735,1013.547,792.153z" style="fill: rgb(135, 75, 61);"/>
		<path fill="#874B3D" d="M969.407,929.295c-0.858,1.935-1.791,3.852-2.588,5.811c-0.865,2.127-1.021,4.518-0.998,6.796&#10;&#9;&#9;&#9;c0.04,3.888,5.728,5.798,7.628,2.066c1.038-2.04,1.982-4.143,2.225-6.441c0.225-2.131,0.219-4.307,0.311-6.45&#10;&#9;&#9;&#9;C976.128,927.739,970.848,926.044,969.407,929.295z" style="fill: rgb(135, 75, 61);"/>
		<path fill="#874B3D" d="M960.226,1028.406c-1.062,2.335-2.238,4.643-3.003,7.096c-0.778,2.494-1.846,4.798-0.601,7.293&#10;&#9;&#9;&#9;c0.541,1.083,2.263,1.871,3.435,1.398c2.646-1.068,3.29-3.198,4.407-5.638c1.079-2.357,1.787-4.813,2.557-7.284&#10;&#9;&#9;&#9;C968.248,1027.331,961.993,1024.519,960.226,1028.406z" style="fill: rgb(135, 75, 61);"/>
		<path fill="#874B3D" d="M892.886,1007.672c-0.62,2.366-1.483,4.604-2.28,6.91c-0.757,2.186-1.842,4.471-1.334,6.782&#10;&#9;&#9;&#9;c0.383,1.74,2.477,2.371,3.917,1.594c2.228-1.203,3.273-4.242,4.025-6.553c0.826-2.537,1.126-5.312,1.426-7.953&#10;&#9;&#9;&#9;C899.017,1005.126,893.705,1004.544,892.886,1007.672z" style="fill: rgb(135, 75, 61);"/>
		<path fill="#874B3D" d="M763.954,1021.425c-1.676,3.053-4.594,6.852-3.223,10.48c0.491,1.3,1.715,1.804,2.979,1.212&#10;&#9;&#9;&#9;c3.493-1.637,4.058-6.351,4.979-9.696C769.461,1020.626,765.387,1018.814,763.954,1021.425z" style="fill: rgb(135, 75, 61);"/>
		<path fill="#874B3D" d="M796.565,1081.592c-1.106,0.962-2.315,1.809-3.328,2.866c-1.122,1.171-1.998,2.472-2.896,3.815&#10;&#9;&#9;&#9;c-0.598,0.894-0.702,2.121-0.406,3.181c-0.019,0.553,0.034,1.103,0.231,1.666c0.329,0.94,1.09,1.566,2.101,1.599&#10;&#9;&#9;&#9;c0.66,0.022,1.244-0.116,1.812-0.321c1.021-0.038,2.071-0.375,2.698-1.158c1.005-1.255,2.036-2.467,2.811-3.881&#10;&#9;&#9;&#9;c0.721-1.316,1.159-2.711,1.755-4.079C802.699,1082.164,799.296,1079.218,796.565,1081.592z" style="fill: rgb(135, 75, 61);"/>
		<path fill="#874B3D" d="M689.044,1068.895c-2.319,1.207-4.943,2.749-6.648,4.75c-1.616,1.897-3.554,4.917-2.65,7.481&#10;&#9;&#9;&#9;c0.314,0.89,1.22,1.864,2.281,1.737c2.515-0.3,4.239-2.211,5.974-3.912c1.69-1.656,3.086-3.481,4.956-4.984&#10;&#9;&#9;&#9;C695.933,1071.577,692.144,1067.282,689.044,1068.895z" style="fill: rgb(135, 75, 61);"/>
		<path fill="#874B3D" d="M650.508,993.101c-2.385,0.689-4.553,1.916-6.336,3.651c-1.796,1.747-3.074,5.349-1.661,7.67&#10;&#9;&#9;&#9;c0.616,1.012,1.963,1.66,3.138,1.277c1.789-0.582,3.285-2.368,4.408-3.807c0.79-1.013,1.833-1.857,3.112-2.475&#10;&#9;&#9;&#9;C656.726,997.697,654.22,992.028,650.508,993.101z" style="fill: rgb(135, 75, 61);"/>
		<path fill="#874B3D" d="M573.988,1083.246c-3.245,1.114-6.413,2.547-8.825,5.057c-1.283,1.336-1.925,2.773-2.643,4.447&#10;&#9;&#9;&#9;c-0.708,1.652-1.541,3.149-0.934,4.976c0.527,1.587,1.945,2.306,3.557,2.02c1.521-0.27,2.303-1.411,3.433-2.323&#10;&#9;&#9;&#9;c0.962-0.776,2.048-1.403,2.975-2.254c1.805-1.659,3.353-3.63,5.302-5.127c1.47-1.128,2.33-2.804,1.521-4.643&#10;&#9;&#9;&#9;C577.671,1083.799,575.77,1082.635,573.988,1083.246z" style="fill: rgb(135, 75, 61);"/>
		<path fill="#874B3D" d="M568.993,1015.728c1.494-0.447,3.106-0.544,4.414-1.423c1.253-0.842,2.388-1.947,3.555-2.905&#10;&#9;&#9;&#9;c2.532-2.081-0.706-5.938-3.414-4.424c-1.983,1.109-4.427,2.027-5.409,4.154c-0.349,0.444-0.697,0.889-1.046,1.333&#10;&#9;&#9;&#9;C565.984,1013.877,566.941,1016.341,568.993,1015.728z" style="fill: rgb(135, 75, 61);"/>
		<path fill="#874B3D" d="M471.142,1086.055c-3.803-1.487-8.884,1.595-9.49,5.551c-0.34,2.214,1.507,5.327,4.204,4.204&#10;&#9;&#9;&#9;c1.36-0.566,2.613-1.189,3.776-2.1c0.949-0.743,2.096-1.546,2.886-2.445C474.164,1089.39,473.373,1086.927,471.142,1086.055z" style="fill: rgb(135, 75, 61);"/>
		<path fill="#874B3D" d="M474.878,1025.864c-3.295,0.67-3.298,5.993,0,6.663c2.299,0.468,6.556-0.161,6.557-3.332&#10;&#9;&#9;&#9;C481.436,1026.019,477.162,1025.4,474.878,1025.864z" style="fill: rgb(135, 75, 61);"/>
		<path fill="#874B3D" d="M228.658,1047.297c-2.263,0.267-4.05,1.311-6.079,2.288c-1.643,0.791-3.308,1.311-5.103,1.644&#10;&#9;&#9;&#9;c-1.575,0.292-2.511,2.079-2.313,3.544c0.232,1.721,1.549,2.589,3.172,2.8c4.827,0.629,10.782,0.093,13.901-4.041&#10;&#9;&#9;&#9;C234.038,1051.144,231.631,1046.946,228.658,1047.297z" style="fill: rgb(135, 75, 61);"/>
		<path fill="#874B3D" d="M237.974,999.149c-1.486-0.046-3.307,0.184-4.623,0.903c-1.232,0.673-2.377,1.608-3.538,2.395&#10;&#9;&#9;&#9;c-1.358,0.919-2.04,2.562-1.352,4.127c0.609,1.386,2.337,2.507,3.899,1.914c1.445-0.55,2.981-1.008,4.373-1.682&#10;&#9;&#9;&#9;c1.528-0.739,2.714-2.067,3.642-3.475C241.579,1001.5,239.972,999.211,237.974,999.149z" style="fill: rgb(135, 75, 61);"/>
		<path fill="#874B3D" d="M252.58,950.809c-1.821-0.484-3.801-0.583-5.588,0.007c-1.867,0.616-3.687,1.48-5.512,2.212&#10;&#9;&#9;&#9;c-3.577,1.436-2.27,7.075,1.638,5.939c2.002-0.582,4.043-1.095,6.022-1.751c1.871-0.62,3.388-2.105,4.563-3.648&#10;&#9;&#9;&#9;C254.45,952.587,253.639,951.091,252.58,950.809z" style="fill: rgb(135, 75, 61);"/>
		<path fill="#874B3D" d="M300.07,1022.406c-2.937,1.301-5.561,3.149-7.925,5.314c-2.901,2.658,0.983,7.91,4.278,5.544&#10;&#9;&#9;&#9;c2.628-1.887,5.247-2.888,8.285-3.868c2.657-0.856,6.244-2.993,4.437-6.295C307.335,1019.794,302.726,1021.229,300.07,1022.406z" style="fill: rgb(135, 75, 61);"/>
		<path fill="#874B3D" d="M336.796,1086.059c-3.977-0.558-7.551,1.376-11.145,2.818c-3.106,1.247-1.996,6.014,1.418,5.142&#10;&#9;&#9;&#9;c3.648-0.931,7.918-1.446,10.722-4.194C338.886,1088.751,338.527,1086.303,336.796,1086.059z" style="fill: rgb(135, 75, 61);"/>
		<path fill="#874B3D" d="M411.463,1065.616c-1.649-1.15-3.272-0.743-4.954,0.032c-2.137,0.986-2.137,4.657,0,5.642&#10;&#9;&#9;&#9;c1.682,0.776,3.305,1.182,4.954,0.032C413.581,1069.846,413.581,1067.093,411.463,1065.616z" style="fill: rgb(135, 75, 61);"/>
		<path fill="#874B3D" d="M121.605,1083.025c-3.246-0.562-5.756,1.352-8.872,1.965c-3.244,0.638-2.979,5.502,0,6.301&#10;&#9;&#9;&#9;c3.977,1.066,9.923,0.558,11.141-4.27C124.272,1085.445,123.368,1083.331,121.605,1083.025z" style="fill: rgb(135, 75, 61);"/>
		<path fill="#874B3D" d="M155.144,1031.549c-3.469-1.465-7.192,1.298-10.252,2.819c-2.861,1.422-0.857,6.327,2.199,5.217&#10;&#9;&#9;&#9;c3.134-1.139,7.83-1.935,9.123-5.406C156.532,1033.324,156.022,1031.92,155.144,1031.549z" style="fill: rgb(135, 75, 61);"/>
		<path fill="#874B3D" d="M146.04,942.999c-1.569,0.255-3.053,1.016-4.524,1.602c-2.469,0.985-0.803,4.633,1.389,3.295&#10;&#9;&#9;&#9;c1.466-0.895,3.061-1.689,4.304-2.888C148.146,944.104,147.145,942.819,146.04,942.999z" style="fill: rgb(135, 75, 61);"/>
	</g>
</g>
</svg>