<svg version="1.1" id="Capa_1" xmlns="http://www.w3.org/2000/svg" xmlns:xlink="http://www.w3.org/1999/xlink" x="0px" y="0px" viewBox="0 0 1200 1200" enable-background="new 0 0 1200 1200" xml:space="preserve">
<g>
	<path fill="#280412" d="M467.111,592.819c-0.067,0.111-0.133,0.467-0.178,0.955C467.066,593.197,467.111,592.908,467.111,592.819z&#10;&#9;&#9; M1149.722,840.821c1.156,16.532-1.378,33.686-5.888,49.574c-2.777,9.799-6.577,23.331-13.421,32.708&#10;&#9;&#9;c3.355,12.71,3.266,26.131,1.355,39.041c-1.578,10.821-5.177,28.62-17.643,31.82c-2.044,0.511-29.175,2.489-41.463,2.644&#10;&#9;&#9;c-14.599,0.178-29.198,0.356-43.774,0.4c-48.507,0.178-96.992,0.044-145.477,0c-43.441-0.022-86.86-0.044-130.3-0.089&#10;&#9;&#9;c-22.154-0.022-44.307-0.067-66.461-0.089c-75.638,0-151.276-0.356-226.915-0.667c-26.42-0.111-52.818-0.222-79.238-0.333&#10;&#9;&#9;c-21.998-0.089-43.974,1-65.884-1.111c-11.688-1.111-20.398,8.733-30.997,12.621c-10.577,3.911-21.909,5.555-33.131,5.844&#10;&#9;&#9;c-11.999,0.311-24.02-0.933-35.775-3.155c-5.733-1.089-11.421-2.4-17.043-3.955c-2.178-0.578-12.31-5.222-13.999-4.333&#10;&#9;&#9;c-18.51,9.755-45.307,9.488-64.795,8.955c-12.932-0.356-26.487-1.489-39.063-4.644c-5.866-1.467-11.488-4.622-17.287-5.866&#10;&#9;&#9;c-1.422-0.289-2.933-0.289-4.333-0.733c-4.377-1.355-6.377-6.488-6.644-11.066c-2.733-48.863-1.067-97.925-0.778-146.877&#10;&#9;&#9;c1.155-194.806,2.8-389.59,3.689-584.397c0.022-4.755,3.466-9.844,8.288-10.888c37.908-8.244,77.66-7.422,116.191-3.8&#10;&#9;&#9;c-0.133-11.91-0.378-23.82-0.778-35.708c-0.222-6.711,5.866-12.355,12.377-12.377c21.354,0,42.663-0.8,63.995-1.489&#10;&#9;&#9;c17.51-0.578,39.041-4.822,55.04,3.178c3.822,1.911,6.133,6.555,6.133,10.688c0,12.377,0,24.754,0.022,37.153&#10;&#9;&#9;c6.422-16.043,15.843-30.664,28.42-43.174c4.289-4.244,13.332-4.089,16.11,2.066c15.043,33.419,51.685,50.907,71.283,81.416&#10;&#9;&#9;c24.887-2.978,51.174-3.222,76.749,0.111c10.555-18.221,27.731-34.619,42.13-48.707c18.598-18.199,38.886-35.175,61.906-47.485&#10;&#9;&#9;c5.8-3.111,14.643-0.689,16.088,6.533c5.844,29.575,11.91,59.351,12.866,89.57c0.244,8.022,0.178,16.354-0.778,24.554&#10;&#9;&#9;c26.376-19.865,56.418-35.353,86.926-46.752c37.575-14.021,76.505-19.932,116.324-14.221c39.13,5.6,77.816,20.198,110.902,41.797&#10;&#9;&#9;c32.442,21.198,58.462,49.085,73.794,84.882c9.71,22.687,16.376,46.374,19.065,70.928c1.422,13.154,1.6,26.42,0.4,39.597&#10;&#9;&#9;c-0.356,3.911-0.578,7.599-1.311,11.044c28.509,24.354,42.419,60.217,27.131,97.237c-1,2.422-2.089,4.755-3.244,7.022&#10;&#9;&#9;c6.288,0.378,12.577,1.333,18.398,2.178c10.333,1.511,20.354,3.155,25.42,13.132c5.044,9.888-0.222,18.332-8.799,24.087&#10;&#9;&#9;c-0.533,0.356-1.111,0.667-1.667,1c0.933,1.533,1.444,3.333,1.444,5.022c0.178,21.709-2.244,42.774-4.377,64.328&#10;&#9;&#9;c-0.911,9.177-2.089,18.732-1.6,27.953c0.067,1.511,0.133,2.933,0.156,4.289c13.621,4,25.242,13.532,21.265,29.775&#10;&#9;&#9;c-1,4.155-2.578,7.644-4.578,10.599C1136.612,794.358,1147.944,815.579,1149.722,840.821z M1114.658,910.104&#10;&#9;&#9;c7.777-16.954,14.621-41.108,13.577-63.106c-0.622-13.066-4.022-25.376-11.688-34.975c-6.511-8.177-15.821-11.088-24.709-15.599&#10;&#9;&#9;c-16.088,2.822-35.353,0.111-49.151,0.156c-5.644,0-11.31,0.089-16.999,0.178c7.622,19.976,9.021,43.574,8.933,64.017&#10;&#9;&#9;c-0.044,13.754-1.444,27.576-4.022,41.086c-0.689,3.6-1.333,8.133-2.467,12.555c4.266,0,8.533,0,12.799,0&#10;&#9;&#9;c12.021,0,61.262,8.666,69.994,1.333C1112.658,914.282,1113.702,912.171,1114.658,910.104z M1110.769,957.767&#10;&#9;&#9;c1.067-9.021,0.956-18.332-1.2-27.198c-12.355,1.467-24.376,3.111-37.108,3.178c-14.021,0.089-28.042,0-42.063,0&#10;&#9;&#9;c-7.244,0-14.488,0-21.732,0c2.133,4.955,3.511,10.355,4.333,15.377c1.355,8.333,2.422,17.843,1.311,26.776&#10;&#9;&#9;c8.51,0.022,16.999,0.044,25.509,0.133c13.865,0.133,27.731,0.067,41.597,0.444c8.244,0.244,15.932,0.422,23.531,2.089&#10;&#9;&#9;C1106.503,971.655,1109.991,964.389,1110.769,957.767z M1098.881,772.071c3-3,3.311-6.577-3.622-9.31&#10;&#9;&#9;c-10.91-4.289-26.287-1.067-37.641-0.778c-40.686,1.044-81.416,2.711-122.101,2.222c1.222,5,2.622,9.932,4.155,14.843&#10;&#9;&#9;c32.597-2.933,66.061-0.8,98.636-0.8c15.621,0,33.553,2.755,48.907-0.244C1090.904,777.271,1096.082,774.915,1098.881,772.071z&#10;&#9;&#9; M1080.861,633.705c5.822-1.733,11.999,0.8,11.643-10.71c-0.378-11.488-26.976-3.777-33.753-4.622&#10;&#9;&#9;c-4.666,5.799-10.177,10.688-15.265,16.021C1053.041,634.927,1071.084,636.615,1080.861,633.705z M1083.927,678.279&#10;&#9;&#9;c1.022-8.666,1.889-17.354,2.289-26.065c-1.067-0.222-2.178-0.378-3.355-0.511c-3.466,2.044-23.243,0.489-27.731,0.4&#10;&#9;&#9;c-11.199-0.2-22.687,0-33.864-1.422c-12.066,7.844-24.887,14.91-37.419,22.176c-3.711,2.133-7.466,4.333-11.199,6.644&#10;&#9;&#9;c6.377-0.755,12.932-0.733,19.31-0.911c11.843-0.289,23.687-0.422,35.553-0.511c12.421-0.067,24.865,0.089,37.286,0.133&#10;&#9;&#9;C1070.861,678.234,1077.55,677.701,1083.927,678.279z M1079.727,711.787c0.511-4.577,1.089-9.155,1.689-13.754&#10;&#9;&#9;c-6.333,0.555-12.91,0.2-18.665,0.289c-11.755,0.2-23.487,0.356-35.241,0.111c-12.555-0.244-25.109-0.667-37.641-1.4&#10;&#9;&#9;c-10.577-0.622-21.798-0.711-31.509-5.311c-0.622-0.289-1.089-0.778-1.467-1.311c-5.511,4.4-10.555,9.288-14.732,14.91&#10;&#9;&#9;c-8.333,11.244-11.132,24.354-10.244,37.908c26.687-0.489,53.396-0.378,80.082-1.022c21.198-0.489,65.417-2.266,65.417-2.266&#10;&#9;&#9;l-1.355-7.044c0,0-39.441,0.6-43.819,0.556c-11.977-0.111-24.442,0.444-35.419-5.111c-2.622-1.333-2.578-5.533,0-6.888&#10;&#9;&#9;c12.288-6.444,69.15-6.288,81.66-0.4C1078.927,717.742,1079.416,714.587,1079.727,711.787z M1046.641,597.241&#10;&#9;&#9;c9.044-14.199,14.599-31.464,10.532-48.263c-2.667-10.977-8.777-20.709-16.576-28.775c-5.622-5.822-20.843-13.021-18.621-22.865&#10;&#9;&#9;c0.533-2.355,2.022-4.355,2.933-6.599c3.177-7.999,1.378-20.909,1.044-29.575c-0.489-12.177-2.178-24.265-4.866-36.153&#10;&#9;&#9;c-5.044-22.176-12.866-44.619-25.042-63.95c-25.154-39.997-69.861-68.172-116.924-82.238c-3.866,15.088-17.11,32.175-24.554,39.241&#10;&#9;&#9;c-23.954,22.709-56.751,1.689-84.504,3.111c-17.599,0.911-37.53,7.622-54.751,1.355c-12.755-4.644-15.199-14.266-13.221-24.398&#10;&#9;&#9;c-25.953,13.466-50.018,30.553-70.528,49.24c20.354,26.642,29.798,60.306,27.731,93.881c-1.111,18.243-4.266,36.73-11.332,53.662&#10;&#9;&#9;c-1.733,4.177-3.977,8.866-6.711,13.354c6.355,1.6,19.154,12.599,19.465,14.91c0.089,0.178,0.178,0.356,0.289,0.511&#10;&#9;&#9;c1.222,4.111-1.489,8.044-5.288,9.333c-7.422,2.489-14.799-0.778-22.243-1.8c-7.244-0.956-14.599-1.111-21.865-0.622&#10;&#9;&#9;c-15.465,1-31.375,5.089-45.352,11.777c-10.955,5.266-24.554,13.021-29.487,24.887c-4.711,11.399,3.266,21.354,10.088,30.042&#10;&#9;&#9;c6.044-0.022,12.088-0.044,18.132-0.089c-1.578-19.843,6.399-46.33,26.62-49.951c9.355-1.667,14.066,9.599,6.355,15.065&#10;&#9;&#9;c-12.732,9.044-12.621,21.465-13.554,34.819c9.11-0.044,18.243-0.067,27.376-0.067c-1.467-15.088,0.222-30.664,11.244-42.041&#10;&#9;&#9;c9.333-9.644,22.42,6.377,11.421,14.821c-6.333,4.866-6.622,17.554-6.866,27.198c26.242,0.022,52.507,0.111,78.749,0.489&#10;&#9;&#9;c3.644,0.044,7.244,0.156,10.888,0.222c-2.444-13.177,0.556-28.442,6.466-39.486c6.888-12.799,18.954-21.243,32.308-26.265&#10;&#9;&#9;c17.487-6.577,36.286-6.844,54.884-6.088c-9.288-14.221-17.199-29.42-19.954-46.241c-3.555-21.576,2.089-43.085,15.443-60.328&#10;&#9;&#9;c12.755-16.488,30.442-29.064,49.907-36.375c16.11-6.022,45.752-11.288,58.862,3.289c6.2,6.888,1.489,16.043-7.066,17.087&#10;&#9;&#9;c-8.066,0.978-16.088-2.711-24.354-2.355c-8.31,0.333-16.599,2.622-24.176,5.977c-13.599,6-26.464,15.71-35.33,27.687&#10;&#9;&#9;c-24.887,33.619-0.2,69.505,19.887,98.125c5.022,7.155-1.644,18.043-10.088,17.576c-21.265-1.133-43.085-4.244-64.106,0.578&#10;&#9;&#9;c-10.333,2.378-20.443,6.511-26.865,15.377c-7.088,9.777-6.533,20.776-7.599,31.797c4.244,0.111,8.488,0.2,12.755,0.311&#10;&#9;&#9;c-0.867-12.888,8.222-29.198,18.421-33.242c2.666-1.044,6.377,0.178,8.266,2.2c6.755,7.155-2,12.91-5.533,18.71&#10;&#9;&#9;c-1.711,2.8-4.844,8.533-4.844,12.843c6.866,0.244,13.754,0.444,20.621,0.689c0.089-3.355,0.889-6.755,2.044-9.821&#10;&#9;&#9;c2.622-7.111,7.755-17.687,16.599-17.554c7.955,0.111,11.221,9.421,6.244,15.065c-0.844,0.978-2.022,1.6-3,2.355&#10;&#9;&#9;c0,0.089-1.067,1.2-1.178,1.355c-0.822,1.133-2.2,3.622-3.066,5.355c-0.6,1.155-1.267,2.533-1.889,3.933&#10;&#9;&#9;c19.221,0.822,38.464,1.733,57.684,2.822c23.576,1.355,47.152,2.711,70.728,3.777c14.621,0.667,29.198,1.622,43.752,0.933&#10;&#9;&#9;c10.755-8.199,25.22-18.287,30.775-31.153c4.177-9.644-1.778-19.11-7.222-26.953c-4.555-6.533,5.088-12.666,10.377-7.999&#10;&#9;&#9;c20.709,18.154,21.865,40.708,4,61.595c-25.154,29.42-61.351,48.84-90.793,73.616c-24.865,20.909-48.618,45.063-60.862,75.749&#10;&#9;&#9;c-12.066,30.264-12.955,67.106-2.378,97.97c7.955,23.22,30.22,40.774,57.129,27.798c26.82-12.955,19.865-45.796,13.332-67.283&#10;&#9;&#9;c-8.377-27.509-20.909-55.684-16.888-85.06c4.444-32.508,30.064-53.307,56.573-69.283&#10;&#9;&#9;C995.423,639.793,1028.198,626.216,1046.641,597.241z M1014.155,860.775c0.533-21.976-3.378-42.485-7.266-63.706&#10;&#9;&#9;c-20.576,0.333-41.286,0.489-61.684-1c4.977,15.021,9.777,30.109,11.421,45.996c3.022,29.509-12.11,54.04-44.685,60.639&#10;&#9;&#9;c-30.109,6.088-55.595-2.866-69.861-28.775c-12.777-23.243-17.154-51.774-15.532-78.994c-97.636,0.133-195.273-1.267-292.932-1.244&#10;&#9;&#9;c-2.222,0-4.444,0.044-6.666,0.044c2.333,4.844,4.022,10.044,5.444,14.31c4.4,13.332,6.355,27.553,7.644,41.486&#10;&#9;&#9;c1.911,20.532,2.778,44.285-2.8,65.106c88.57-0.178,177.141-0.222,265.712-0.222c52.951,0,105.902,0,158.876,0&#10;&#9;&#9;c14.577,0,29.175,0,43.774,0c1.155-6.333,3.977-12.977,4.977-18.087C1012.888,884.617,1013.866,872.707,1014.155,860.775z&#10;&#9;&#9; M988.713,975.899c4.244-10.377,1.889-29.909-2.755-42.152c-8.266,0-16.554,0-24.82,0c1.911,5.644,2.889,11.71,3.666,17.399&#10;&#9;&#9;c1.044,7.688,1.978,16.51,0.911,24.776C973.38,975.921,981.046,975.921,988.713,975.899z M932.184,637.971&#10;&#9;&#9;c6.955-5.133,13.954-10.199,20.932-15.31c-9.155-0.244-18.332-0.822-27.487-1.244c-25.376-1.178-50.751-2.666-76.105-4.111&#10;&#9;&#9;c-54.284-3.066-108.569-4.8-162.92-5.311c-47.618-0.467-95.214,0.311-142.811,0.778c-33.22,0.311-66.461,0.489-99.681,0&#10;&#9;&#9;c-14.399-0.222-28.798-1.378-43.174-0.222c-21.532,1.711-36.13,12.221-47.218,30.753c-18.243,30.509-13.888,74.416-0.755,105.947&#10;&#9;&#9;c13.754,33.042,39.93,34.108,72.994,32.508c73.105-3.511,146.344-2.977,219.515-2.444c60.751,0.444,121.523,0.889,182.274,1.333&#10;&#9;&#9;c1.089-5.777,2.155-11.555,3.244-17.332c-144.366,0.133-288.754-0.378-433.12-1.489c-9.755-0.067-20.598-0.578-27.487-7.51&#10;&#9;&#9;c-5.955-5.955-7.199-15.043-7.755-23.443c-1.8-26.709,0.111-53.662,5.644-79.86c0.867-4.044,1.889-8.288,4.644-11.399&#10;&#9;&#9;c4.733-5.355,12.821-5.711,19.976-5.688c71.105,0.289,142.233,0.6,213.338,1.067c56.751,0.356,113.524,0.689,170.275,1.111&#10;&#9;&#9;C828.303,636.482,880.388,635.771,932.184,637.971z M941.472,975.921c5.533-12.177,0.644-28.242-1.378-42.174&#10;&#9;&#9;c-9.221,0-18.443,0-27.642,0c2.578,7.577,2.889,16.088,1.778,24.531c-0.667,5.133-1.644,11.755-3.8,17.621&#10;&#9;&#9;C920.763,975.921,931.117,975.921,941.472,975.921z M888.099,968.277c4.489-12.332,4.555-22.798,1.955-34.531&#10;&#9;&#9;c-86.86,0-173.741,0-260.623,0c4.777,13.288,5.422,28.687,2.111,42.508c56.218-0.133,112.458-0.222,168.675-0.311&#10;&#9;&#9;c28.553-0.044,57.129-0.044,85.704-0.044C886.232,973.21,887.121,970.944,888.099,968.277z M883.055,678.723&#10;&#9;&#9;c8.866-8.755,18.243-16.821,27.931-24.554c-44.774,1.133-89.748,0.267-134.478,0.133c-100.858-0.311-201.739-1.2-302.597-1.533&#10;&#9;&#9;c-23.443-0.067-46.885-0.133-70.328-0.2c-3.111,0-15.332-1.867-17.176-0.111c-0.978,0.911-0.955,4.622-1.155,6.044&#10;&#9;&#9;c-0.822,5.733-1.578,11.466-2.244,17.221c-0.289,2.489-1.4,13.221-2.289,25.687c22.709-0.867,45.574,0.6,68.306,0.244&#10;&#9;&#9;c23.02-0.356,52.04-5.377,73.661,4.111c3.6,1.578,3.577,7.866,0,9.466c-11.132,4.933-23.931,5.066-35.975,5.577&#10;&#9;&#9;c-13.266,0.578-26.509,0.867-39.797,0.956c-22.109,0.133-45.374,0.533-67.083-4.777c-0.622,14.732-0.333,28.22,2.4,30.62&#10;&#9;&#9;c18.732-3.4,38.552-2.155,57.529-2.422c19.798-0.267,39.597-0.267,59.395-0.356c39.997-0.2,79.971-0.378,119.946-0.467&#10;&#9;&#9;c40.663-0.089,81.327-0.222,121.99-0.244c19.754-0.022,39.53-0.022,59.284-0.022c9.799-0.022,19.598-0.089,29.398-0.022&#10;&#9;&#9;c2.711,0.022,5.288,0,7.733,0.2C847.502,719.453,863.967,697.499,883.055,678.723z M853.457,278.645&#10;&#9;&#9;c0.8-1.755,1.444-3.689,2.044-5.666c-11.91-2.355-23.82-3.8-35.397-4.266c-33.686-1.355-68.061,6.822-100.258,20.932&#10;&#9;&#9;c-1.466,4.977-2.378,10.399-0.156,12.954c1.555,1.755,7.555,1.089,10.11,0.978c14.177-0.689,28.087-4.333,42.285-5.044&#10;&#9;&#9;c11.377-0.578,22.443,1.822,33.486,4.222c10.044,2.178,23.842,6.088,32.508-1.178C844.858,295.91,849.835,286.555,853.457,278.645z&#10;&#9;&#9; M629.809,474.095c4.644-16.576,6.466-34.131,5.533-51.307c-1.8-33.286-18.443-64.595-44.796-84.86&#10;&#9;&#9;c-27.709-21.309-63.35-30.642-97.681-33.575c-34.953-2.978-70.994-0.822-104.769,9.155c-16.732,4.933-33.108,11.777-47.129,22.354&#10;&#9;&#9;c-10.466,7.91-17.51,17.887-25.265,27.62c-0.022,41.53-0.089,83.038-0.133,124.568c9.466,20.887,23.398,41.463,45.374,48.685&#10;&#9;&#9;c0.933-0.4,1.844-0.8,2.778-1.155c20.643-8.31,42.641-12.599,64.75-8.177c17.065,3.422,33.842,11.599,45.818,24.42&#10;&#9;&#9;c19.154-3.244,38.33-5.888,56.706-12.488c4.711-4.533,10.044-8.444,15.421-11.777c16.665-10.266,36.086-16.599,55.418-19.376&#10;&#9;&#9;c2.8-0.4,5.844-0.778,9.044-1.111c3.466-3.333,7.022-6.555,9.666-10.821C624.787,489.361,627.653,481.873,629.809,474.095z&#10;&#9;&#9; M615.343,314.375c3.244-12.555,2.933-26.02,2.289-38.863c-1.044-20.487-4.289-40.663-7.844-60.795&#10;&#9;&#9;c-16.754,10.355-31.931,23.02-46.285,36.597c-11.755,11.132-23.02,24.954-35.575,36.308c2.844,0.6,5.688,1.244,8.488,1.933&#10;&#9;&#9;c6.733-7.71,14.621-14.665,21.909-21.554c7.066-6.688,16.488-17.576,26.531-19.598c12.821-2.578,14.977,10.999,14.266,20.487&#10;&#9;&#9;c-1.111,14.865-4.489,29.42-5.577,44.285c5.977,3.777,11.688,7.933,17.088,12.466C613.143,322.53,614.365,318.153,615.343,314.375z&#10;&#9;&#9; M606.833,976.321c6.311-13.221,4.244-28.375,1.444-42.596c-10.977,0-21.954-0.022-32.931-0.044&#10;&#9;&#9;c4.489,12.621,3.733,29.331,1.6,42.73C586.901,976.388,596.878,976.343,606.833,976.321z M580.079,280.111&#10;&#9;&#9;c0.222-1.422,0.311-5.822,0.6-9.866c-9.421,7.199-17.465,16.554-26.353,24.531c7.644,2.6,15.065,5.6,22.22,9.066&#10;&#9;&#9;C577.502,295.91,578.835,288,580.079,280.111z M553.526,976.477c3.066,0,3.378-40.13-2.266-42.619&#10;&#9;&#9;c-1.244-0.555-2.644-0.511-4-0.467c-15.799,0.489-33.064-1.933-48.618,0.244c1.8,7.11,3.889,13.932,4.689,21.332&#10;&#9;&#9;c0.644,6,1.355,14.266,0.333,21.665C520.284,976.565,536.905,976.521,553.526,976.477z M490.553,597.641&#10;&#9;&#9;c10.799-0.044,21.576-0.111,32.375-0.2c-6.599-9.133-9.888-20.465-7.533-31.909c-4.066,0.778-8.11,1.422-12.043,2&#10;&#9;&#9;c-5.955,0.911-11.71,1.555-17.487,1.822C489.576,577.954,492.086,588.664,490.553,597.641z M511.996,914.682&#10;&#9;&#9;c6.044-20.754,7.244-41.974,5.888-63.684c-0.778-12.621-2.644-25.109-5.555-37.419c-1.533-6.488-4.555-13.066-6.355-19.687&#10;&#9;&#9;c-14.799,0.2-29.598,0.6-44.374,1.111c7.622,17.421,10.288,37.352,11.866,55.929c1.8,21.243,1.733,42.619-0.156,63.839&#10;&#9;&#9;c3.511,0,6.999-0.022,10.51-0.022C493.22,914.704,502.597,914.704,511.996,914.682z M482.132,971.255&#10;&#9;&#9;c1.111-9.599,1.089-19.821-1.133-29.264c-2.466-10.399-13.466-8.244-21.598-8.088c-13.888,0.311-27.82-0.667-41.708-0.711&#10;&#9;&#9;c-11.355-0.044-22.731-0.111-34.086-0.156c-13.777-0.044-27.509-0.178-41.263-0.422c-8.31-0.133-27.242-8.422-28.287,5.377&#10;&#9;&#9;c-0.511,6.888,1.289,13.732,2.133,20.532c0.622,4.888-0.6,9.466-0.489,14.288c0.133,6.311,1.933,5.266,8.377,5.244&#10;&#9;&#9;c9.71-0.022,19.332-1.422,29.042-1.378c12.799,0.067,25.598,0.444,38.397,0.4c29.331-0.133,58.662-0.244,87.993-0.378&#10;&#9;&#9;c0.6,0,1.2,0,1.8,0C481.621,974.854,481.932,972.988,482.132,971.255z M466.889,593.975c0.044-2.355,0.111-4.733-0.222-7.066&#10;&#9;&#9;c-1.133-8.399-5.444-15.843-11.444-21.709c-12.688-12.421-32.397-18.398-49.885-18.398c-11.977,0-25.531,2.933-37.597,8.177&#10;&#9;&#9;c-1.289,1.178-2.889,2-4.733,2.244c-5.488,2.778-10.555,6.044-14.843,9.777c-15.91,13.843-12.488,40.13,10.355,42.708&#10;&#9;&#9;c0.022,0.022,0.044,0.022,0.067,0.022c5.955-3.111,12.421-5.511,19.221-7.333c-1.778-10.066-0.533-21.354-0.667-31.086&#10;&#9;&#9;c-0.156-11.044,17.31-11.044,17.154,0c-0.133,8.688,0.867,18.665-0.178,27.864c2.178-0.289,4.377-0.556,6.599-0.778&#10;&#9;&#9;c6.266-0.6,12.555-0.911,18.843-1.044c0.378-3.622,0.711-7.266,0.622-10.866c-0.133-5.222-2.978-10.466-1.578-15.532&#10;&#9;&#9;c1.289-4.711,6.666-6.688,10.844-4.422c6.311,3.444,6.733,12.599,6.777,19.021c0.022,3.955-0.289,7.933-1.244,11.732&#10;&#9;&#9;c6.199,0.067,12.399,0.178,18.576,0.267c4.111,0.044,8.222,0.044,12.332,0.067c0.111-0.4,0.156-0.778,0.289-1.178&#10;&#9;&#9;C466.511,595.352,466.733,594.552,466.889,593.975z M448.846,914.882c2.622,0,1.644-54.418,1.378-59.484&#10;&#9;&#9;c-1.044-19.332-3.755-38.397-6.799-57.484c-0.067-0.533-0.178-1.067-0.511-1.466c-0.533-0.6-1.444-0.644-2.244-0.622&#10;&#9;&#9;c-12.71,0.222-25.398,1.955-38.086,1.422c-17.332-0.733-34.397,0.867-51.796,1.089c-11.866,0.133-23.731,0.311-35.597,0.4&#10;&#9;&#9;c0,5.311,0,10.621-0.022,15.932c-0.111,34.375,0.422,68.883,0.089,103.325c11.888-1.333,23.509-2.378,35.753-2.6&#10;&#9;&#9;c14.488-0.267,28.975-0.244,43.463-0.311C412.604,914.993,430.714,914.948,448.846,914.882z M394.361,290.866&#10;&#9;&#9;c4-0.978,8.11-1.889,12.266-2.711c-16.932-22.598-42.174-38.752-57.44-62.595c-12.621,15.776-20.021,34.375-23.709,54.751&#10;&#9;&#9;c-2.778,15.31-2.533,31.131-3.311,46.73c3.4-3.133,6.911-6.022,10.31-8.555c0.622-8.599,3.889-17.532,6.088-25.309&#10;&#9;&#9;c3.066-10.977,5.688-24.398,11.91-34.153c6.888-10.799,15.132-3.066,20.398,4.289c4.244,5.955,8.177,12.177,12.977,17.71&#10;&#9;&#9;C386.939,284.622,390.872,287.577,394.361,290.866z M373.829,296.954c-2.422-2.755-4.6-5.666-6.599-8.288&#10;&#9;&#9;c-2.622-3.466-5.022-7.044-7.333-10.71c-0.2,0.578-0.422,1.178-0.644,1.755c-2.244,6.199-4.266,12.488-6.199,18.776&#10;&#9;&#9;c-0.867,2.889-1.689,5.777-2.489,8.666C358.031,303.176,365.83,299.799,373.829,296.954z M350.787,781.048&#10;&#9;&#9;c0.933,0.022,1.867,0.022,2.778,0.022c-9.244-7.622-12.732-14.621-17.443-25.776c-13.221-31.242-14.977-75.749-5.333-108.258&#10;&#9;&#9;c2.889-9.733,3.489-16.51,9.221-22.976c-13.066-6.155-21.487-22.843-21.487-37.73c0-1.178,0.044-2.333,0.156-3.466&#10;&#9;&#9;c1.4-15.065,10.088-26.22,21.42-34.553c-9.244-5.888-17.687-13.866-24.576-23.02c-0.022,20.354-0.044,40.686-0.067,61.039&#10;&#9;&#9;c-0.044,29.242-0.067,58.484-0.111,87.704c-0.044,35.53-0.044,71.061-0.111,106.614&#10;&#9;&#9;C327.078,780.737,338.943,780.915,350.787,781.048z M293.48,983.52c-0.622-10.221-1.089-20.465-1.444-30.709&#10;&#9;&#9;c-1.733,0.378-3.444,0.689-5.066,1c-12.866,2.444-26.02,3.489-39.108,3.822c-13.754,0.356-27.62,0.067-41.308-1.466&#10;&#9;&#9;c-3.422-0.378-7.088-0.778-10.732-1.422c-0.156,8.533-0.289,17.065-0.356,25.598c15.488,4.955,31.664,7.822,47.863,8.866&#10;&#9;&#9;C259.305,990.231,278.393,990.542,293.48,983.52z M291.103,890.95c-0.022-30.242,0.378-60.484,0.356-90.615&#10;&#9;&#9;c-0.044-24.131-0.067-48.285-0.089-72.416c-15.51,2.511-31.531,2.622-47.063,2.422c-15.976-0.222-31.642-1.267-47.241-3.711&#10;&#9;&#9;c0.4,31.242,0.8,62.484,0.933,93.726c0.089,24.887-0.356,49.752-0.889,74.616c14.266-0.378,28.864,1.133,42.996,1&#10;&#9;&#9;C257.372,895.817,274.238,894.061,291.103,890.95z M291.347,708.476c-0.022-9.599-0.022-19.176-0.044-28.753&#10;&#9;&#9;c-31.042,4.977-63.973,4.422-94.859-0.933c0.133,11.221,0.289,22.443,0.422,33.664&#10;&#9;&#9;C227.841,714.387,261.372,715.942,291.347,708.476z M291.481,931.636c-0.133-6.311-0.222-12.643-0.267-18.976&#10;&#9;&#9;c-15.532,2.666-31.42,3.489-47.085,3.422c-14.977-0.067-31.975-0.178-47.418-3.355c-0.2,8.199-0.378,16.399-0.556,24.598&#10;&#9;&#9;c4.977,0.711,10.355,0.822,14.732,1.067c11.866,0.733,23.82,0.578,35.686-0.044c11.377-0.622,22.865-1.511,34.064-3.666&#10;&#9;&#9;C284.303,933.991,287.881,932.769,291.481,931.636z M291.281,660.236c0-4.222,0-8.466,0-12.688&#10;&#9;&#9;c-3.777-0.022-7.555-0.244-11.088-0.222c-11.088,0.089-22.176,0.244-33.264,0.356c-16.71,0.156-33.953,1.311-50.84,0.533&#10;&#9;&#9;c0.067,5.911,0.111,11.821,0.178,17.71c16.243,0.622,32.886-0.156,48.907-1.044C260.55,664.013,276.104,663.08,291.281,660.236z&#10;&#9;&#9; M291.258,627.061c-0.133-111.346-0.222-222.693-0.267-334.017c-1.778-0.067-3.533-0.133-5.177-0.111&#10;&#9;&#9;c-11.51,0.089-23.109,0.444-34.642-0.067c-15.443-0.644-32.42-0.911-48.063-4.577c-0.356,17.687-0.844,35.353-1.311,52.996&#10;&#9;&#9;c-2.355,90.793-6.577,181.563-6.022,272.4c0.022,5.688,0.111,11.377,0.156,17.065c16.932-1.2,34.131-1.044,50.996-1.755&#10;&#9;&#9;c11.088-0.489,22.176-0.933,33.264-1.311C283.748,627.55,287.503,627.194,291.258,627.061z M290.97,270.757&#10;&#9;&#9;c0-4.177,0-8.377,0-12.577c-15.243,0.289-30.531,0.355-45.752,0.2c-13.399-0.156-28.02-0.089-41.708-2.578&#10;&#9;&#9;c-0.022,4.755-0.067,9.533-0.111,14.31c17.421,1.667,34.775,1.622,52.396,1.489c10.844-0.089,21.687-0.4,32.553-0.733&#10;&#9;&#9;C289.192,270.845,290.081,270.801,290.97,270.757z M290.97,237.87c0-7.244-0.022-14.465-0.022-21.709&#10;&#9;&#9;c-3.311,0-7.155,0.644-12.221,0.755c-10.266,0.2-20.532,0.556-30.797,0.889c-14.91,0.511-29.798,1-44.707,1.178&#10;&#9;&#9;c0.133,6.355,0.222,12.688,0.267,19.021c14.443,1.2,28.775,1.867,43.374,1.667C261.55,239.47,276.282,238.27,290.97,237.87z&#10;&#9;&#9; M178.868,287.533c0.111-8.466,0.156-16.91,0.156-25.353c-21.976,2.044-44.441,1.111-66.395,1.2&#10;&#9;&#9;c-9.288,0.044-18.865-1.067-27.909,1c-2.555,0.578-5.111,1.155-7.666,1.733c0.044,7.533,0.067,15.065,0.067,22.598&#10;&#9;&#9;c5.888-0.644,11.932-0.689,17.443-1.111c11.11-0.889,22.243-1.422,33.397-1.911C144.293,285,162.18,284.622,178.868,287.533z&#10;&#9;&#9; M178.179,324.53c0.133-5.333,0.244-10.688,0.356-16.021c-17.51-2.422-34.73-4.888-52.685-5.2&#10;&#9;&#9;c-10.421-0.178-20.887,0.467-31.286,0.978c-5.622,0.267-11.555,1-17.399,1.133c0.022,7.177,0.022,14.377,0.022,21.554&#10;&#9;&#9;C109.895,320.864,144.959,321.463,178.179,324.53z M176.712,372.059c0.311-8.799,0.6-17.576,0.867-26.376&#10;&#9;&#9;c-33.508-2.911-66.972-0.733-100.392-2.066c0,10.088-0.022,20.154-0.044,30.242c15.554-1.711,31.709-1.311,47.085-1.667&#10;&#9;&#9;C141.737,371.77,159.225,371.637,176.712,372.059z M173.379,467.274c0.755-25.042,1.711-50.129,2.622-75.216&#10;&#9;&#9;c-17.243-0.933-34.486-1.355-51.774-1.489c-15.465-0.111-31.486,0.933-47.129-0.067c-0.044,13.51-0.089,26.998-0.133,40.486&#10;&#9;&#9;c-0.4,94.748-1.489,189.473-2.733,284.221c-0.6,47.418-1.044,94.837-1.755,142.255c9.755,0.467,19.532,1.733,29.264,2.111&#10;&#9;&#9;c12.399,0.467,24.842,0.333,37.241-0.467c11.421-0.733,22.643-2.333,33.931-3.955c0.289-20.421,0.467-40.841,0.311-61.262&#10;&#9;&#9;C172.313,684.923,170.113,576.198,173.379,467.274z M172.224,895.772c0.133-6.311,0.244-12.621,0.356-18.954&#10;&#9;&#9;c-1.089,0.111-2.133,0.2-3.089,0.311c-12.177,1.422-24.398,2.311-36.664,2.511c-19.265,0.356-41.019,0.533-60.551-3.844&#10;&#9;&#9;c-0.067,8.355-0.089,16.732-0.089,25.109c17.421-1.8,36.286,1.067,53.373,0.489C141.382,900.861,156.736,898.305,172.224,895.772z&#10;&#9;&#9; M171.468,943.768c0.111-8.622,0.222-17.243,0.378-25.865c-14.577,2.222-29.398,3.555-43.996,3.489&#10;&#9;&#9;c-9.755-0.044-19.465-0.667-29.175-1.511c-8.599-0.733-17.799-1.067-26.553-2.644c-0.044,9.599-0.133,19.221-0.333,28.842&#10;&#9;&#9;C105.207,946.879,138.204,948.123,171.468,943.768z M171.29,982.254c-0.022-5.777-0.022-11.532,0-17.31&#10;&#9;&#9;c-32.686,3.577-67.572,4.289-100.014-0.978c-0.244,6.599-0.556,13.177-0.978,19.776c4.888,1.267,9.755,2.866,14.643,3.644&#10;&#9;&#9;c11.244,1.8,22.554,2.355,33.931,2.311C135.96,989.587,155.092,988.942,171.29,982.254z"/>
	<path fill="#D36448" d="M1128.234,846.998c1.044,21.998-5.8,46.152-13.577,63.106c-0.955,2.066-2,4.177-3.733,5.644&#10;&#9;&#9;c-8.733,7.333-57.973-1.333-69.994-1.333c-4.266,0-8.533,0-12.799,0c1.133-4.422,1.778-8.955,2.467-12.555&#10;&#9;&#9;c2.578-13.51,3.977-27.331,4.022-41.086c0.089-20.443-1.311-44.041-8.933-64.017c5.688-0.089,11.355-0.178,16.999-0.178&#10;&#9;&#9;c13.799-0.044,33.064,2.666,49.151-0.156c8.888,4.511,18.198,7.422,24.709,15.599&#10;&#9;&#9;C1124.213,821.623,1127.612,833.933,1128.234,846.998z" style="fill: rgb(193, 123, 0);"/>
	<path fill="#8CC8BE" d="M1109.569,930.569c2.155,8.866,2.266,18.176,1.2,27.198c-0.778,6.622-4.266,13.888-5.822,20.798&#10;&#9;&#9;c-7.599-1.667-15.288-1.844-23.531-2.089c-13.865-0.378-27.731-0.311-41.597-0.444c-8.51-0.089-16.999-0.111-25.509-0.133&#10;&#9;&#9;c1.111-8.933,0.044-18.443-1.311-26.776c-0.822-5.022-2.2-10.421-4.333-15.377c7.244,0,14.488,0,21.732,0&#10;&#9;&#9;c14.021,0,28.042,0.089,42.063,0C1085.193,933.68,1097.215,932.036,1109.569,930.569z" style="fill: rgb(130, 171, 191);"/>
	<path fill="#FAC950" d="M1095.259,762.761c6.933,2.733,6.622,6.311,3.622,9.31c-2.8,2.844-7.977,5.2-11.666,5.933&#10;&#9;&#9;c-15.354,3-33.286,0.244-48.907,0.244c-32.575,0-66.039-2.133-98.636,0.8c-1.533-4.911-2.933-9.844-4.155-14.843&#10;&#9;&#9;c40.686,0.489,81.416-1.178,122.101-2.222C1068.973,761.694,1084.349,758.472,1095.259,762.761z" style="fill: rgb(255, 220, 101);"/>
	<path fill="#FAC950" d="M1092.504,622.994c0.355,11.51-5.822,8.977-11.643,10.71c-9.777,2.911-27.82,1.222-37.375,0.689&#10;&#9;&#9;c5.089-5.333,10.599-10.221,15.265-16.021C1065.528,619.217,1092.126,611.506,1092.504,622.994z" style="fill: rgb(255, 220, 101);"/>
	<path fill="#D36448" d="M1006.889,797.069c3.889,21.221,7.799,41.73,7.266,63.706c-0.289,11.932-1.267,23.842-3.578,35.553&#10;&#9;&#9;c-1,5.111-3.822,11.755-4.977,18.087c-14.599,0-29.198,0-43.774,0c-52.973,0-105.925,0-158.876,0&#10;&#9;&#9;c-88.571,0-177.141,0.044-265.712,0.222c5.577-20.82,4.711-44.574,2.8-65.106c-1.289-13.932-3.244-28.153-7.644-41.486&#10;&#9;&#9;c-1.422-4.266-3.111-9.466-5.444-14.31c2.222,0,4.444-0.044,6.666-0.044c97.659-0.022,195.295,1.378,292.932,1.244&#10;&#9;&#9;c-1.622,27.22,2.755,55.751,15.532,78.994c14.266,25.909,39.752,34.864,69.861,28.775c32.575-6.599,47.707-31.131,44.685-60.639&#10;&#9;&#9;c-1.644-15.888-6.444-30.975-11.421-45.996C965.603,797.558,986.313,797.402,1006.889,797.069z M814.482,882.929&#10;&#9;&#9;c11.888-0.133,11.91-18.421,0-18.487c-15.554-0.089-31.086-0.089-46.596,0.711c-15.354,0.8-30.42,3.022-45.574-0.067&#10;&#9;&#9;c-9.621-1.955-18.621-9.999-27.909-2.155c-4.177,3.533-5.844,6.022-11.999,5.711c-5.977-0.289-7.711-2.555-9.244-8.355&#10;&#9;&#9;c-2.178-8.244-13.577-9.444-17.865-2.333c-2.711,4.466-5.888,14.71-11.577,15.932c-8.777,1.889-8.177-6.466-6.044-11.732&#10;&#9;&#9;c0.267-0.6,0.555-1.178,0.8-1.755c4.888-10.888-10.266-20.465-16.376-9.577c-1,1.8-1.867,3.689-2.578,5.6&#10;&#9;&#9;c-3.178,6.444-7.51,13.221-13.688,15.91c-5.577,2.422-10.088,0.133-13.243-3.955c2.755-5.244,4.711-10.977,5.799-16.332&#10;&#9;&#9;c1.467-7.177,2-17.465-5.266-21.865c-6.288-3.8-13.154-0.333-16.999,5.111c-6.577,9.333-6.733,22.798-2.4,34.264&#10;&#9;&#9;c-3.155,3.711-7.133,6.377-12.021,6.333c-6.444-0.067-8.022,9.91-1.533,11.399c8.31,1.889,15.421-0.356,21.22-4.866&#10;&#9;&#9;c2.666,2.978,5.755,5.444,9.244,7.088c11.799,5.622,22.665,1.622,31.353-6.022c2.489,3.244,5.955,5.911,10.621,7.666&#10;&#9;&#9;c14.488,5.4,23.376-0.556,30.62-9.821c3.777,3.489,8.622,5.822,14.554,6.599c5.688,0.733,11.643,0.178,17.221-1.222&#10;&#9;&#9;c2.422-0.6,4.666-1.244,6.755-2.689c1.289-0.889,2.289-2.289,3.333-3.578c1.533,0.889,3.044,1.867,4.689,2.355&#10;&#9;&#9;c4.444,1.333,9.666,1.978,14.243,2.8c9.399,1.689,18.465,0.778,27.909,0.156C772.752,884.395,793.617,883.173,814.482,882.929z" style="fill: rgb(193, 123, 0);"/>
	<path fill="#08736D" d="M985.957,933.747c4.644,12.243,6.999,31.775,2.755,42.152c-7.666,0.022-15.332,0.022-22.998,0.022&#10;&#9;&#9;c1.067-8.266,0.133-17.087-0.911-24.776c-0.778-5.688-1.755-11.755-3.666-17.399C969.403,933.747,977.691,933.747,985.957,933.747z&#10;&#9;&#9;" style="fill: rgb(52, 73, 85);"/>
	<path fill="#FAC950" d="M953.115,622.661c-6.977,5.111-13.977,10.177-20.932,15.31c-51.796-2.2-103.88-1.489-155.676-1.867&#10;&#9;&#9;c-56.751-0.422-113.524-0.755-170.275-1.111c-71.105-0.467-142.233-0.778-213.338-1.067c-7.155-0.022-15.243,0.333-19.976,5.688&#10;&#9;&#9;c-2.755,3.111-3.777,7.355-4.644,11.399c-5.533,26.198-7.444,53.151-5.644,79.86c0.556,8.399,1.8,17.487,7.755,23.443&#10;&#9;&#9;c6.888,6.933,17.732,7.444,27.487,7.51c144.366,1.111,288.754,1.622,433.12,1.489c-1.089,5.777-2.155,11.555-3.244,17.332&#10;&#9;&#9;c-60.751-0.444-121.523-0.889-182.274-1.333c-73.172-0.533-146.41-1.067-219.515,2.444c-33.064,1.6-59.24,0.533-72.994-32.508&#10;&#9;&#9;c-13.132-31.531-17.487-75.438,0.755-105.947c11.088-18.532,25.687-29.042,47.218-30.753c14.377-1.155,28.775,0,43.174,0.222&#10;&#9;&#9;c33.219,0.489,66.461,0.311,99.681,0c47.596-0.467,95.192-1.244,142.811-0.778c54.351,0.511,108.636,2.244,162.92,5.311&#10;&#9;&#9;c25.353,1.444,50.729,2.933,76.105,4.111C934.784,621.839,943.961,622.417,953.115,622.661z" style="fill: rgb(255, 220, 101);"/>
	<path fill="#08736D" d="M940.094,933.747c2.022,13.932,6.911,29.998,1.378,42.174c-10.355,0-20.709,0-31.042-0.022&#10;&#9;&#9;c2.155-5.866,3.133-12.488,3.8-17.621c1.111-8.444,0.8-16.954-1.778-24.531C921.651,933.747,930.873,933.747,940.094,933.747z" style="fill: rgb(52, 73, 85);"/>
	<path fill="#8CC8BE" d="M890.054,933.747c2.6,11.732,2.533,22.198-1.955,34.531c-0.978,2.666-1.867,4.933-2.178,7.622&#10;&#9;&#9;c-28.575,0-57.151,0-85.704,0.044c-56.218,0.089-112.457,0.178-168.675,0.311c3.311-13.821,2.667-29.22-2.111-42.508&#10;&#9;&#9;C716.313,933.747,803.194,933.747,890.054,933.747z" style="fill: rgb(130, 171, 191);"/>
	<path fill="#D36448" d="M855.501,272.979c-0.6,1.978-1.244,3.911-2.044,5.666c-3.622,7.91-8.599,17.265-15.377,22.931&#10;&#9;&#9;c-8.666,7.266-22.465,3.355-32.508,1.178c-11.044-2.4-22.109-4.8-33.486-4.222c-14.199,0.711-28.109,4.355-42.285,5.044&#10;&#9;&#9;c-2.555,0.111-8.555,0.778-10.11-0.978c-2.222-2.555-1.311-7.977,0.156-12.954c32.197-14.11,66.572-22.287,100.258-20.932&#10;&#9;&#9;C831.681,269.179,843.591,270.623,855.501,272.979z" style="fill: rgb(193, 123, 0);"/>
	<path fill="#280412" d="M838.991,678.39c6.333,2.2,6.866,11.421,0,13.399c-14.421,4.177-30.975,2.067-45.863,1.911&#10;&#9;&#9;c-12.932-0.111-25.887-0.267-38.819-0.178c-27.153,0.156-54.307,2.178-81.46,1.444c-24.865-0.644-49.618-2.822-74.438-4.089&#10;&#9;&#9;c-29.82-1.489-60.751,1.422-90.304-2.466c-5.355-0.689-7.066-8.022-1.333-9.799c28.731-8.866,61.884-7.266,91.637-6.644&#10;&#9;&#9;c24.331,0.533,48.641,2.2,72.994,2.644c27.642,0.511,55.262-1.311,82.904-1.267c12.955,0.022,25.887,0.289,38.819,0.755&#10;&#9;&#9;C807.95,674.635,824.859,673.457,838.991,678.39z"/>
	<path fill="#280412" d="M814.482,864.441c11.91,0.067,11.888,18.354,0,18.487c-20.865,0.244-41.73,1.467-62.55,2.822&#10;&#9;&#9;c-9.444,0.622-18.51,1.533-27.909-0.156c-4.577-0.822-9.799-1.467-14.243-2.8c-1.644-0.489-3.155-1.467-4.689-2.355&#10;&#9;&#9;c-1.044,1.289-2.044,2.689-3.333,3.578c-2.089,1.444-4.333,2.089-6.755,2.689c-5.577,1.4-11.532,1.955-17.221,1.222&#10;&#9;&#9;c-5.933-0.778-10.777-3.111-14.554-6.599c-7.244,9.266-16.132,15.221-30.62,9.821c-4.666-1.755-8.133-4.422-10.621-7.666&#10;&#9;&#9;c-8.688,7.644-19.554,11.643-31.353,6.022c-3.489-1.644-6.577-4.111-9.244-7.088c-5.799,4.511-12.91,6.755-21.22,4.866&#10;&#9;&#9;c-6.488-1.489-4.911-11.466,1.533-11.399c4.888,0.044,8.866-2.622,12.021-6.333c-4.333-11.466-4.177-24.931,2.4-34.264&#10;&#9;&#9;c3.844-5.444,10.71-8.91,16.999-5.111c7.266,4.4,6.733,14.688,5.266,21.865c-1.089,5.355-3.044,11.088-5.799,16.332&#10;&#9;&#9;c3.155,4.089,7.666,6.377,13.243,3.955c6.177-2.689,10.51-9.466,13.688-15.91c0.711-1.911,1.578-3.8,2.578-5.6&#10;&#9;&#9;c6.111-10.888,21.265-1.311,16.376,9.577c-0.244,0.578-0.533,1.155-0.8,1.755c-2.133,5.266-2.733,13.621,6.044,11.732&#10;&#9;&#9;c5.688-1.222,8.866-11.466,11.577-15.932c4.289-7.111,15.688-5.911,17.865,2.333c1.533,5.8,3.266,8.066,9.244,8.355&#10;&#9;&#9;c6.155,0.311,7.822-2.178,11.999-5.711c9.288-7.844,18.287,0.2,27.909,2.155c15.154,3.089,30.22,0.867,45.574,0.067&#10;&#9;&#9;C783.396,864.352,798.928,864.352,814.482,864.441z"/>
	<path fill="#280412" d="M785.818,346.017c13.332,9.177,14.51,26.42,5.333,39.019c-11.755,16.132-26.887,16.332-44.952,16.376&#10;&#9;&#9;c-4.711,0-9.421,0.6-14.11,0.2c-15.465-1.333-23.754-16.71-16.665-30.442c6.022-11.666,18.132-20.176,28.775-27.287&#10;&#9;&#9;C755.998,336.018,774.263,338.062,785.818,346.017z M775.752,369.371c0.533-2.089,0.667-3.555-2.066-5.177&#10;&#9;&#9;c-2.422-1.422-5.355-2.378-8.222-2.511c-25.642-1.022-36.486,17.887-22.576,22.576c4.111,1.378,9.11,1.133,13.288,0.378&#10;&#9;&#9;C764.531,383.103,773.486,378.148,775.752,369.371z"/>
	<path fill="#280412" d="M778.041,710.432c4.822,1.022,4.8,8.71,0,9.733c-14.754,3.155-30.242,2.822-45.307,3.266&#10;&#9;&#9;c-14.621,0.444-29.242,0.867-43.863,1.178c-30.731,0.6-61.417,0.956-92.148-0.156c-8.71-0.311-8.688-13.177,0-13.51&#10;&#9;&#9;c30.709-1.155,61.417-2.022,92.148-2.622C717.779,707.743,749.621,704.41,778.041,710.432z"/>
	<path fill="#D36448" d="M773.686,364.193c2.733,1.622,2.6,3.089,2.066,5.177c-2.266,8.777-11.221,13.732-19.576,15.265&#10;&#9;&#9;c-4.177,0.755-9.177,1-13.288-0.378c-13.91-4.689-3.066-23.598,22.576-22.576C768.331,361.816,771.264,362.771,773.686,364.193z" style="fill: rgb(193, 123, 0);"/>
	<path fill="#08736D" d="M608.277,933.725c2.8,14.221,4.866,29.375-1.444,42.596c-9.955,0.022-19.932,0.067-29.886,0.089&#10;&#9;&#9;c2.133-13.399,2.889-30.109-1.6-42.73C586.323,933.702,597.3,933.725,608.277,933.725z" style="fill: rgb(52, 73, 85);"/>
	<path fill="#280412" d="M586.123,437.898c2.2,14.377-18.287,23.131-28.953,26.576c-11.955,3.866-25.242,6.222-36.419-0.2&#10;&#9;&#9;c-5.111-2.933-3.777-10.488,1.578-12.177c12.577-3.955,26.331-4.311,38.041-11.177&#10;&#9;&#9;C566.414,437.387,583.701,422.011,586.123,437.898z"/>
	<path fill="#D36448" d="M580.679,270.245c-0.289,4.044-0.378,8.444-0.6,9.866c-1.244,7.888-2.578,15.799-3.533,23.731&#10;&#9;&#9;c-7.155-3.466-14.577-6.466-22.22-9.066C563.214,286.8,571.258,277.445,580.679,270.245z" style="fill: rgb(193, 123, 0);"/>
	<path fill="#08736D" d="M551.259,933.858c5.644,2.489,5.333,42.619,2.266,42.619c-16.621,0.044-33.242,0.089-49.863,0.156&#10;&#9;&#9;c1.022-7.399,0.311-15.665-0.333-21.665c-0.8-7.399-2.889-14.221-4.689-21.332c15.554-2.178,32.82,0.244,48.618-0.244&#10;&#9;&#9;C548.615,933.347,550.015,933.302,551.259,933.858z" style="fill: rgb(52, 73, 85);"/>
	<path fill="#D36448" d="M517.884,850.998c1.355,21.709,0.156,42.93-5.888,63.684c-9.399,0.022-18.776,0.022-28.175,0.067&#10;&#9;&#9;c-3.511,0-6.999,0.022-10.51,0.022c1.889-21.22,1.955-42.596,0.156-63.839c-1.578-18.576-4.244-38.508-11.866-55.929&#10;&#9;&#9;c14.777-0.511,29.575-0.911,44.374-1.111c1.8,6.622,4.822,13.199,6.355,19.687C515.24,825.889,517.107,838.377,517.884,850.998z" style="fill: rgb(193, 123, 0);"/>
	<path fill="#8CC8BE" d="M480.998,941.991c2.222,9.444,2.244,19.665,1.133,29.264c-0.2,1.733-0.511,3.6-0.822,5.444&#10;&#9;&#9;c-0.6,0-1.2,0-1.8,0c-29.331,0.133-58.662,0.244-87.993,0.378c-12.799,0.044-25.598-0.333-38.397-0.4&#10;&#9;&#9;c-9.71-0.044-19.332,1.355-29.042,1.378c-6.444,0.022-8.244,1.067-8.377-5.244c-0.111-4.822,1.111-9.399,0.489-14.288&#10;&#9;&#9;c-0.844-6.799-2.644-13.643-2.133-20.532c1.044-13.799,19.976-5.511,28.287-5.377c13.754,0.244,27.487,0.378,41.263,0.422&#10;&#9;&#9;c11.355,0.044,22.731,0.111,34.086,0.156c13.888,0.044,27.82,1.022,41.708,0.711C467.533,933.747,478.532,931.591,480.998,941.991z&#10;&#9;&#9;" style="fill: rgb(130, 171, 191);"/>
	<path fill="#280412" d="M480.199,495.249c11.399-1.4-0.889,25.665-5.555,28.109c-4.644,2.422-21.065-8.133-23.487-12.443&#10;&#9;&#9;c-2.311-4.177-1.8-8.466,5.688-10.955C464.422,497.427,472.288,496.249,480.199,495.249z"/>
	<path fill="#D36448" d="M450.223,855.398c0.267,5.066,1.244,59.484-1.378,59.484c-18.132,0.067-36.241,0.111-54.373,0.2&#10;&#9;&#9;c-14.488,0.067-28.975,0.044-43.463,0.311c-12.243,0.222-23.865,1.267-35.753,2.6c0.333-34.442-0.2-68.95-0.089-103.325&#10;&#9;&#9;c0.022-5.311,0.022-10.621,0.022-15.932c11.866-0.089,23.731-0.267,35.597-0.4c17.399-0.222,34.464-1.822,51.796-1.089&#10;&#9;&#9;c12.688,0.533,25.376-1.2,38.086-1.422c0.8-0.022,1.711,0.022,2.244,0.622c0.333,0.4,0.444,0.933,0.511,1.466&#10;&#9;&#9;C446.468,817.001,449.179,836.066,450.223,855.398z M429.803,846.532c5.111-5.355,2.4-13.11-4.089-15.51&#10;&#9;&#9;c-7.155-2.644-14.799-3.977-22.02-6.266c4.333-1.911,8.733-3.644,12.777-6.333c4.111-2.755,3.155-8.333-1.311-9.999&#10;&#9;&#9;c-12.666-4.755-26.264,3.133-35.73,11.11c-3.311,2.778-3.511,9.599,0,12.31c6.088,4.755,12.755,7.577,19.643,9.91&#10;&#9;&#9;c-7.955,2.533-16.199,4.6-23.22,9.155c-5.844,3.8-6.822,13.332,0,16.888c4.222,2.2,8.71,3.777,13.243,5.244&#10;&#9;&#9;c-3.866,1.733-7.599,3.711-11.11,6.288c-4.711,3.489-7.599,11.377-2.044,15.932c6.911,5.688,14.154,10.555,23.087,12.155&#10;&#9;&#9;c12.466,2.266,17.843-15.199,5.822-19.287c5.4-2.155,10.932-4.044,16.221-6.355c7.177-3.133,5.822-13.71,0-17.221&#10;&#9;&#9;c-4.266-2.6-8.822-4.355-13.488-5.888C415.693,855.975,423.603,852.976,429.803,846.532z" style="fill: rgb(193, 123, 0);"/>
	<path fill="#280412" d="M425.714,831.022c6.488,2.4,9.199,10.155,4.089,15.51c-6.199,6.444-14.11,9.444-22.22,12.132&#10;&#9;&#9;c4.666,1.533,9.221,3.289,13.488,5.888c5.822,3.511,7.177,14.088,0,17.221c-5.288,2.311-10.821,4.2-16.221,6.355&#10;&#9;&#9;c12.021,4.089,6.644,21.554-5.822,19.287c-8.933-1.6-16.176-6.466-23.087-12.155c-5.555-4.555-2.666-12.443,2.044-15.932&#10;&#9;&#9;c3.511-2.578,7.244-4.555,11.11-6.288c-4.533-1.467-9.021-3.044-13.243-5.244c-6.822-3.555-5.844-13.088,0-16.888&#10;&#9;&#9;c7.022-4.555,15.265-6.622,23.22-9.155c-6.888-2.333-13.554-5.155-19.643-9.91c-3.511-2.711-3.311-9.533,0-12.31&#10;&#9;&#9;c9.466-7.977,23.065-15.865,35.73-11.11c4.466,1.667,5.422,7.244,1.311,9.999c-4.044,2.689-8.444,4.422-12.777,6.333&#10;&#9;&#9;C410.915,827.044,418.559,828.378,425.714,831.022z"/>
	<path fill="#280412" d="M421.359,470.474c2.666,1.711,3.444,4.888,2,7.688c-11.821,22.998-56.573,5.733-70.017-7.266&#10;&#9;&#9;c-4.377-4.222-1.244-12.977,5.177-12.51c11.066,0.8,19.598,11.11,30.398,13.199C398.894,473.518,412.515,464.807,421.359,470.474z"/>
	<g>
		<path fill="#FAF6ED" d="M1086.216,652.214c-0.4,8.71-1.267,17.399-2.289,26.065c-6.377-0.578-13.066-0.044-19.132-0.067&#10;&#9;&#9;&#9;c-12.421-0.044-24.865-0.2-37.286-0.133c-11.866,0.089-23.709,0.222-35.553,0.511c-6.377,0.178-12.932,0.156-19.31,0.911&#10;&#9;&#9;&#9;c3.733-2.311,7.488-4.511,11.199-6.644c12.532-7.266,25.353-14.332,37.419-22.176c11.177,1.422,22.665,1.222,33.864,1.422&#10;&#9;&#9;&#9;c4.489,0.089,24.265,1.644,27.731-0.4C1084.038,651.836,1085.149,651.992,1086.216,652.214z"/>
		<path fill="#FAF6ED" d="M1081.416,698.033c-0.6,4.6-1.178,9.177-1.689,13.754c-0.311,2.8-0.8,5.955-1.244,9.266&#10;&#9;&#9;&#9;c-12.51-5.888-69.372-6.044-81.66,0.4c-2.578,1.355-2.622,5.555,0,6.888c10.977,5.555,23.443,5,35.419,5.111&#10;&#9;&#9;&#9;c4.377,0.044,43.819-0.556,43.819-0.556l1.355,7.044c0,0-44.219,1.778-65.417,2.266c-26.687,0.644-53.396,0.533-80.082,1.022&#10;&#9;&#9;&#9;c-0.889-13.554,1.911-26.664,10.244-37.908c4.177-5.622,9.221-10.51,14.732-14.91c0.378,0.533,0.844,1.022,1.467,1.311&#10;&#9;&#9;&#9;c9.71,4.6,20.932,4.688,31.509,5.311c12.532,0.733,25.087,1.155,37.641,1.4c11.755,0.244,23.487,0.089,35.241-0.111&#10;&#9;&#9;&#9;C1068.506,698.233,1075.083,698.588,1081.416,698.033z"/>
		<path fill="#FAF6ED" d="M1057.174,548.978c4.066,16.799-1.489,34.064-10.532,48.263c-18.443,28.975-51.218,42.552-79.549,59.617&#10;&#9;&#9;&#9;c-26.509,15.977-52.129,36.775-56.573,69.283c-4.022,29.375,8.51,57.551,16.888,85.06c6.533,21.487,13.488,54.329-13.332,67.283&#10;&#9;&#9;&#9;c-26.909,12.977-49.174-4.577-57.129-27.798c-10.577-30.864-9.688-67.706,2.378-97.97c12.243-30.686,35.997-54.84,60.862-75.749&#10;&#9;&#9;&#9;c29.442-24.776,65.639-44.196,90.793-73.616c17.865-20.887,16.71-43.441-4-61.595c-5.288-4.666-14.932,1.467-10.377,7.999&#10;&#9;&#9;&#9;c5.444,7.844,11.399,17.31,7.222,26.953c-5.555,12.866-20.021,22.954-30.775,31.153c-14.554,0.689-29.131-0.267-43.752-0.933&#10;&#9;&#9;&#9;c-23.576-1.067-47.152-2.422-70.728-3.777c-19.221-1.089-38.464-2-57.684-2.822c0.622-1.4,1.289-2.778,1.889-3.933&#10;&#9;&#9;&#9;c0.867-1.733,2.244-4.222,3.066-5.355c0.111-0.156,1.178-1.267,1.178-1.355c0.978-0.755,2.155-1.378,3-2.355&#10;&#9;&#9;&#9;c4.977-5.644,1.711-14.954-6.244-15.065c-8.844-0.133-13.977,10.444-16.599,17.554c-1.155,3.066-1.955,6.466-2.044,9.821&#10;&#9;&#9;&#9;c-6.866-0.244-13.754-0.444-20.621-0.689c0-4.311,3.133-10.044,4.844-12.843c3.533-5.8,12.288-11.555,5.533-18.71&#10;&#9;&#9;&#9;c-1.889-2.022-5.6-3.244-8.266-2.2c-10.199,4.044-19.287,20.354-18.421,33.242c-4.266-0.111-8.51-0.2-12.755-0.311&#10;&#9;&#9;&#9;c1.067-11.021,0.511-22.02,7.599-31.797c6.422-8.866,16.532-12.999,26.865-15.377c21.021-4.822,42.841-1.711,64.106-0.578&#10;&#9;&#9;&#9;c8.444,0.467,15.11-10.421,10.088-17.576c-20.087-28.62-44.774-64.506-19.887-98.125c8.866-11.977,21.732-21.687,35.33-27.687&#10;&#9;&#9;&#9;c7.577-3.355,15.865-5.644,24.176-5.977c8.266-0.356,16.288,3.333,24.354,2.355c8.555-1.044,13.266-10.199,7.066-17.087&#10;&#9;&#9;&#9;c-13.11-14.577-42.752-9.31-58.862-3.289c-19.465,7.311-37.152,19.887-49.907,36.375c-13.354,17.243-18.998,38.752-15.443,60.328&#10;&#9;&#9;&#9;c2.755,16.821,10.666,32.02,19.954,46.241c-18.599-0.755-37.397-0.489-54.884,6.088c-13.354,5.022-25.42,13.466-32.308,26.265&#10;&#9;&#9;&#9;c-5.911,11.044-8.91,26.309-6.466,39.486c-3.644-0.067-7.244-0.178-10.888-0.222c-26.242-0.378-52.507-0.467-78.749-0.489&#10;&#9;&#9;&#9;c0.244-9.644,0.533-22.331,6.866-27.198c10.999-8.444-2.089-24.465-11.421-14.821c-11.021,11.377-12.71,26.953-11.244,42.041&#10;&#9;&#9;&#9;c-9.133,0-18.265,0.022-27.376,0.067c0.933-13.354,0.822-25.776,13.554-34.819c7.711-5.466,3-16.732-6.355-15.065&#10;&#9;&#9;&#9;c-20.221,3.622-28.198,30.109-26.62,49.951c-6.044,0.044-12.088,0.067-18.132,0.089c-6.822-8.688-14.799-18.643-10.088-30.042&#10;&#9;&#9;&#9;c4.933-11.866,18.532-19.621,29.487-24.887c13.977-6.688,29.886-10.777,45.352-11.777c7.266-0.489,14.621-0.333,21.865,0.622&#10;&#9;&#9;&#9;c7.444,1.022,14.821,4.289,22.243,1.8c3.8-1.289,6.511-5.222,5.288-9.333c-0.111-0.156-0.2-0.333-0.289-0.511&#10;&#9;&#9;&#9;c-0.311-2.311-13.11-13.31-19.465-14.91c2.733-4.488,4.977-9.177,6.711-13.354c7.066-16.932,10.221-35.419,11.332-53.662&#10;&#9;&#9;&#9;c2.067-33.575-7.377-67.239-27.731-93.881c20.509-18.687,44.574-35.775,70.528-49.24c-1.978,10.133,0.467,19.754,13.221,24.398&#10;&#9;&#9;&#9;c17.221,6.266,37.153-0.444,54.751-1.355c27.753-1.422,60.551,19.598,84.504-3.111c7.444-7.066,20.687-24.154,24.554-39.241&#10;&#9;&#9;&#9;c47.063,14.066,91.77,42.241,116.924,82.238c12.177,19.332,19.998,41.774,25.042,63.95c2.689,11.888,4.377,23.976,4.866,36.153&#10;&#9;&#9;&#9;c0.333,8.666,2.133,21.576-1.044,29.575c-0.911,2.244-2.4,4.244-2.933,6.599c-2.222,9.844,12.999,17.043,18.621,22.865&#10;&#9;&#9;&#9;C1048.396,528.269,1054.507,538.001,1057.174,548.978z M791.151,385.036c9.177-12.599,7.999-29.842-5.333-39.019&#10;&#9;&#9;&#9;c-11.555-7.955-29.82-9.999-41.619-2.133c-10.644,7.111-22.754,15.621-28.775,27.287c-7.088,13.732,1.2,29.109,16.665,30.442&#10;&#9;&#9;&#9;c4.689,0.4,9.399-0.2,14.11-0.2C764.264,401.368,779.396,401.168,791.151,385.036z"/>
		<path fill="#FAF6ED" d="M910.986,654.17c-9.688,7.733-19.065,15.799-27.931,24.554c-19.087,18.776-35.553,40.73-45.552,65.55&#10;&#9;&#9;&#9;c-2.444-0.2-5.022-0.178-7.733-0.2c-9.799-0.067-19.598,0-29.398,0.022c-19.754,0-39.53,0-59.284,0.022&#10;&#9;&#9;&#9;c-40.663,0.022-81.327,0.156-121.99,0.244c-39.974,0.089-79.949,0.267-119.946,0.467c-19.798,0.089-39.597,0.089-59.395,0.356&#10;&#9;&#9;&#9;c-18.976,0.267-38.797-0.978-57.529,2.422c-2.733-2.4-3.022-15.888-2.4-30.62c21.709,5.311,44.974,4.911,67.083,4.777&#10;&#9;&#9;&#9;c13.288-0.089,26.531-0.378,39.797-0.956c12.043-0.511,24.842-0.644,35.975-5.577c3.577-1.6,3.6-7.888,0-9.466&#10;&#9;&#9;&#9;c-21.62-9.488-50.64-4.466-73.661-4.111c-22.731,0.356-45.596-1.111-68.306-0.244c0.889-12.466,2-23.198,2.289-25.687&#10;&#9;&#9;&#9;c0.667-5.755,1.422-11.488,2.244-17.221c0.2-1.422,0.178-5.133,1.155-6.044c1.844-1.755,14.066,0.111,17.176,0.111&#10;&#9;&#9;&#9;c23.443,0.067,46.885,0.133,70.328,0.2c100.858,0.333,201.739,1.222,302.597,1.533&#10;&#9;&#9;&#9;C821.237,654.436,866.211,655.303,910.986,654.17z M838.991,691.789c6.866-1.978,6.333-11.199,0-13.399&#10;&#9;&#9;&#9;c-14.132-4.933-31.042-3.755-45.863-4.289c-12.932-0.467-25.865-0.733-38.819-0.755c-27.642-0.044-55.262,1.778-82.904,1.267&#10;&#9;&#9;&#9;c-24.354-0.444-48.663-2.111-72.994-2.644c-29.753-0.622-62.906-2.222-91.637,6.644c-5.733,1.778-4.022,9.11,1.333,9.799&#10;&#9;&#9;&#9;c29.553,3.889,60.484,0.978,90.304,2.466c24.82,1.267,49.574,3.444,74.438,4.089c27.153,0.733,54.307-1.289,81.46-1.444&#10;&#9;&#9;&#9;c12.932-0.089,25.887,0.067,38.819,0.178C808.016,693.855,824.57,695.966,838.991,691.789z M778.041,720.164&#10;&#9;&#9;&#9;c4.8-1.022,4.822-8.71,0-9.733c-28.42-6.022-60.262-2.689-89.17-2.111c-30.731,0.6-61.439,1.467-92.148,2.622&#10;&#9;&#9;&#9;c-8.688,0.333-8.71,13.199,0,13.51c30.731,1.111,61.417,0.755,92.148,0.156c14.621-0.311,29.242-0.733,43.863-1.178&#10;&#9;&#9;&#9;C747.799,722.986,763.286,723.32,778.041,720.164z"/>
		<path fill="#FAF6ED" d="M635.341,422.789c0.933,17.176-0.889,34.73-5.533,51.307c-2.155,7.777-5.022,15.265-9.266,22.154&#10;&#9;&#9;&#9;c-2.644,4.266-6.199,7.488-9.666,10.821c-3.2,0.333-6.244,0.711-9.044,1.111c-19.332,2.778-38.752,9.11-55.418,19.376&#10;&#9;&#9;&#9;c-5.377,3.333-10.71,7.244-15.421,11.777c-18.376,6.599-37.552,9.244-56.706,12.488c-11.977-12.821-28.753-20.998-45.818-24.42&#10;&#9;&#9;&#9;c-22.109-4.422-44.107-0.133-64.75,8.177c-0.933,0.356-1.844,0.755-2.778,1.155c-21.976-7.222-35.908-27.798-45.374-48.685&#10;&#9;&#9;&#9;c0.044-41.53,0.111-83.038,0.133-124.568c7.755-9.733,14.799-19.71,25.265-27.62c14.021-10.577,30.397-17.421,47.129-22.354&#10;&#9;&#9;&#9;c33.775-9.977,69.817-12.132,104.769-9.155c34.331,2.933,69.972,12.266,97.681,33.575&#10;&#9;&#9;&#9;C616.898,358.194,633.542,389.502,635.341,422.789z M557.17,464.474c10.666-3.444,31.153-12.199,28.953-26.576&#10;&#9;&#9;&#9;c-2.422-15.888-19.71-0.511-25.753,3.022c-11.71,6.866-25.465,7.222-38.041,11.177c-5.355,1.689-6.688,9.244-1.578,12.177&#10;&#9;&#9;&#9;C531.928,470.696,545.215,468.34,557.17,464.474z M474.643,523.358c4.666-2.444,16.954-29.509,5.555-28.109&#10;&#9;&#9;&#9;c-7.91,1-15.776,2.178-23.354,4.711c-7.488,2.489-7.999,6.777-5.688,10.955C453.578,515.225,469.999,525.78,474.643,523.358z&#10;&#9;&#9;&#9; M423.359,478.162c1.444-2.8,0.667-5.977-2-7.688c-8.844-5.666-22.465,3.044-32.442,1.111&#10;&#9;&#9;&#9;c-10.799-2.089-19.332-12.399-30.398-13.199c-6.422-0.467-9.555,8.288-5.177,12.51&#10;&#9;&#9;&#9;C366.786,483.895,411.537,501.16,423.359,478.162z"/>
		<path fill="#FAF6ED" d="M617.632,275.512c0.644,12.843,0.956,26.309-2.289,38.863c-0.978,3.777-2.2,8.155-4.711,11.266&#10;&#9;&#9;&#9;c-5.4-4.533-11.11-8.688-17.088-12.466c1.089-14.865,4.466-29.42,5.577-44.285c0.711-9.488-1.444-23.065-14.266-20.487&#10;&#9;&#9;&#9;c-10.044,2.022-19.465,12.91-26.531,19.598c-7.288,6.888-15.177,13.843-21.909,21.554c-2.8-0.689-5.644-1.333-8.488-1.933&#10;&#9;&#9;&#9;c12.555-11.355,23.82-25.176,35.575-36.308c14.354-13.577,29.531-26.242,46.285-36.597&#10;&#9;&#9;&#9;C613.343,234.848,616.587,255.024,617.632,275.512z"/>
		<path fill="#FAF6ED" d="M522.928,597.441c-10.799,0.089-21.576,0.156-32.375,0.2c1.533-8.977-0.978-19.687-4.689-28.287&#10;&#9;&#9;&#9;c5.777-0.267,11.532-0.911,17.487-1.822c3.933-0.578,7.977-1.222,12.043-2C513.04,576.976,516.329,588.308,522.928,597.441z"/>
		<path fill="#FAF6ED" d="M466.666,586.908c0.333,2.333,0.267,4.711,0.222,7.066c-0.156,0.578-0.378,1.378-0.711,2.466&#10;&#9;&#9;&#9;c-0.133,0.4-0.178,0.778-0.289,1.178c-4.111-0.022-8.222-0.022-12.332-0.067c-6.177-0.089-12.377-0.2-18.576-0.267&#10;&#9;&#9;&#9;c0.955-3.8,1.267-7.777,1.244-11.732c-0.044-6.422-0.467-15.576-6.777-19.021c-4.177-2.266-9.555-0.289-10.844,4.422&#10;&#9;&#9;&#9;c-1.4,5.066,1.444,10.31,1.578,15.532c0.089,3.6-0.244,7.244-0.622,10.866c-6.288,0.133-12.577,0.444-18.843,1.044&#10;&#9;&#9;&#9;c-2.222,0.222-4.422,0.489-6.599,0.778c1.044-9.199,0.044-19.176,0.178-27.864c0.156-11.044-17.31-11.044-17.154,0&#10;&#9;&#9;&#9;c0.133,9.733-1.111,21.021,0.667,31.086c-6.799,1.822-13.266,4.222-19.221,7.333c-0.022,0-0.044,0-0.067-0.022&#10;&#9;&#9;&#9;c-22.843-2.578-26.265-28.864-10.355-42.708c4.289-3.733,9.355-6.999,14.843-9.777c1.844-0.244,3.444-1.067,4.733-2.244&#10;&#9;&#9;&#9;c12.066-5.244,25.62-8.177,37.597-8.177c17.487,0,37.197,5.977,49.885,18.398C461.222,571.065,465.533,578.509,466.666,586.908z"/>
		<path fill="#FAF6ED" d="M406.627,288.155c-4.155,0.822-8.266,1.733-12.266,2.711c-3.489-3.289-7.422-6.244-10.51-9.844&#10;&#9;&#9;&#9;c-4.8-5.533-8.733-11.755-12.977-17.71c-5.266-7.355-13.51-15.088-20.398-4.289c-6.222,9.755-8.844,23.176-11.91,34.153&#10;&#9;&#9;&#9;c-2.2,7.777-5.466,16.71-6.088,25.309c-3.4,2.533-6.911,5.422-10.31,8.555c0.778-15.599,0.533-31.42,3.311-46.73&#10;&#9;&#9;&#9;c3.689-20.376,11.088-38.975,23.709-54.751C364.452,249.403,389.695,265.557,406.627,288.155z"/>
	</g>
	<path fill="#D36448" d="M367.23,288.666c2,2.622,4.177,5.533,6.599,8.288c-7.999,2.844-15.799,6.222-23.265,10.199&#10;&#9;&#9;c0.8-2.889,1.622-5.777,2.489-8.666c1.933-6.288,3.955-12.577,6.199-18.776c0.222-0.578,0.444-1.178,0.644-1.755&#10;&#9;&#9;C362.208,281.622,364.608,285.2,367.23,288.666z" style="fill: rgb(193, 123, 0);"/>
	<path fill="#8CC8BE" d="M292.036,952.812c0.356,10.244,0.822,20.487,1.444,30.709c-15.088,7.022-34.175,6.711-50.151,5.688&#10;&#9;&#9;c-16.199-1.044-32.375-3.911-47.863-8.866c0.067-8.533,0.2-17.065,0.356-25.598c3.644,0.644,7.311,1.044,10.732,1.422&#10;&#9;&#9;c13.688,1.533,27.553,1.822,41.308,1.466c13.088-0.333,26.242-1.378,39.108-3.822C288.592,953.501,290.303,953.19,292.036,952.812z&#10;&#9;&#9;" style="fill: rgb(130, 171, 191);"/>
	<path fill="#08736D" d="M291.458,800.335c0.022,30.131-0.378,60.373-0.356,90.615c-16.865,3.111-33.731,4.866-50.996,5.022&#10;&#9;&#9;c-14.132,0.133-28.731-1.378-42.996-1c0.533-24.865,0.978-49.729,0.889-74.616c-0.133-31.242-0.533-62.484-0.933-93.726&#10;&#9;&#9;c15.599,2.444,31.264,3.489,47.241,3.711c15.532,0.2,31.553,0.089,47.063-2.422C291.392,752.05,291.414,776.204,291.458,800.335z&#10;&#9;&#9; M274.793,877.685c1.578-34.175,1-68.372-0.467-102.525c-0.289-6.955-54.351-6.577-55.307-3.644&#10;&#9;&#9;c-5.955,18.576-5.244,40.486-5.977,59.795c-0.533,14.377-0.933,28.775-1.444,43.174c-0.156,4.355,3.577,10.199,8.244,10.844&#10;&#9;&#9;c14.288,1.933,29.22,4.6,43.641,3.666C269.794,888.595,274.504,884.129,274.793,877.685z" style="fill: rgb(52, 73, 85);"/>
	<path fill="#8CC8BE" d="M291.303,679.723c0.022,9.577,0.022,19.154,0.044,28.753c-29.975,7.466-63.506,5.911-94.481,3.977&#10;&#9;&#9;c-0.133-11.221-0.289-22.443-0.422-33.664C227.33,684.145,260.261,684.7,291.303,679.723z" style="fill: rgb(130, 171, 191);"/>
	<path fill="#8CC8BE" d="M291.214,912.66c0.044,6.333,0.133,12.666,0.267,18.976c-3.6,1.133-7.177,2.355-10.844,3.044&#10;&#9;&#9;c-11.199,2.155-22.687,3.044-34.064,3.666c-11.866,0.622-23.82,0.778-35.686,0.044c-4.377-0.244-9.755-0.356-14.732-1.067&#10;&#9;&#9;c0.178-8.199,0.356-16.399,0.556-24.598c15.443,3.177,32.442,3.289,47.418,3.355C259.794,916.148,275.682,915.326,291.214,912.66z" style="fill: rgb(130, 171, 191);"/>
	<path fill="#8CC8BE" d="M291.281,647.548c0,4.222,0,8.466,0,12.688c-15.177,2.844-30.731,3.777-46.107,4.644&#10;&#9;&#9;c-16.021,0.889-32.664,1.667-48.907,1.044c-0.067-5.888-0.111-11.799-0.178-17.71c16.888,0.778,34.131-0.378,50.84-0.533&#10;&#9;&#9;c11.088-0.111,22.176-0.267,33.264-0.356C283.726,647.304,287.503,647.526,291.281,647.548z" style="fill: rgb(130, 171, 191);"/>
	<path fill="#08736D" d="M290.992,293.044c0.044,111.324,0.133,222.671,0.267,334.017c-3.755,0.133-7.51,0.489-11.066,0.622&#10;&#9;&#9;c-11.088,0.378-22.176,0.822-33.264,1.311c-16.865,0.711-34.064,0.555-50.996,1.755c-0.044-5.688-0.133-11.377-0.156-17.065&#10;&#9;&#9;c-0.556-90.837,3.666-181.607,6.022-272.4c0.467-17.643,0.955-35.308,1.311-52.996c15.643,3.666,32.62,3.933,48.063,4.577&#10;&#9;&#9;c11.532,0.511,23.131,0.156,34.642,0.067C287.459,292.91,289.214,292.977,290.992,293.044z M255.528,421.633&#10;&#9;&#9;c22.354-1.555,32.486-23.243,28.531-43.441c-1.933-9.866-7.111-19.221-14.799-25.753c-5.177-4.4-12.888-9.199-19.976-7.888&#10;&#9;&#9;c-1.778,0.333-3.444,1.067-5.2,1.4c-10.355,2.022-20.176,0.689-27.731,9.444c-6.777,7.866-9.044,18.954-7.177,29.02&#10;&#9;&#9;C213.198,406.057,233.174,423.166,255.528,421.633z" style="fill: rgb(52, 73, 85);"/>
	<path fill="#8CC8BE" d="M290.97,258.18c0,4.2,0,8.399,0,12.577c-0.889,0.044-1.778,0.089-2.622,0.111&#10;&#9;&#9;c-10.866,0.333-21.709,0.644-32.553,0.733c-17.621,0.133-34.975,0.178-52.396-1.489c0.044-4.777,0.089-9.555,0.111-14.31&#10;&#9;&#9;c13.688,2.489,28.309,2.422,41.708,2.578C260.439,258.535,275.726,258.469,290.97,258.18z" style="fill: rgb(130, 171, 191);"/>
	<path fill="#8CC8BE" d="M290.947,216.161c0,7.244,0.022,14.465,0.022,21.709c-14.688,0.4-29.42,1.6-44.108,1.8&#10;&#9;&#9;c-14.599,0.2-28.931-0.467-43.374-1.667c-0.044-6.333-0.133-12.666-0.267-19.021c14.91-0.178,29.798-0.667,44.707-1.178&#10;&#9;&#9;c10.266-0.333,20.532-0.689,30.797-0.889C283.792,216.805,287.637,216.161,290.947,216.161z" style="fill: rgb(130, 171, 191);"/>
	<path fill="#280412" d="M284.059,378.192c3.955,20.198-6.177,41.885-28.531,43.441c-22.354,1.533-42.33-15.576-46.352-37.219&#10;&#9;&#9;c-1.867-10.066,0.4-21.154,7.177-29.02c7.555-8.755,17.376-7.422,27.731-9.444c1.755-0.333,3.422-1.067,5.2-1.4&#10;&#9;&#9;c7.088-1.311,14.799,3.489,19.976,7.888C276.948,358.972,282.126,368.326,284.059,378.192z M255.484,400.324&#10;&#9;&#9;c9.355-2.222,9.355-14.599,6.799-22.02c0-9.11-15.532-19.798-24.065-16.754c-8.155,2.889-11.332,14.665-8.377,22.109&#10;&#9;&#9;C233.663,393.346,244.262,402.968,255.484,400.324z"/>
	<path fill="#280412" d="M274.326,775.16c1.467,34.153,2.044,68.35,0.467,102.525c-0.289,6.444-5,10.91-11.31,11.31&#10;&#9;&#9;c-14.421,0.933-29.353-1.733-43.641-3.666c-4.666-0.644-8.399-6.488-8.244-10.844c0.511-14.399,0.911-28.798,1.444-43.174&#10;&#9;&#9;c0.733-19.31,0.022-41.219,5.977-59.795C219.975,768.582,274.038,768.205,274.326,775.16z M252.706,866.375&#10;&#9;&#9;c1.222-27.398,1.133-54.84,0.4-82.26c-6.399-0.978-12.843-1.689-19.065-3.222c2.955,16.31,1.533,34.486,1.222,50.418&#10;&#9;&#9;c-0.2,11.132-0.556,22.287-0.889,33.442C240.463,865.486,246.595,866.13,252.706,866.375z"/>
	<path fill="#8CC8BE" d="M262.283,378.303c2.555,7.422,2.555,19.798-6.799,22.02c-11.221,2.644-21.82-6.977-25.642-16.665&#10;&#9;&#9;c-2.955-7.444,0.222-19.221,8.377-22.109C246.751,358.505,262.283,369.193,262.283,378.303z" style="fill: rgb(130, 171, 191);"/>
	<path fill="#8CC8BE" d="M253.106,784.115c0.733,27.42,0.822,54.862-0.4,82.26c-6.111-0.244-12.243-0.889-18.332-1.622&#10;&#9;&#9;c0.333-11.155,0.689-22.309,0.889-33.442c0.311-15.932,1.733-34.108-1.222-50.418C240.263,782.426,246.707,783.137,253.106,784.115&#10;&#9;&#9;z" style="fill: rgb(130, 171, 191);"/>
	<path fill="#D36448" d="M179.023,262.179c0,8.444-0.044,16.888-0.156,25.353c-16.688-2.911-34.575-2.533-50.907-1.844&#10;&#9;&#9;c-11.155,0.489-22.287,1.022-33.397,1.911c-5.511,0.422-11.555,0.467-17.443,1.111c0-7.533-0.022-15.065-0.067-22.598&#10;&#9;&#9;c2.555-0.578,5.111-1.155,7.666-1.733c9.044-2.066,18.621-0.956,27.909-1C134.582,263.29,157.047,264.224,179.023,262.179z" style="fill: rgb(193, 123, 0);"/>
	<path fill="#D36448" d="M178.534,308.509c-0.111,5.333-0.222,10.688-0.356,16.021c-33.22-3.066-68.283-3.666-100.992,2.444&#10;&#9;&#9;c0-7.177,0-14.377-0.022-21.554c5.844-0.133,11.777-0.867,17.399-1.133c10.399-0.511,20.865-1.155,31.286-0.978&#10;&#9;&#9;C143.804,303.62,161.025,306.087,178.534,308.509z" style="fill: rgb(193, 123, 0);"/>
	<path fill="#D36448" d="M177.579,345.684c-0.267,8.799-0.556,17.576-0.867,26.376c-17.487-0.422-34.975-0.289-52.485,0.133&#10;&#9;&#9;c-15.377,0.356-31.531-0.044-47.085,1.667c0.022-10.088,0.044-20.154,0.044-30.242C110.607,344.95,144.07,342.773,177.579,345.684z&#10;&#9;&#9;" style="fill: rgb(193, 123, 0);"/>
	<path fill="#FAC950" d="M128.627,424.566c-0.022,0.022-0.067,0.178-0.133,0.467c2.022-12.599-17.332-17.865-19.843-5.066&#10;&#9;&#9;c-1.933,9.955-1.244,20.643-1.2,30.709c0.067,18.043,0.444,36.064,0.8,54.107c0.711,37.219,3.955,74.238,2.933,111.48&#10;&#9;&#9;c-0.089,3.089-0.178,6.177-0.4,9.244c-0.111,1.644-0.467,4.466-0.467,4.711c0,0.022,0,0.022,0,0.022&#10;&#9;&#9;c-0.889,4.333-2,8.488-2.4,12.932c-0.711,8.066,1.067,18.176-3.533,25.265c-2.089,3.2-1.089,7.399,1.311,10.088&#10;&#9;&#9;c6.888,7.733-1.089,13.154-0.222,22.176c0.867,9.133,12.221,18.776,6.555,27.153c-2.266,3.378-0.933,7.466,1.333,10.288&#10;&#9;&#9;c1.867,2.333,3.266,4.888,3.889,7.622c-3.533-0.556-7.133-0.822-10.644-0.867c-6.799-0.089-9.999,7.133-7.288,12.71&#10;&#9;&#9;c5.355,10.977,17.732,18.798,27.887,9.755c5.355,3.755,8.422,9.621,6.333,18.154c-0.356,1.4-0.755,2.6-1.2,3.666&#10;&#9;&#9;c-7.111-5.466-16.021-8.777-25.865-9.288c-5.911-0.311-9.244,6.622-6.555,11.421c5.644,10.044,14.621,20.732,27.331,19.776&#10;&#9;&#9;c1.911-0.156,3.711-0.556,5.422-1.178c2.022,3.066,3.511,6.488,4.222,10.155c1.289,6.488,12.399,5.133,11.688-1.578&#10;&#9;&#9;c-0.644-6.111-2.489-11.666-5.244-16.576c2.289-2.866,4.066-6.177,5.288-9.577c3.622-10.266,2.444-21.998-3.733-31.064&#10;&#9;&#9;c-2.755-4.044-6.266-7.155-10.221-9.555c0.444-6.799-1.822-13.843-5.4-19.909c2.066-4.6,2.689-9.488,1.2-14.732&#10;&#9;&#9;c-1.667-5.888-7.977-11.866-8.155-17.91c-0.133-4.666,3.755-9.066,3.911-14.066c0.178-5.266-1.933-9.688-4.866-13.688&#10;&#9;&#9;c3.844-10.644,1.711-23.043,3.955-34.019c0.822-3.977,1.533-7.822,1.822-11.888c1.044-14.688,0.733-29.531,0.644-44.241&#10;&#9;&#9;c-0.111-20.376,1.333-40.663,0.978-61.128c-0.311-19.532-0.689-39.063-0.844-58.595c-0.067-8.155-0.111-16.332,0.044-24.509&#10;&#9;&#9;c0.044-2.8,0.089-5.622,0.244-8.422C128.294,427.122,128.627,424.833,128.627,424.566z M176.001,392.058&#10;&#9;&#9;c-0.911,25.087-1.867,50.174-2.622,75.216c-3.266,108.924-1.067,217.649-0.156,326.618c0.156,20.421-0.022,40.841-0.311,61.262&#10;&#9;&#9;c-11.288,1.622-22.509,3.222-33.931,3.955c-12.399,0.8-24.842,0.933-37.241,0.467c-9.733-0.378-19.51-1.644-29.264-2.111&#10;&#9;&#9;c0.711-47.418,1.155-94.837,1.755-142.255c1.244-94.748,2.333-189.473,2.733-284.221c0.044-13.488,0.089-26.976,0.133-40.486&#10;&#9;&#9;c15.643,1,31.664-0.044,47.129,0.067C141.515,390.702,158.758,391.124,176.001,392.058z" style="fill: rgb(255, 220, 101);"/>
	<path fill="#D36448" d="M172.579,876.818c-0.111,6.333-0.222,12.643-0.356,18.954c-15.488,2.533-30.842,5.088-46.663,5.622&#10;&#9;&#9;c-17.087,0.578-35.953-2.289-53.373-0.489c0-8.377,0.022-16.754,0.089-25.109c19.532,4.377,41.286,4.2,60.551,3.844&#10;&#9;&#9;c12.266-0.2,24.487-1.089,36.664-2.511C170.446,877.018,171.49,876.929,172.579,876.818z" style="fill: rgb(193, 123, 0);"/>
	<path fill="#D36448" d="M171.846,917.904c-0.156,8.622-0.267,17.243-0.378,25.865c-33.264,4.355-66.261,3.111-99.681,2.311&#10;&#9;&#9;c0.2-9.621,0.289-19.243,0.333-28.842c8.755,1.578,17.954,1.911,26.553,2.644c9.71,0.844,19.421,1.467,29.175,1.511&#10;&#9;&#9;C142.448,921.459,157.269,920.126,171.846,917.904z" style="fill: rgb(193, 123, 0);"/>
	<path fill="#D36448" d="M171.29,964.944c-0.022,5.777-0.022,11.532,0,17.31c-16.199,6.688-35.33,7.333-52.418,7.444&#10;&#9;&#9;c-11.377,0.044-22.687-0.511-33.931-2.311c-4.888-0.778-9.755-2.378-14.643-3.644c0.422-6.599,0.733-13.177,0.978-19.776&#10;&#9;&#9;C103.718,969.233,138.604,968.522,171.29,964.944z" style="fill: rgb(193, 123, 0);"/>
	<path fill="#280412" d="M128.494,425.033c0.067-0.289,0.111-0.444,0.133-0.467c0,0.267-0.333,2.555-0.422,4.044&#10;&#9;&#9;c-0.156,2.8-0.2,5.622-0.244,8.422c-0.156,8.177-0.111,16.354-0.044,24.509c0.156,19.532,0.533,39.063,0.844,58.595&#10;&#9;&#9;c0.356,20.465-1.089,40.752-0.978,61.128c0.089,14.71,0.4,29.553-0.644,44.241c-0.289,4.066-1,7.91-1.822,11.888&#10;&#9;&#9;c-2.244,10.977-0.111,23.376-3.955,34.019c2.933,4,5.044,8.422,4.866,13.688c-0.156,5-4.044,9.399-3.911,14.066&#10;&#9;&#9;c0.178,6.044,6.488,12.021,8.155,17.91c1.489,5.244,0.867,10.133-1.2,14.732c3.577,6.066,5.844,13.11,5.4,19.909&#10;&#9;&#9;c3.955,2.4,7.466,5.511,10.221,9.555c6.177,9.066,7.355,20.798,3.733,31.064c-1.222,3.4-3,6.711-5.288,9.577&#10;&#9;&#9;c2.755,4.911,4.6,10.466,5.244,16.576c0.711,6.711-10.399,8.066-11.688,1.578c-0.711-3.666-2.2-7.088-4.222-10.155&#10;&#9;&#9;c-1.711,0.622-3.511,1.022-5.422,1.178c-12.71,0.955-21.687-9.733-27.331-19.776c-2.689-4.8,0.644-11.732,6.555-11.421&#10;&#9;&#9;c9.844,0.511,18.754,3.822,25.865,9.288c0.444-1.067,0.844-2.266,1.2-3.666c2.089-8.533-0.978-14.399-6.333-18.154&#10;&#9;&#9;c-10.155,9.044-22.531,1.222-27.887-9.755c-2.711-5.577,0.489-12.799,7.288-12.71c3.511,0.044,7.111,0.311,10.644,0.867&#10;&#9;&#9;c-0.622-2.733-2.022-5.288-3.889-7.622c-2.266-2.822-3.6-6.911-1.333-10.288c5.666-8.377-5.688-18.021-6.555-27.153&#10;&#9;&#9;c-0.867-9.021,7.111-14.443,0.222-22.176c-2.4-2.689-3.4-6.888-1.311-10.088c4.6-7.088,2.822-17.199,3.533-25.265&#10;&#9;&#9;c0.4-4.444,1.511-8.599,2.4-12.932c0,0,0,0,0-0.022c0-0.244,0.356-3.066,0.467-4.711c0.222-3.066,0.311-6.155,0.4-9.244&#10;&#9;&#9;c1.022-37.241-2.222-74.261-2.933-111.48c-0.356-18.043-0.733-36.064-0.8-54.107c-0.044-10.066-0.733-20.754,1.2-30.709&#10;&#9;&#9;C111.162,407.168,130.516,412.434,128.494,425.033z"/>
</g>
</svg>