<svg version="1.1" id="Layer_1" xmlns="http://www.w3.org/2000/svg" xmlns:xlink="http://www.w3.org/1999/xlink"  x="0px" y="0px" viewBox="0 0 1200 1200" enable-background="new 0 0 1200 1200" xml:space="preserve" >
<g>
	<path fill="#6196A3" d="M1062.554,641.969c-3.901-31.682-6.965-63.985-14.736-95.012c-16.482-65.802-55.096-123.97-118.98-150.896&#10;&#9;&#9;c-30.266-12.756-64.19-19.525-97.094-19.538c-15.573-0.006-32.454,1.401-48.058,4.093c-26.289,3.68-50.562,14.216-67.431,36.371&#10;&#9;&#9;c-17.169,22.55-20.871,50.814-21.162,78.429c-0.327,31.222,0.484,62.473,1.04,93.688c0.996,55.997-11.72,130.479,37.628,169.658&#10;&#9;&#9;c25.177,19.989,55.706,25.506,87.132,27.006c29.776,1.421,59.311,3.518,89.036,5.766c49.476,3.741,144.449,5.691,157.805-57.142&#10;&#9;&#9;C1073.885,705.464,1066.121,670.93,1062.554,641.969z" style="fill: rgb(52, 73, 85);"/>
	<g>
		<path fill="#54D5E2" d="M863.674,404.721c15.007-7.3,11.805-30.193,5.357-42.598c-9.532-18.337-29.06-27.27-48.964-28.771&#10;&#9;&#9;&#9;c-19.645-1.481-43.656,2.205-60.378,13.351c-19.366,12.909-22.14,33.686-20.979,55.3c1.014,18.874,30.739,18.838,29.394,0&#10;&#9;&#9;&#9;c-0.907-12.708-1.071-25.038,11.516-31.601c10.286-5.364,25.515-6.027,36.766-5.365c12.669,0.746,25.999,4.059,30.992,16.887&#10;&#9;&#9;&#9;c3.376,8.674,0.73,15.61,8.519,21.793C858.321,405.642,860.855,406.093,863.674,404.721L863.674,404.721z" style="fill: rgb(74, 101, 114);"/>
	</g>
	<path fill="#F28D79" d="M1015.172,1042.79c-5.136,16.877-20.117,27.624-37.267,26.176c9.044-10.229,15.439-23.254,12.828-37.182&#10;&#9;&#9;c-2.723-14.522-14.752-26.862-30.202-25.573c-30.482,2.542-26.972,39.22-14.43,60.475c-1.022,0.604-2.003,1.158-2.87,1.6&#10;&#9;&#9;c-15.747,8.031-24.83,3.115-36.651-3.192c32.133-46.989,46.299-111.288,52.769-166.511c7.095-60.557-1.091-122.721-31.75-175.844&#10;&#9;&#9;c1.742-7.589,2.847-15.217,3.3-22.613c3.234-52.724-17.087-106.729-39.357-153.572c-22.856-48.078-52.065-92.702-80.6-137.517&#10;&#9;&#9;c-27.913-43.839-51.213-90.071-77.828-134.499c32.608-8.276,58.477-33.02,73.023-63.982c9.364-19.929,13.661-41.886,15.049-63.758&#10;&#9;&#9;c1.537-24.239,2.758-53.901-3.025-77.634c-3.87-15.888-16.137-17.452-30.126-12.72c-24.698,8.354-48.236,21.676-71.055,34.146&#10;&#9;&#9;c-15.215,8.314-67.872,31.376-76.522,57.323c-28.739-9.669-62.777-9.984-92.061-8.482c-16.281,0.835-38.659,1.79-57.137,8.036&#10;&#9;&#9;c-2.562-42.842-69.952-63.623-102.442-74.792c-16.022-5.507-32.043-11.015-48.064-16.522c-8.382-2.881-19.341-8.772-28.316-4.841&#10;&#9;&#9;c-17.545,7.686-22.373,45.2-24.42,61.334c-6.484,51.128,3.139,103.707,49.507,132.995c18.992,11.996,48.924,18.582,75.614,14.941&#10;&#9;&#9;c-58.529,103.774-114.133,213.067-140.647,329.692c-13.312,58.554-19.795,120.067-13.013,179.956&#10;&#9;&#9;c5.115,45.171,31.544,83.723,81.498,83.065c0.621-0.008,1.19-0.139,1.724-0.325c-9.705,26.787-19.719,53.476-30.268,79.938&#10;&#9;&#9;c-7.071,17.74-11.488,38.469-30.049,46.933c-14.763,6.732-31.695,10.687-47.073,16.004c-27.146,9.386-57.546,16.276-83.019,29.683&#10;&#9;&#9;c-14.445,7.602-29.073,24.064-19.967,40.466c-2.863,14.474-0.586,29.42,14.733,37.403c10.558,5.502,23.403,2.696,34.707,1.748&#10;&#9;&#9;c10.062-0.844,20.126-1.664,30.191-2.457c-1.166,0.43-2.35,0.832-3.497,1.293c-6.614,2.654-5.326,11.148,1.632,12.059&#10;&#9;&#9;c35.257,4.619,75.145-4.889,110.409-8.199c17.798-1.67,35.608-3.202,53.429-4.595c13.06-1.021,27.372-3.483,40.962-3.722&#10;&#9;&#9;c0.561,22.049,20.533,38.781,41.245,42.655c14.381,2.69,27.128,1.623,39.767-1.808c0.39,0.828,1.186,1.442,2.318,1.553&#10;&#9;&#9;c12.732,1.251,26.266-6.421,38.525-9.446c1.586-0.391,3.227-0.699,4.905-0.954c-2.01,2.034-3.882,4.315-5.557,6.944&#10;&#9;&#9;c-2.188,3.434,1.536,9.071,5.673,7.379c31.33-12.816,64.456-8.442,97.516-8.886c35.718-0.48,71.416-2.578,106.944-6.286&#10;&#9;&#9;c54.055-5.641,111.312-9.515,148.95-50.897c5.73,7.139,15.026,11.759,24.213,13.482c14.9,2.795,30.008-2.18,42.535-10.474&#10;&#9;&#9;c27.941,16.925,62.969-3.648,70.023-35.37C1034.37,1036.51,1018.445,1032.034,1015.172,1042.79z M956.624,1059.201&#10;&#9;&#9;c-3.947-4.358-6.428-10.064-6.746-17.023c0.29-3.077,0.58-6.154,0.87-9.231c2.176-11.309,8.567-10.757,19.172,1.653&#10;&#9;&#9;C972.021,1043.201,964.713,1052.367,956.624,1059.201z" style="fill: rgb(249, 170, 51);"/>
	<path fill="#FFAD9F" d="M691.268,329.279c-8.819-28.497-34.217-61.348-66.215-63.457c-33.176-2.187-56.53,27.309-69.92,54.524&#10;&#9;&#9;c-2.904,2.733-4.864,6.311-4.605,10.715c0.335,5.674,1.773,10.371,4.24,14.157c2.815,4.941,7.315,8.6,12.988,9.245&#10;&#9;&#9;c1.422,0.421,2.913,0.781,4.517,1.039c19.727,3.179,40.165,2.601,60.03,5.472c14.657,2.118,31.424,9.288,45.776,3.027&#10;&#9;&#9;C692.612,357.662,695.645,343.421,691.268,329.279z"/>
	<g>
		<path fill="#335356" d="M761.388,486.573c24.549-14.271,53.173-20.476,80.668-26.288c7.965-1.684,8.736-10.064,5.043-15.291&#10;&#9;&#9;&#9;c-5.425-21.648-39.62-11.178-55.014-5.595c-29.247,10.606-56.154,28.263-76.8,51.619&#10;&#9;&#9;&#9;c-42.305,47.861-63.159,128.161-46.923,190.242c0.148,0.568,1.026,0.584,1.166,0c0.227-0.942,0.396-1.891,0.608-2.834&#10;&#9;&#9;&#9;c0.446,0.136,0.916,0.179,1.371,0.042c15.314-4.611,16.229-20.972,16.73-34.63c1.211-33.047,6.942-65.716,20.953-95.894&#10;&#9;&#9;&#9;C720.87,522.786,737.039,500.728,761.388,486.573z"/>
		<path fill="#335356" d="M948.669,748.541c-13.315,42.482-44.899,79.554-87.148,95.236c-20.809,7.724-42.856,10.369-64.929,8.571&#10;&#9;&#9;&#9;c-25.819-2.103-47.4-15.135-72.367-19.215c-2.943-0.481-4.958,1.178-5.52,3.293c-0.363-0.119-0.716-0.25-1.082-0.366&#10;&#9;&#9;&#9;c-3.107-0.983-6.507,2.276-5.435,5.435c8.034,23.657,40.462,34.092,62.728,37.734c28.421,4.649,58.985,1.915,86.601-5.854&#10;&#9;&#9;&#9;c57.705-16.235,103.08-58.425,104.963-120.265C969.013,741.836,952.174,737.358,948.669,748.541z"/>
		<path fill="#335356" d="M338.162,430.334c-0.276-6.699-6.202-11.251-12.754-9.716c-20.438,4.788-10.361,33.514-7.762,47.087&#10;&#9;&#9;&#9;c3.886,20.298,6.621,51.784,19.926,69.931c1.556,9.06,15.602,11.78,18.648,1.181c3.922-13.651-5.474-30.524-8.624-43.749&#10;&#9;&#9;&#9;C342.54,473.839,339.061,452.152,338.162,430.334z"/>
	</g>
	<g>
		<path fill="#38231D" d="M132.454,1074.485c2.951-6.407,0.631-14.525,3.144-21.424c2.844-7.811,9.485-12.882,13.013-20.117&#10;&#9;&#9;&#9;c0.355-0.729,0.111-1.832-0.817-2.009c-9.942-1.896-17.873,8.26-21.226,16.347c-3.108,7.495-6.082,23.314,3.023,27.953&#10;&#9;&#9;&#9;C130.522,1075.71,131.959,1075.559,132.454,1074.485L132.454,1074.485z"/>
	</g>
	<g>
		<path fill="#FFE0CF" d="M651.495,652.786c-3.964-33.751-7.098-67.557-10.272-101.389c-0.092-0.982-0.358-1.842-0.713-2.627&#10;&#9;&#9;&#9;c0.401-5.355-2.787-11.251-9.687-11.591c-94.561-4.647-194.613-15.097-288.327,2.289c-7.677,1.424-5.393,12.714,1.767,13.064&#10;&#9;&#9;&#9;c47.809,2.335,95.727-1.169,143.57-0.959c41.604,0.183,83.244,1.929,124.769,4.677c0.868,7.064,2.745,13.764,4.095,20.829&#10;&#9;&#9;&#9;c2.977,15.575,2.497,32.184,3.311,47.983c1.433,27.818,3.799,55.322,6.39,83.038c0.468,5.003,5.688,9.119,10.554,6.056&#10;&#9;&#9;&#9;C658.651,700.502,654.099,674.951,651.495,652.786z"/>
		<path fill="#FFE0CF" d="M661.482,848.801c-0.659-11.115-7.912-19.846-19.886-17.126c-3.815,0.866-5.673,4.159-5.843,7.568&#10;&#9;&#9;&#9;c-2.278,4.359-2.285,9.466-2.037,14.623c0.362,7.523,0.841,15.77,3.297,22.92c1.659,4.827,7.122,7.602,11.818,4.808&#10;&#9;&#9;&#9;c5.352-3.184,11.186-5.478,12.451-12.117C662.507,863.055,661.87,855.316,661.482,848.801z"/>
	</g>
	<path fill="#BEDBE5" d="M633.096,835.352c-0.468-3.171-2.899-4.675-5.559-4.83c-18.452-12.534-53.139-34.02-53.053-58.879&#10;&#9;&#9;c0.104-30.309,39.498-32.125,49.588-55.649c5.007-11.671,1.42-29.75-1.864-45.187c-1.481-25.69-4.467-51.505-6.242-76.907&#10;&#9;&#9;c-0.781-11.18,1.763-28.784-8.158-36.798c-0.765-0.617-1.609-1.088-2.453-1.56c-2.229-4.045-7.064-4.86-10.506-2.921&#10;&#9;&#9;c-6.032-0.536-12.42,0.102-17.742,0.126c-38.445,0.174-76.858,0.182-115.295-0.718c-38.069-0.891-77.269-5.305-115.221-2.475&#10;&#9;&#9;c-1.308,0.098-2.465,0.56-3.457,1.24c-2.239-0.409-5.063,1.271-5.37,3.959c-6.204,54.22-1.086,112.409,1.69,166.824&#10;&#9;&#9;c0.245,4.803,5.135,9.994,10.399,7.921c13.583-5.349,27.167-10.299,41.006-14.949c14.009-4.708,31.84-13.455,46.631-8.961&#10;&#9;&#9;c34.58,10.505,13.565,56.289,10.586,81.429c-4.742,9.129-11.01,17.517-17.483,25.498c-9.403,11.593-19.901,23.068-32.547,31.205&#10;&#9;&#9;c-10.352,6.66-22.528,9.34-32.944,15.521c-1.563-0.857-3.887-0.367-4.549,1.748c-7.021,22.43-2.802,42.324,22.648,46.919&#10;&#9;&#9;c37.362,6.746,77.736,5.81,115.475,3.589c38.153-2.245,77.59-6.524,114.695-15.977c11.326-2.885,21.214-5.487,24.032-18.174&#10;&#9;&#9;C640.145,864.98,634.94,847.849,633.096,835.352z"/>
	<g>
		<path fill="#38231D" d="M147.177,1032.032c-7.205,3.049-12.402,8.714-12.169,16.984c0.188,6.698,5.087,16.491,12.643,16.526&#10;&#9;&#9;&#9;c3.089,0.014,4.572-3.238,3.325-5.795c-2.113-4.333-6.297-5.985-7.071-11.338c-0.721-4.982,1.267-10.719,5.2-13.879&#10;&#9;&#9;&#9;C150.644,1033.293,148.674,1031.398,147.177,1032.032L147.177,1032.032z"/>
	</g>
	<g>
		<path fill="#91B5BF" d="M367.029,904.448c5.52-8.871,2.023-24.459,0.945-34.315c-0.589-5.387-4.155-9.895-9.955-9.955&#10;&#9;&#9;&#9;c-5.016-0.052-10.434,4.608-9.955,9.955c0.576,6.438,1.389,12.869,2.294,19.27c0.852,6.029,1.575,11.88,5.861,16.439&#10;&#9;&#9;&#9;C359.337,909.159,364.757,908.099,367.029,904.448L367.029,904.448z" style="fill: rgb(145, 181, 191);"/>
	</g>
	<g>
		<path fill="#91B5BF" d="M349.416,726.127c8.864-26.526,4.575-57.581,4.13-85.109c-0.246-15.225-0.492-30.45-0.739-45.674&#10;&#9;&#9;&#9;c-0.193-11.914,1.575-25.826-2.219-37.2c-2.393-7.174-11.271-10-16.921-4.467c-5.051,4.946-2.209,12.607-1.885,18.83&#10;&#9;&#9;&#9;c0.92,17.683,0.513,35.58,0.768,53.287c0.461,31.967-4.266,69.939,6.91,100.333C341.215,730.901,347.742,731.138,349.416,726.127&#10;&#9;&#9;&#9;L349.416,726.127z" style="fill: rgb(145, 181, 191);"/>
	</g>
	<g>
		<path fill="#38231D" d="M137.064,1047.26c-6.814,6.28-3.956,17.634,2.337,23.18c4.799,4.23,10.774-3.406,5.38-6.973&#10;&#9;&#9;&#9;c-2.858-1.89-6.439-3.048-7.968-6.51c-0.279-0.631-1.098-0.663-1.629-0.427c-5.237,2.332-5.168,10.881-4.721,15.642&#10;&#9;&#9;&#9;c0.3,3.199,3.185,4.88,6.11,3.506c4.788-2.248,9.883-4.403,14.249-7.405c3.355-2.307,1.414-8.464-2.946-6.988&#10;&#9;&#9;&#9;c-5.35,1.811-10.429,4.726-15.402,7.38c1.988,0.809,3.977,1.618,5.965,2.427c-0.829-4.354,0.644-10.284-1.626-14.135&#10;&#9;&#9;&#9;c-0.623,0.481-1.247,0.962-1.87,1.443c2.594,2.531,2.559,6.784,3.316,10.081c2.474-1.44,4.947-2.88,7.421-4.32&#10;&#9;&#9;&#9;c-4.669-4.264-5.298-9.554-5.424-15.58C140.221,1046.926,138.254,1046.163,137.064,1047.26L137.064,1047.26z"/>
	</g>
	<g>
		<path fill="#38231D" d="M154.734,1061.607c-13.906,0.901-28.236,8.75-28.179,24.507c0.034,9.322,12.793,31.483,23.891,21.13&#10;&#9;&#9;&#9;c1.143-1.067,1.414-3.103,0.572-4.43c-1.954-3.079-4.123-3.126-7.138-4.973c-3.998-2.449-6.678-7.034-6.922-11.727&#10;&#9;&#9;&#9;c-0.523-10.038,9.226-19.161,18.169-21.602C156.694,1064.084,156.437,1061.496,154.734,1061.607L154.734,1061.607z"/>
	</g>
	<g>
		<path fill="#38231D" d="M138.984,1066.321c-12.874,13.324-4.372,38.271,14.794,39.778c1.561,0.123,3.468-0.98,4.156-2.384&#10;&#9;&#9;&#9;c2.978-6.073-5.052-7.705-8.72-10.293c-7.808-5.509-9.081-16.395-6.638-25.011&#10;&#9;&#9;&#9;C143.156,1066.363,140.479,1064.774,138.984,1066.321L138.984,1066.321z"/>
	</g>
	<g>
		<path fill="#FFAD9F" d="M398.488,110.254c-14.694-9.666-30.559-17.581-46.818-24.233c-9.163-3.749-23.203-11.328-32.086-2.321&#10;&#9;&#9;&#9;c-8.229,8.344-5.694,27.872-4.637,38.044c1.489,14.319,5.665,27.873,11.245,41.077c11.102,26.277,27.957,55.905,53.474,70.672&#10;&#9;&#9;&#9;c9.081,5.255,18.206,7.384,26.581,6.544c0.578,0.001,1.165-0.033,1.763-0.114c26.339-3.584,40.25-30.665,38.017-55.318&#10;&#9;&#9;&#9;C443.292,154.435,423.163,126.487,398.488,110.254z M332.474,98.189c0.676,0.081,1.371,0.201,2.09,0.37&#10;&#9;&#9;&#9;c-1.049,0.964-1.978,1.992-2.849,3.05C331.923,100.458,332.187,99.32,332.474,98.189z"/>
		<path fill="#FFAD9F" d="M805.137,86.768c-1.68-5.59-7.879-6.544-12.056-3.183c-27.752,22.34-53.608,54.497-70.067,86.144&#10;&#9;&#9;&#9;c-10.391,19.979-19.17,48.663-7.718,69.585c-0.236,0.846-0.342,1.77-0.246,2.786c0.119,1.27,0.238,2.54,0.359,3.81&#10;&#9;&#9;&#9;c0.293,3.109,1.539,6.796,4.699,8.192c28.41,12.556,60.162-38.828,71.231-59.579C808.34,162.652,815.698,121.905,805.137,86.768z"/>
	</g>
	<g>
		<path fill="#38231D" d="M485.678,251.131c2.181,1.235,4.753,1.732,7.343,1.155c8.966-1.997,12.911-13.689,6.797-20.576&#10;&#9;&#9;&#9;c-6.246-7.034-18.444-5.059-21.739,3.811C475.487,242.498,479.588,249.397,485.678,251.131z M489.101,240.782&#10;&#9;&#9;&#9;C489.304,240.435,489.407,240.673,489.101,240.782L489.101,240.782z"/>
		<path fill="#38231D" d="M688.289,259.038c10.993,6.437,23.212-6.513,17.8-17.451c-2.587-5.228-8.56-8.565-14.38-7.466&#10;&#9;&#9;&#9;c-5.418,1.023-9.102,5.714-9.651,11.069c-0.176,1.725,0.074,3.441,0.625,5.037C682.927,253.785,685.012,257.12,688.289,259.038z"/>
		<path fill="#38231D" d="M580.419,341.351c7.113-1.519,11.396-7.026,13.992-13.359c4.001-6.084,6.45-13.291,7.315-20.474&#10;&#9;&#9;&#9;c0.244-2.028-1.774-4.687-3.813-5.008c-7.706-1.212-14.553,1.632-19.273,7.936c-5.485,7.325-5.468,16.912-5.128,25.644&#10;&#9;&#9;&#9;C573.657,339.776,576.872,342.109,580.419,341.351z"/>
		<path fill="#38231D" d="M657.506,336.801c2.386,4.536,6.168,11.113,12.353,9.656c6.713-1.581,6.558-10.609,6.195-15.867&#10;&#9;&#9;&#9;c-0.58-8.426-7.907-35.606-21.352-28.891c-4.156,2.075-4.624,6.454-4.011,10.586C650.099,320.549,655.151,332.321,657.506,336.801&#10;&#9;&#9;&#9;z"/>
		<path fill="#38231D" d="M576.402,397.806c4.721,0.675,6.952-6.223,2.032-7.373c-23.16-5.416-45.788-20.688-60.571-39.307&#10;&#9;&#9;&#9;c-0.591-0.745-2.001,0.064-1.633,0.95C527.107,378.286,548.182,393.772,576.402,397.806z"/>
		<path fill="#38231D" d="M498.097,344.732c-0.978,2.75,3.145,4.295,4.59,1.935c1.533-2.503,3.666-4.665,6.38-5.856&#10;&#9;&#9;&#9;c1.376-0.604,3.031-0.817,3.843-2.264c0.674-1.201,0.397-2.607-0.688-3.445c-2.512-1.939-6.498,0.571-8.596,2.144&#10;&#9;&#9;&#9;C500.997,339.216,499.199,341.632,498.097,344.732z"/>
		<path fill="#38231D" d="M499.898,330.749c-1.223,1.764,1.213,4.201,2.978,2.978c0.891-0.618,1.512-1.256,2.157-2.118&#10;&#9;&#9;&#9;c1.295-1.731-1.285-4.313-3.016-3.016C501.15,329.242,500.514,329.862,499.898,330.749z"/>
		<path fill="#38231D" d="M552.975,360.294c17.278,7.606,42.919,5.235,61.446,6.613c25.21,1.874,81.87,15.996,83.89-22.19&#10;&#9;&#9;&#9;c1.62-30.615-18.775-69.578-48.883-79.984c-11.588-4.005-23.625-5.035-35.056-3.373c0.196-0.42,0.118-0.963-0.456-1.089&#10;&#9;&#9;&#9;c-16.742-3.674-32.611-2.356-43.39,12.432c-0.672,0.922,0.681,2.306,1.604,1.604c5.615-4.276,11.707-7.613,18.355-10.01&#10;&#9;&#9;&#9;c7.72-2.784,14.028-4.415,22.034-2.66c-19.406,3.343-36.857,14.601-46.996,32.812c-0.536,0.963,0.734,1.974,1.535,1.184&#10;&#9;&#9;&#9;c8.722-8.614,16.28-19.699,28.539-23.613c10.718-3.423,26.575-2.456,37.907-1.186c28.663,3.212,46.833,31.274,53.153,57.257&#10;&#9;&#9;&#9;c1.186,4.876,4.411,15.855,3.298,19.656c-3.596,12.296-12.901,15.11-23.932,15.899c-14.666,1.049-28.719-1.108-43.246-3.172&#10;&#9;&#9;&#9;c-10.198-1.449-20.369-3.095-30.574-4.49c-14.919-2.04-46.405,1.041-40.733-26.575c0.474-2.304-2.898-3.281-3.551-0.979&#10;&#9;&#9;&#9;C544.842,339.26,540.374,354.747,552.975,360.294z"/>
		<path fill="#38231D" d="M576.252,258.348c3.789-1.328,7.639-2.136,11.606-2.726c3.542-0.527,7.232-0.243,10.54-1.709&#10;&#9;&#9;&#9;c0.971-0.43,0.89-2.003,0-2.458c-6.969-3.567-16.98,1.164-23.007,4.854C574.352,256.944,575.016,258.781,576.252,258.348z"/>
		<path fill="#38231D" d="M580.546,246.84c2.507-0.763,4.784-1.492,6.907-3.095c0.645-0.488,0.523-1.699-0.452-1.664&#10;&#9;&#9;&#9;c-2.618,0.093-4.85,0.926-7.242,1.907C578.052,244.688,578.673,247.41,580.546,246.84z"/>
		<path fill="#38231D" d="M317.004,99.563c0.479-4.657,1.612-9.15,3.401-13.477c6.881-7.079,13.589-7.977,20.124-2.695&#10;&#9;&#9;&#9;c6.362,1.692,13.231,6.922,19.078,9.844c12.59,6.293,25.255,12.269,36.993,20.115c28.455,19.02,55.262,54.606,44.853,91.034&#10;&#9;&#9;&#9;c-0.27,0.944,1.222,1.637,1.632,0.688c17.711-41.068-8.945-75.226-43.883-96.173c-11.074-6.639-22.832-12.479-34.517-17.96&#10;&#9;&#9;&#9;c-7.827-3.672-27.153-16.516-35.662-16.609c-13.92-0.151-9.491,11.628-12.934,24.981&#10;&#9;&#9;&#9;C315.934,99.91,316.899,100.157,317.004,99.563z"/>
		<path fill="#38231D" d="M713.291,230.353c-6.098-66.94,46.237-104.52,83.961-151.516c0.432-0.538-0.139-1.535-0.811-1.052&#10;&#9;&#9;&#9;c-25.677,18.429-51.988,44.455-69.846,70.649c-16.787,24.624-22.18,53.132-15.661,82.238&#10;&#9;&#9;&#9;C711.225,231.969,713.415,231.715,713.291,230.353z"/>
		<path fill="#38231D" d="M797.664,78.152c0.394,0,0.395-0.614,0-0.614S797.268,78.152,797.664,78.152z"/>
		<path fill="#38231D" d="M879.101,767.365c-38.198,44-95.412,60.351-151.843,63.765c-40.218,2.433-86.603,0.423-122.307-19.826&#10;&#9;&#9;&#9;c-5.308-4.411-9.991-9.565-13.679-15.235c-7.255-11.156-7.017-20.938-6.854-32.903c7.199-7.036,17.296-12.559,25.187-18.622&#10;&#9;&#9;&#9;c18.228-14.002,36.125-28.958,51.892-45.724c29.521-31.394,62.995-69.406,80.462-109.071c0.162-0.368-0.304-0.845-0.614-0.473&#10;&#9;&#9;&#9;c-19.625,23.573-35.624,49.638-56.441,72.396c-9.57,10.462-19.737,20.546-30.213,30.313&#10;&#9;&#9;&#9;c-1.576-51.384-6.147-103.175-14.227-153.885c-0.049-0.31-0.217-0.523-0.43-0.67c0.313,0.003,0.626,0.003,0.94,0.006&#10;&#9;&#9;&#9;c1.661,0.015,1.64-2.479,0-2.567c-89.774-4.827-181.82-6.168-271.591-1.007c-1.389,0.08-1.413,2.159,0,2.177&#10;&#9;&#9;&#9;c89.675,1.111,179.469,0.595,269.164,1.383c-0.345,0.203-0.595,0.539-0.55,1.013c4.955,52.51,9.285,104.852,12.424,157.49&#10;&#9;&#9;&#9;c-2.692,2.468-5.397,4.916-8.121,7.344c-1.12-25.137-6.595-50.358-9.622-75.352c-3.057-25.238-5.578-50.553-7.997-75.859&#10;&#9;&#9;&#9;c-0.124-1.299-2.128-1.346-2.065,0c2.331,49.334,3.912,103.84,17.223,151.656c0.147,0.529,0.588,0.749,1.047,0.809&#10;&#9;&#9;&#9;c-3.494,3.101-7.005,6.174-10.532,9.212c1.261-52.038-7.825-106.574-16.11-157.848c-0.055-0.339-0.234-0.575-0.456-0.756&#10;&#9;&#9;&#9;c0.06-0.006,0.12-0.008,0.18-0.014c1.091-0.1,1.482-1.737,0.274-2.028c-43.396-10.46-92.935-6.724-137.352-6.898&#10;&#9;&#9;&#9;c-45.312-0.178-92.447-1.186-137.348,5.508c-0.93,0.139-0.662,1.565,0.215,1.59c45.576,1.268,91.474-2.614,137.133-2.258&#10;&#9;&#9;&#9;c44.244,0.345,90.552,7.89,134.602,4.274c-0.231,0.251-0.369,0.583-0.317,0.998c6.615,52.516,8.642,106.099,16.541,158.328&#10;&#9;&#9;&#9;c0.068,0.449,0.333,0.686,0.654,0.822c-2.776,2.378-5.557,4.738-8.341,7.079c-15.316,12.881-46.336,27.817-53.998,47.934&#10;&#9;&#9;&#9;c-6.996,18.366,6.314,31.116,20.156,40.604c18.301,18.185,44.698,25.757,72.081,28.399c-0.041,0.128-0.098,0.24-0.116,0.388&#10;&#9;&#9;&#9;c-0.808,6.298-0.873,12.576-0.925,18.915c-0.047,5.522-0.813,11.393,1.013,16.658c0.55,1.586,2.679,1.588,3.229,0&#10;&#9;&#9;&#9;c1.815-5.233,1.058-11.172,1.013-16.658c-0.052-6.335-0.118-12.621-0.926-18.915c-0.004-0.035-0.021-0.058-0.027-0.092&#10;&#9;&#9;&#9;c18.696,1.54,37.705,0.916,54.769-0.082c62.132-3.631,123.668-20.706,164.382-70.736&#10;&#9;&#9;&#9;C881.572,767.847,880.054,766.267,879.101,767.365z M575.404,786.86c-0.175-0.893-0.315-1.789-0.385-2.693&#10;&#9;&#9;&#9;c0.344,1.215,0.716,2.419,1.14,3.596C575.905,787.465,575.656,787.162,575.404,786.86z"/>
		<path fill="#38231D" d="M440.783,808.482c14.585-24.022,31.554-69.059,20.138-97.007c-5.409-13.242-16.234-14.823-28.926-11.6&#10;&#9;&#9;&#9;c-27.185,6.903-52.489,18.436-78.925,27.349c-1.255,0.423-0.754,2.295,0.548,1.991c17.278-4.036,34.84-6.26,52.109-10.573&#10;&#9;&#9;&#9;c7.483-1.869,17.873-5.32,27.16-5.968c8.718,9.7,6.425,35.35,5.997,45.851c-0.62,15.255-3.795,31.025-6.546,46.081&#10;&#9;&#9;&#9;c-0.116,0.637,0.328,1.141,0.849,1.3c-1.708,2.461-3.474,4.863-5.336,7.147c-37.302,45.767-104.56,53.251-147.216,11.365&#10;&#9;&#9;&#9;c-1.481-1.453-4.289,0.503-2.98,2.299c19.044,26.136,51.557,35.929,82.742,33.93C395.068,858.426,423.011,837.754,440.783,808.482&#10;&#9;&#9;&#9;z M438.445,797.634c3.77-8.503,7.122-17.12,9.77-25.88c0.189,1.005,0.367,2.01,0.6,3.018&#10;&#9;&#9;&#9;C446.123,782.748,442.617,790.445,438.445,797.634z M454.911,738.027c-0.083-1.884-0.245-3.734-0.469-5.556&#10;&#9;&#9;&#9;c0.002-1.302-0.025-2.608-0.069-3.917c0.005,0.046,0.019,0.081,0.024,0.127C454.737,731.773,454.881,734.894,454.911,738.027z"/>
		<path fill="#38231D" d="M763.372,550.17c3.658-3.763,8.187-6.837,12.707-9.499c3.798-2.237,8.388-3.938,11.646-6.913&#10;&#9;&#9;&#9;c0.933-0.853,0.216-2.576-1.046-2.525c-10.106,0.407-18.578,10.698-24.411,17.831C761.643,549.828,762.656,550.906,763.372,550.17&#10;&#9;&#9;&#9;z"/>
		<path fill="#38231D" d="M772.084,532.651c1.447-2.146,3.417-3.803,5.817-4.794c2.141-0.884,4.481-0.798,6.622-1.556&#10;&#9;&#9;&#9;c1.012-0.358,1.466-1.946,0.327-2.499c-5.639-2.74-12.672,2.674-15.415,7.3C768.415,532.819,770.99,534.275,772.084,532.651z"/>
		<path fill="#38231D" d="M602.331,927.074c-34.941,25.754-68.913,51.697-100.532,81.506c-4.205,3.964-8.422,7.876-12.677,11.727&#10;&#9;&#9;&#9;c-7.798-15.593-18.294-29.867-26.251-45.466c-8.279-16.233-14.949-33.064-22.606-49.56c-0.962-2.072-3.624-0.446-3.366,1.419&#10;&#9;&#9;&#9;c4.61,33.409,23.241,73.79,49.799,95.737c-11.29,10.104-22.908,19.721-35.617,28.264c-12.475,8.385-26.617,16.378-34.334,29.847&#10;&#9;&#9;&#9;c-10.013,17.472-6.511,43.437,14.858,49.028c0.032,0.008,0.058,0,0.089,0.007c1.066,3.793,3.609,7.345,6.545,9.642&#10;&#9;&#9;&#9;c3.391,2.653,9.354,5.597,13.806,3.887c8.756,4.046,19.436,5.136,29.094,6.384c22.468,2.902,37.785-7.24,57.756-16.911&#10;&#9;&#9;&#9;c2.123-1.028,0.635-4.582-1.612-3.825c-17.452,5.875-32.097,13.268-50.929,10.898c-7.312-0.92-15.593-1.636-23.459-3.441&#10;&#9;&#9;&#9;c-2.166-1.876-5.293-2.982-7.489-4.756c-0.859-0.694-1.783-1.596-2.647-2.63c-0.167-2.078-0.538-4.089,0.078-6.316&#10;&#9;&#9;&#9;c0.635-2.296,2.245-6.198,4.207-7.52c1.533-1.033,1.03-3.137-0.435-3.609c3.578-2.353,6.862-4.801,9.909-8.146&#10;&#9;&#9;&#9;c1.132-1.243,0.002-2.996-1.576-2.705c-6.566,1.211-11.443,4.026-17.005,7.665c-1.823,1.192-3.618,2.423-5.356,3.715&#10;&#9;&#9;&#9;c-4.044-2.71-8.305-4.289-11.581-8.138c-2.934-3.448-6.088-8.704-7.075-13.143c-0.064-0.283-0.167-0.517-0.297-0.711&#10;&#9;&#9;&#9;c2.429-6.536,6.35-12.698,10.958-17.519c9.709-10.161,21.961-17.343,33.065-25.812c27.166-20.719,50.155-46.274,77.166-67.184&#10;&#9;&#9;&#9;c57.691-44.666,123.079-81.465,175.826-132.303c0.21-0.203-0.056-0.526-0.304-0.394&#10;&#9;&#9;&#9;C678.718,868.813,640.194,899.165,602.331,927.074z M421.617,1103.743c-0.187,0.056-0.362,0.133-0.531,0.229&#10;&#9;&#9;&#9;c-0.014-0.516-0.027-1.03-0.015-1.549C421.231,1102.865,421.425,1103.304,421.617,1103.743z"/>
		<path fill="#38231D" d="M215.317,1094.32c-13.881-1.51-30.888-0.46-46.527,3.117c-0.144-0.266-0.304-0.519-0.483-0.744&#10;&#9;&#9;&#9;c-1.962-2.483-4.828-2.838-7.571-4.134c-2.867-1.356-5.363-3.2-7.712-5.307c-4.58-4.108-9.667-9.583-11.669-15.506&#10;&#9;&#9;&#9;c-0.422-1.247-1.816-1.654-2.842-1.27c3.712-1.551,7.347-3.37,11.045-4.843c4.99-1.987,9.8-3.761,14.018-7.195&#10;&#9;&#9;&#9;c0.673-0.548,0.342-1.926-0.542-2.052c-10.821-1.549-25.44,5.376-32.574,13.442c-1.123,1.269-0.052,3.34,1.683,2.892&#10;&#9;&#9;&#9;c2.105-0.543,4.146-1.322,6.171-2.161c-0.579,0.294-1.001,0.863-0.961,1.728c0.327,7.12,1.634,13.389,5.551,19.007&#10;&#9;&#9;&#9;c-2.772,4.647-1.124,10.401,2.877,13.966c-0.904,0.437-1.813,0.87-2.68,1.332c-1.378,0.734-0.699,2.838,0.775,2.86&#10;&#9;&#9;&#9;c3.312,0.049,6.606-0.199,9.89-0.595c7.893,1.572,18.21-0.025,24.347-4.417c12.625-2.247,25.294-4.467,37.365-8.915&#10;&#9;&#9;&#9;C216.148,1095.28,216.01,1094.395,215.317,1094.32z M150.441,1098.963c-0.767-0.453-1.45-1.001-2.021-1.635&#10;&#9;&#9;&#9;C149.062,1097.883,149.735,1098.43,150.441,1098.963z"/>
		<path fill="#38231D" d="M260.67,987.006c-32.431,7.977-65.557,19.119-97.101,30.163c-15.413,5.396-33.443,16.418-28.27,35.282&#10;&#9;&#9;&#9;c0.377,1.375,2.597,1.495,2.906,0c5.554-26.872,44.238-29.432,65.844-37.196c19.663-7.066,39.645-15.664,57.007-27.33&#10;&#9;&#9;&#9;C261.522,987.612,261.24,986.866,260.67,987.006z"/>
		<path fill="#38231D" d="M289.659,981.995c0.359,0,0.359-0.558,0-0.558S289.3,981.995,289.659,981.995z"/>
		<path fill="#38231D" d="M349.121,545.329c45.943,1.304,92.46-3.009,138.453-3.779c46.191-0.773,92.349,0.049,138.53-0.277&#10;&#9;&#9;&#9;c1.911-0.014,1.897-2.878,0-2.958c-46.058-1.931-92.445-1.303-138.53-0.586c-45.766,0.712-93.014-0.334-138.453,5.479&#10;&#9;&#9;&#9;C347.806,543.376,347.715,545.289,349.121,545.329z"/>
		<path fill="#38231D" d="M635.974,882.125c0.331,1.296,2.398,1.364,2.691,0c1.525-7.125,0.67-14.753,0.456-22.006&#10;&#9;&#9;&#9;c-0.214-7.28,0.252-14.834-1.732-21.887c-0.248-0.879-1.608-0.928-1.83,0c-1.704,7.117-0.957,14.614-0.887,21.887&#10;&#9;&#9;&#9;C634.742,867.377,634.168,875.064,635.974,882.125z"/>
		<path fill="#38231D" d="M649.385,880.697c2.402-6.17,1.197-13.503,0.666-19.992c-0.556-6.783-1.723-13.339-3.132-19.992&#10;&#9;&#9;&#9;c-0.379-1.789-3.404-1.425-3.234,0.438c0.639,7.002,1.111,14.044,1.537,21.065c0.369,6.115-0.36,12.731,1.85,18.482&#10;&#9;&#9;&#9;C647.508,881.835,648.944,881.828,649.385,880.697z"/>
		<path fill="#38231D" d="M1073.148,705.986c-3.532,3.717-6.974,7.545-10.381,11.417c-4.893-6.003-9.787-12.006-14.687-18.003&#10;&#9;&#9;&#9;c6.931-8.71,13.609-17.484,20.012-26.267c0.857,0.728,1.696,1.489,2.582,2.164c1.179,0.899,2.332-0.772,1.832-1.832&#10;&#9;&#9;&#9;c-0.587-1.248-1.287-2.462-1.972-3.681c0.869-1.207,1.782-2.416,2.64-3.622c1.493-2.096-1.945-4.786-3.594-2.773&#10;&#9;&#9;&#9;c-0.561,0.686-1.147,1.36-1.712,2.045c-6.31-9.528-14.965-18.233-22.669-26.543c5.418-7.5,10.775-15.061,15.861-22.747&#10;&#9;&#9;&#9;c3.649,3.878,7.299,7.743,10.87,11.638c2.358,2.572,6.196-1.273,3.828-3.828c-3.865-4.168-7.688-8.429-11.532-12.683&#10;&#9;&#9;&#9;c3.189-4.989,6.262-10.028,9.094-15.169c0.942-1.709-1.431-3.753-2.805-2.164c-3.588,4.151-7.008,8.47-10.35,12.866&#10;&#9;&#9;&#9;c-5.186-5.675-10.474-11.256-16.012-16.533c5.862-0.941,11.332-2.523,15.195-5.378c4.125-3.048,6.568-6.723,3.878-11.565&#10;&#9;&#9;&#9;c-3.604-6.484-13.143-3.355-18.808-1.581c-1.374,0.43-1.026,2.283,0.327,2.412c6.527-1.452,8.124,0.403,4.791,5.567&#10;&#9;&#9;&#9;c-4.994-0.406-9.973-0.268-14.936,0.415c-6.674,0.509-13.352,1.625-19.977,2.596c-18.327,2.685-36.987,5.408-55.032,9.565&#10;&#9;&#9;&#9;c-1.37,0.316-1.038,2.395,0.327,2.412c13.307,0.168,26.782-0.408,40.186-1.238c-6.287,8.546-12.065,17.732-17.068,27.277&#10;&#9;&#9;&#9;c-6.395-7.616-12.784-15.238-19.23-22.814c-0.687-0.807-1.767,0.342-1.144,1.145c6.299,8.119,12.652,16.191,19.003,24.267&#10;&#9;&#9;&#9;c-4.434,8.781-8.188,17.834-10.963,26.973c-0.339,1.116,1.32,1.823,1.888,0.796c4.273-7.736,8.507-15.409,12.771-23.051&#10;&#9;&#9;&#9;c5.027,6.379,10.081,12.737,15.134,19.095c-6.138,10.616-12.269,21.281-17.873,32.182c-3.113-3.662-6.268-7.282-9.516-10.805&#10;&#9;&#9;&#9;c-1.033-1.12-2.759,0.309-2.06,1.59c2.659,4.869,5.782,9.54,9.136,14.086c-1.908,3.854-3.764,7.731-5.497,11.66&#10;&#9;&#9;&#9;c-0.63,1.429,1.219,2.574,2.12,1.24c2.08-3.078,4.024-6.253,6-9.405c3.714,4.776,7.67,9.401,11.681,13.919&#10;&#9;&#9;&#9;c-5.825,8.627-11.57,17.311-17.124,26.128c-0.662,0.16-1.214,0.863-0.939,1.557c-0.51,1.149,0.4,2.065,1.454,2.123&#10;&#9;&#9;&#9;c4.956,7.061,10.425,13.562,16.48,19.714c-5.354,6.685-10.61,13.428-15.597,20.328c-0.827,1.144,0.926,2.343,1.885,1.454&#10;&#9;&#9;&#9;c6.051-5.61,12.026-11.504,17.956-17.512c6.343,6.251,13.422,12.979,21.22,16.843c1.458,0.722,3.032-1.083,1.793-2.323&#10;&#9;&#9;&#9;c-6.246-6.247-13.685-11.322-20.334-17.245c6.714-6.888,13.322-13.973,19.806-21.238c5.144,5.78,10.367,11.494,15.761,16.985&#10;&#9;&#9;&#9;c-5.206,6.393-10.411,12.766-15.698,19.001c-1.13,1.332,0.623,3.141,1.934,1.934c5.91-5.445,11.834-11.146,17.632-17.042&#10;&#9;&#9;&#9;c1.82,1.78,3.661,3.531,5.529,5.243c1.08,0.99,3.125-0.355,2.148-1.657c-1.607-2.144-3.343-4.198-5.034-6.284&#10;&#9;&#9;&#9;c7.243-7.512,14.205-15.372,20.554-23.581c1.244,1.536,2.485,3.074,3.73,4.609c1.876,2.315,5.144-0.98,3.275-3.276&#10;&#9;&#9;&#9;c-1.391-1.707-2.785-3.411-4.175-5.118c3.363-4.546,6.574-9.169,9.477-13.918C1077.366,706.471,1074.686,704.368,1073.148,705.986&#10;&#9;&#9;&#9;z M1064.302,669.693c-6.788,8.112-13.727,16.152-20.759,24.153c-6.674-8.159-13.368-16.301-20.066-24.439&#10;&#9;&#9;&#9;c1.261-1.821,2.523-3.639,3.784-5.461c4.821-6.968,9.855-13.899,14.897-20.856&#10;&#9;&#9;&#9;C1049.228,651.958,1056.184,661.791,1064.302,669.693z M1040.577,697.214c-7.246,8.224-14.509,16.45-21.712,24.721&#10;&#9;&#9;&#9;c-2.395-2.608-4.795-5.214-7.14-7.847c-3.662-4.113-7.221-8.329-10.747-12.576c6.765-9.473,13.434-19.017,20.067-28.594&#10;&#9;&#9;&#9;C1027.547,681.024,1034.051,689.127,1040.577,697.214z M1019.82,664.954c-4.652-5.645-9.333-11.267-14.002-16.898&#10;&#9;&#9;&#9;c1.894-3.37,3.782-6.746,5.71-10.085c3.498-6.051,7.178-12.058,10.818-18.099c5.311,6.075,10.581,12.185,15.801,18.343&#10;&#9;&#9;&#9;c-4.448,6.64-8.882,13.267-13.419,19.738C1023.091,660.287,1021.458,662.621,1019.82,664.954z M1056.674,611.46&#10;&#9;&#9;&#9;c-5.444,7.414-10.663,15.041-15.81,22.703c-5.395-6.009-10.866-11.949-16.401-17.829c4.935-8.271,9.71-16.637,13.742-25.312&#10;&#9;&#9;&#9;c0.205-0.02,0.41-0.041,0.615-0.062C1044.396,598.065,1050.483,604.815,1056.674,611.46z M1019.662,592.133&#10;&#9;&#9;&#9;c3.849-0.291,8.706-0.409,13.796-0.736c-4.709,6.614-8.984,13.581-13.064,20.669c-5.107-5.374-10.234-10.73-15.414-16.031&#10;&#9;&#9;&#9;c-0.231-0.235-0.481-0.338-0.732-0.388c0.516-0.84,1.032-1.682,1.553-2.521C1010.437,592.815,1015.063,592.48,1019.662,592.133z&#10;&#9;&#9;&#9; M986.891,625.326c5.156-9.201,10.438-18.332,15.946-27.387c0.037,0.049,0.047,0.102,0.091,0.149&#10;&#9;&#9;&#9;c5.231,5.738,10.386,11.54,15.518,17.362c-3.784,6.684-7.447,13.426-11.211,20.011c-1.609,2.815-3.233,5.63-4.86,8.445&#10;&#9;&#9;&#9;C997.223,637.705,992.069,631.506,986.891,625.326z M985.748,683.089c6.308-10.38,12.213-21.036,18.151-31.644&#10;&#9;&#9;&#9;c4.501,5.652,8.992,11.312,13.509,16.951c-6.712,9.574-13.383,19.171-19.959,28.831&#10;&#9;&#9;&#9;C993.563,692.499,989.669,687.78,985.748,683.089z M996.627,748.317c-5.836-5.83-11.331-12.028-16.633-18.346&#10;&#9;&#9;&#9;c6.161-8.023,12.137-16.173,18.041-24.374c2.114,2.347,4.226,4.677,6.302,6.979c3.827,4.244,7.631,8.572,11.451,12.904&#10;&#9;&#9;&#9;C1009.269,733.011,1002.867,740.615,996.627,748.317z M1039.641,745.008c-4.958-5.847-10.16-11.515-15.369-17.163&#10;&#9;&#9;&#9;c7.174-8.149,14.169-16.458,20.954-24.881c4.823,5.971,9.655,11.938,14.486,17.904&#10;&#9;&#9;&#9;C1052.886,728.766,1046.251,736.889,1039.641,745.008z"/>
		<path fill="#38231D" d="M983.065,543.848c0.247,2.14,1.642,4.055,4.023,4.024c2.009-0.026,3.926-0.178,5.913-0.456&#10;&#9;&#9;&#9;c1.182-0.165,2.347-1.469,2.59-2.59c0.768-3.542-0.213-6.279,0.146-9.79c0.249-2.427,0.22-4.967,0.446-7.432&#10;&#9;&#9;&#9;c0.128-1.404-0.389-2.3-1.187-2.796c7.208-1.32,14.38-2.812,21.427-4.628c4.732-1.219,3.928-9.325-1.187-8.77&#10;&#9;&#9;&#9;c-8.069,0.874-16.086,2.292-23.977,4.205c-9.86-21.57-19.516-44.421-34.543-62.81c-14.562-17.82-34.221-27.593-55.04-36.327&#10;&#9;&#9;&#9;c-1.161-0.486-1.992,1.488-0.86,2.04c23.194,11.312,42.616,23.665,56.127,46.511c9.94,16.81,17.393,35.163,25.491,52.972&#10;&#9;&#9;&#9;c-8.366,2.483-16.551,5.541-24.419,9.26c-0.951,0.45-0.484,2.03,0.535,1.976c8.51-0.453,17.053-1.385,25.562-2.621&#10;&#9;&#9;&#9;C982.518,532.109,982.427,538.324,983.065,543.848z M990.846,538.354c-0.038-2.309-0.011-4.61,0.021-6.915&#10;&#9;&#9;&#9;c0.501,1.22,0.886,2.568,0.895,3.597C991.773,536.183,991.37,537.286,990.846,538.354z"/>
	</g>
	<g>
		<path fill="#8AA3AA" d="M394.99,657.144c-1.714-9.932-1.805-20.231-2.58-30.359c2.669,4.749,5.805,9.269,8.911,13.565&#10;&#9;&#9;&#9;c2.132,2.949,7.222,3.887,9.143,0c4.196-8.496,8.817-17.316,14.883-24.806c-0.884,14.824-0.704,31.74,5.05,44.481&#10;&#9;&#9;&#9;c1.573,3.484,6.209,1.28,6.5-1.761c0.814-8.523-1.356-17.472-2.109-26.004c-0.769-8.711-1.333-17.461-1.802-26.193&#10;&#9;&#9;&#9;c-0.108-2.009-2.178-4.266-4.406-3.356c-9.955,4.066-17.351,15.232-23.176,25.195c-4.646-6.651-9.34-13.404-15.076-18.963&#10;&#9;&#9;&#9;c-0.217-0.211-0.45-0.364-0.688-0.478c-0.072-0.278-0.115-0.564-0.19-0.841c-0.458-1.688-3.075-2.199-3.911-0.511&#10;&#9;&#9;&#9;c-7.947,16.053-5.205,36.214-2.658,53.37C384.053,668.382,396.367,665.122,394.99,657.144z"/>
		<path fill="#8AA3AA" d="M453.685,658.685c0.398-3.449,0.816-6.892,1.22-10.338c4.425,1.695,10.683,1.152,15.091,1.091&#10;&#9;&#9;&#9;c1.12,4.442,1.973,7.803,2.256,8.792c1.885,6.585,11.709,3.828,10.225-2.819c-2.981-13.353-6.233-26.712-10.137-39.829&#10;&#9;&#9;&#9;c-1.64-5.515-4.448-13.419-11.681-12.646c-3.015,0.322-5.008,2.073-6.419,4.38c-0.301,0.272-0.574,0.635-0.8,1.104&#10;&#9;&#9;&#9;c-7.599,15.72-9.405,33.02-10.686,50.265C442.236,665.643,453.7,665.789,453.685,658.685z M460.767,614.54&#10;&#9;&#9;&#9;c0.337-0.06,3.504,12.242,6.442,23.851c-3.626-0.118-7.821-0.201-11.22,0.769c0.796-6.63,1.643-13.256,2.508-19.88&#10;&#9;&#9;&#9;C459.35,616.594,460.171,614.645,460.767,614.54z"/>
		<path fill="#8AA3AA" d="M486.925,610.732c2.868,0.316,5.648,0.665,8.424,0.985c-0.325,4.257,0.318,8.596,0.907,13.062&#10;&#9;&#9;&#9;c1.244,9.424,2.972,18.984,6.531,27.825c1.918,4.764,10.387,4.829,9.867-1.335c-0.694-8.225-2.495-16.267-3.981-24.372&#10;&#9;&#9;&#9;c-0.849-4.633-1.347-9.656-2.651-14.32c0.388,0.014,0.761,0.048,1.151,0.057c5.76,0.125,12.03,1.861,17.008-1.509&#10;&#9;&#9;&#9;c2.131-1.443,3.009-4.715,0.857-6.647c-4.941-4.439-11.513-3.408-17.864-3.188c-7.769,0.269-13.679,2.01-20.915,4.51&#10;&#9;&#9;&#9;C483.479,606.759,484.134,610.424,486.925,610.732z"/>
		<path fill="#8AA3AA" d="M539.068,652.786c1.969,5.837,9.542,4.335,10.232-1.385c0.672-5.569,0.101-11.306-0.701-16.985&#10;&#9;&#9;&#9;c4.599,0.295,9.203,0.479,13.815,0.397c1.164-0.021,2.769-0.059,4.275-0.358c0.166,5.647,0.35,11.294,0.694,16.93&#10;&#9;&#9;&#9;c0.456,7.491,12.164,7.55,11.72,0c-0.559-9.493-1.543-18.968-2.365-28.442c-0.677-7.795-1.102-14.819-4.683-21.89&#10;&#9;&#9;&#9;c-0.86-1.697-3.185-1.041-3.74,0.489c-2.822,7.763-2.182,15.178-1.915,23.298c0.016,0.488,0.029,0.976,0.045,1.463&#10;&#9;&#9;&#9;c-2.138-0.24-4.56,0.122-6.11,0.274c-4.256,0.418-8.465,0.957-12.666,1.586c-0.186-1.25-0.366-2.494-0.527-3.727&#10;&#9;&#9;&#9;c-0.991-7.61-1.818-14.881-5.352-21.793c-1.172-2.291-4.71-1.636-5.356,0.7c-2.267,8.205-1.252,16.402-0.63,24.787&#10;&#9;&#9;&#9;C536.409,636.313,536.431,644.966,539.068,652.786z"/>
		<path fill="#8AA3AA" d="M577.717,661.073c-29.41,8.999-66.644,5.925-97.268,7.153c-29.743,1.193-61.218-0.664-90.46,5.2&#10;&#9;&#9;&#9;c-0.952,0.191-1.002,1.824,0,1.974c31.924,4.755,66.128,0.543,98.3-0.243c29.526-0.721,63.275,3.266,91.752-5.653&#10;&#9;&#9;&#9;C585.391,667.829,583.123,659.419,577.717,661.073z"/>
	</g>
	<g>
		<path fill="#40656B" d="M817.403,416.333c73.467,10.836,107.447,91.939,127.482,154.559&#10;&#9;&#9;&#9;c22.57,70.542,24.815,143.272,27.075,216.635c0.23,7.469,11.485,7.503,11.627,0c1.571-83.02-4.417-165.91-35.33-243.791&#10;&#9;&#9;&#9;c-23.282-58.656-61.122-123.454-130.41-130.691C815.99,412.85,815.535,416.057,817.403,416.333L817.403,416.333z"/>
	</g>
</g>
</svg>